<svg xmlns="http://www.w3.org/2000/svg" viewBox="0 0 500 500"><g id="freepik--City--inject-5"><polygon id="freepik--city--inject-5" points="21.38 338.52 21.38 127.88 55.88 107.95 81.76 122.89 81.76 174.58 94.7 167.11 94.7 147.19 107.64 139.71 107.64 63.89 146.47 41.48 163.72 51.44 163.72 74.71 180.98 64.75 198.23 74.71 198.23 117.88 215.49 127.82 215.49 86.42 232.74 76.46 254.31 88.91 254.31 138.72 275.88 126.27 275.88 46.57 301.76 31.63 331.95 49.06 331.95 113.72 344.89 121.19 344.89 147.38 362.15 157.34 362.15 67.78 383.72 55.33 409.6 70.27 409.6 91.54 422.54 99.01 422.54 156.47 439.79 166.43 439.79 127.55 465.68 112.61 478.62 120.08 478.62 338.52 21.38 338.52" style="fill:#f0f0f0"></polygon></g><g id="freepik--Floor--inject-5"><path id="freepik--floor--inject-5" d="M84.92,259.74c-91.17,52.63-91.17,138,0,190.61s239,52.64,330.16,0,91.17-138,0-190.61S176.09,207.1,84.92,259.74Z" style="fill:#fafafa"></path></g><g id="freepik--Shadows--inject-5"><polygon id="freepik--Shadow--inject-5" points="473.03 340.26 319.91 428.66 247.58 386.9 400.71 298.5 473.03 340.26" style="fill:#e0e0e0"></polygon><path id="freepik--shadow--inject-5" d="M77,418.36l14.33-8.27a.59.59,0,0,0,0-1.12L77,400.7a2.12,2.12,0,0,0-1.93,0L60.69,409a.59.59,0,0,0,0,1.12L75,418.36A2.12,2.12,0,0,0,77,418.36Z" style="fill:#e0e0e0"></path><path id="freepik--shadow--inject-5" d="M108.93,426.56l14.33-8.27a.59.59,0,0,0,0-1.11l-14.33-8.28a2.18,2.18,0,0,0-1.93,0l-14.33,8.28a.59.59,0,0,0,0,1.11L107,426.56A2.12,2.12,0,0,0,108.93,426.56Z" style="fill:#e0e0e0"></path><path id="freepik--shadow--inject-5" d="M391.19,440.34l14.33-8.27c.54-.31.54-.81,0-1.11l-14.33-8.28a2.12,2.12,0,0,0-1.93,0L374.93,431a.59.59,0,0,0,0,1.11l14.33,8.27A2.12,2.12,0,0,0,391.19,440.34Z" style="fill:#e0e0e0"></path><path id="freepik--shadow--inject-5" d="M416.45,418.2l14.33-8.28a.59.59,0,0,0,0-1.11l-14.33-8.27a2.12,2.12,0,0,0-1.93,0l-14.33,8.27a.59.59,0,0,0,0,1.11l14.33,8.28A2.12,2.12,0,0,0,416.45,418.2Z" style="fill:#e0e0e0"></path><g id="freepik--shadow--inject-5"><path d="M237.51,438.78a.53.53,0,0,1-.27-.08l-17.57-10.14a.54.54,0,0,1,0-.93l17.57-10.14a.52.52,0,0,1,.54,0l17.57,10.14a.54.54,0,0,1,0,.93L237.78,438.7A.53.53,0,0,1,237.51,438.78ZM221,428.1l16.48,9.51L254,428.1l-16.48-9.52Z" style="fill:#e0e0e0"></path><path d="M255.08,428.64H219.94a.55.55,0,0,1,0-1.09h35.14a.55.55,0,0,1,0,1.09Z" style="fill:#e0e0e0"></path><path d="M237.51,438.78a.54.54,0,0,1-.54-.54V418a.54.54,0,1,1,1.08,0v20.29A.54.54,0,0,1,237.51,438.78Z" style="fill:#e0e0e0"></path><path d="M220,428.64a.57.57,0,0,1-.28-.08l-17.56-10.14a.54.54,0,0,1,0-.93l17.56-10.15a.59.59,0,0,1,.55,0l17.56,10.15a.54.54,0,0,1,0,.93l-17.56,10.14A.56.56,0,0,1,220,428.64ZM203.46,418,220,427.47,236.43,418,220,408.44Z" style="fill:#e0e0e0"></path><path d="M237.51,418.49H202.38a.54.54,0,0,1-.54-.54.54.54,0,0,1,.54-.54h35.13a.54.54,0,0,1,.54.54A.54.54,0,0,1,237.51,418.49Z" style="fill:#e0e0e0"></path><path d="M220,428.64a.55.55,0,0,1-.55-.54V407.81a.55.55,0,0,1,1.09,0V428.1A.55.55,0,0,1,220,428.64Z" style="fill:#e0e0e0"></path><path d="M202.38,418.49a.52.52,0,0,1-.27-.07l-17.57-10.14a.53.53,0,0,1-.27-.47.55.55,0,0,1,.27-.47l17.57-10.14a.57.57,0,0,1,.54,0l17.57,10.14a.57.57,0,0,1,.27.47.55.55,0,0,1-.27.47l-17.57,10.14A.52.52,0,0,1,202.38,418.49Zm-16.49-10.68,16.49,9.52,16.48-9.52-16.48-9.51Z" style="fill:#e0e0e0"></path><path d="M220,408.35H184.81a.54.54,0,1,1,0-1.08H220a.54.54,0,0,1,0,1.08Z" style="fill:#e0e0e0"></path><path d="M202.38,418.49a.54.54,0,0,1-.54-.54V397.67a.54.54,0,1,1,1.08,0V418A.54.54,0,0,1,202.38,418.49Z" style="fill:#e0e0e0"></path><path d="M184.81,408.35a.54.54,0,0,1-.27-.07L167,398.14a.54.54,0,0,1,0-.94l17.56-10.14a.52.52,0,0,1,.54,0l17.57,10.14a.54.54,0,0,1,0,.94l-17.57,10.14A.5.5,0,0,1,184.81,408.35Zm-16.48-10.68,16.48,9.52,16.49-9.52-16.49-9.52Z" style="fill:#e0e0e0"></path><path d="M202.38,398.21H167.25a.54.54,0,0,1,0-1.08h35.13a.54.54,0,0,1,0,1.08Z" style="fill:#e0e0e0"></path><path d="M184.81,408.35a.54.54,0,0,1-.54-.54V387.53a.54.54,0,0,1,1.08,0v20.28A.54.54,0,0,1,184.81,408.35Z" style="fill:#e0e0e0"></path><path d="M167.25,398.21a.5.5,0,0,1-.27-.07L149.41,388a.54.54,0,0,1,0-.94L167,376.92a.52.52,0,0,1,.54,0l17.56,10.14a.54.54,0,0,1,0,.94l-17.56,10.14A.54.54,0,0,1,167.25,398.21Zm-16.49-10.68,16.49,9.52,16.48-9.52L167.25,378Z" style="fill:#e0e0e0"></path><path d="M184.81,388.07H149.68a.54.54,0,1,1,0-1.08h35.13a.54.54,0,1,1,0,1.08Z" style="fill:#e0e0e0"></path><path d="M167.25,398.21a.54.54,0,0,1-.54-.54V377.39a.54.54,0,0,1,1.08,0v20.28A.54.54,0,0,1,167.25,398.21Z" style="fill:#e0e0e0"></path><path d="M149.68,388.07a.54.54,0,0,1-.27-.07l-17.56-10.14a.55.55,0,0,1-.27-.47.53.53,0,0,1,.27-.47l17.56-10.14a.52.52,0,0,1,.54,0l17.57,10.14a.55.55,0,0,1,.27.47.57.57,0,0,1-.27.47L150,388A.52.52,0,0,1,149.68,388.07ZM133.2,377.39l16.48,9.51,16.48-9.51-16.48-9.52Z" style="fill:#e0e0e0"></path><path d="M167.25,377.93H132.12a.54.54,0,0,1,0-1.08h35.13a.54.54,0,1,1,0,1.08Z" style="fill:#e0e0e0"></path><path d="M149.68,388.07a.54.54,0,0,1-.54-.54V367.25a.54.54,0,1,1,1.08,0v20.28A.54.54,0,0,1,149.68,388.07Z" style="fill:#e0e0e0"></path><path d="M132.12,377.93a.6.6,0,0,1-.27-.07l-17.57-10.15a.54.54,0,0,1,0-.93l17.57-10.14a.52.52,0,0,1,.54,0L150,366.78a.54.54,0,0,1,0,.93l-17.56,10.15A.68.68,0,0,1,132.12,377.93Zm-16.49-10.69,16.49,9.52,16.48-9.51-16.48-9.52Z" style="fill:#e0e0e0"></path><path d="M149.68,367.79H114.55a.55.55,0,0,1,0-1.09h35.13a.54.54,0,0,1,.54.54A.54.54,0,0,1,149.68,367.79Z" style="fill:#e0e0e0"></path><path d="M132.12,377.93a.54.54,0,0,1-.54-.54V357.1a.54.54,0,0,1,.54-.54.54.54,0,0,1,.54.54v20.29A.54.54,0,0,1,132.12,377.93Z" style="fill:#e0e0e0"></path><path d="M114.55,367.79a.53.53,0,0,1-.27-.08L96.71,357.57a.55.55,0,0,1-.27-.47.54.54,0,0,1,.27-.46l17.57-10.15a.57.57,0,0,1,.54,0l17.57,10.15a.54.54,0,0,1,0,.93l-17.57,10.14A.53.53,0,0,1,114.55,367.79ZM98.07,357.1l16.48,9.52L131,357.1l-16.48-9.51Z" style="fill:#e0e0e0"></path><path d="M132.12,357.65H97a.54.54,0,1,1,0-1.08h35.14a.55.55,0,0,1,0,1.09Z" style="fill:#e0e0e0"></path><path d="M114.55,367.79a.54.54,0,0,1-.54-.54V347a.54.54,0,0,1,1.08,0v20.29A.54.54,0,0,1,114.55,367.79Z" style="fill:#e0e0e0"></path><path d="M97,357.65a.56.56,0,0,1-.27-.08L79.15,347.43a.53.53,0,0,1-.27-.47.55.55,0,0,1,.27-.47l17.56-10.14a.52.52,0,0,1,.54,0l17.57,10.14a.55.55,0,0,1,.27.47.53.53,0,0,1-.27.47L97.25,357.57A.5.5,0,0,1,97,357.65ZM80.5,347,97,356.48,113.47,347,97,337.44Z" style="fill:#e0e0e0"></path><path d="M114.55,347.5H79.42a.54.54,0,1,1,0-1.08h35.13a.54.54,0,1,1,0,1.08Z" style="fill:#e0e0e0"></path><path d="M97,357.65a.55.55,0,0,1-.54-.55V336.82a.54.54,0,0,1,.54-.54.54.54,0,0,1,.54.54V357.1A.55.55,0,0,1,97,357.65Z" style="fill:#e0e0e0"></path><path d="M272.64,459.06a.54.54,0,0,1-.27-.07l-17.56-10.14a.56.56,0,0,1-.28-.47.54.54,0,0,1,.28-.47l17.56-10.14a.52.52,0,0,1,.54,0l17.57,10.14a.53.53,0,0,1,.27.47.55.55,0,0,1-.27.47L272.91,459A.52.52,0,0,1,272.64,459.06Zm-16.48-10.68,16.48,9.52,16.49-9.52-16.49-9.52Z" style="fill:#e0e0e0"></path><path d="M290.21,448.92H255.08a.54.54,0,1,1,0-1.08h35.13a.54.54,0,1,1,0,1.08Z" style="fill:#e0e0e0"></path><path d="M272.64,459.06a.54.54,0,0,1-.54-.54V438.24a.54.54,0,1,1,1.08,0v20.28A.54.54,0,0,1,272.64,459.06Z" style="fill:#e0e0e0"></path><path d="M255.08,448.92a.6.6,0,0,1-.27-.07L237.24,438.7a.54.54,0,0,1,0-.93l17.57-10.14a.52.52,0,0,1,.54,0l17.56,10.14a.54.54,0,0,1,0,.93l-17.56,10.15A.68.68,0,0,1,255.08,448.92Zm-16.49-10.68,16.49,9.51,16.48-9.51-16.48-9.52Z" style="fill:#e0e0e0"></path><path d="M272.64,438.78H237.51a.54.54,0,0,1,0-1.08h35.13a.54.54,0,0,1,0,1.08Z" style="fill:#e0e0e0"></path><path d="M255.08,448.92a.55.55,0,0,1-.55-.54V428.1a.55.55,0,1,1,1.09,0v20.28A.54.54,0,0,1,255.08,448.92Z" style="fill:#e0e0e0"></path><polygon points="351.08 386.97 210.42 468.18 220.96 474.27 361.63 393.06 351.08 386.97" style="fill:#e0e0e0"></polygon><polygon points="222.83 393.05 125.63 336.93 72.59 367.55 169.79 423.67 222.83 393.05" style="fill:#e0e0e0"></polygon><polygon points="76.78 349.3 60.98 340.19 85.07 326.29 100.87 335.39 76.78 349.3" style="fill:#e0e0e0"></polygon></g></g><g id="freepik--construction-crane--inject-5"><g id="freepik--Crane--inject-5"><g id="freepik--Base--inject-5"><polygon points="210.5 387.46 168.48 411.73 84.42 363.2 126.45 338.94 210.5 387.46" style="fill:#455a64"></polygon><polygon points="210.5 387.46 168.48 411.73 168.48 417.26 210.5 393 210.5 387.46" style="fill:#263238"></polygon><polygon points="84.42 363.2 84.42 368.73 168.48 417.26 168.48 411.73 84.42 363.2" style="fill:#37474f"></polygon><polygon points="187.09 366.82 161.37 381.67 109.92 351.97 135.65 337.12 187.09 366.82" style="fill:#407BFF"></polygon><polygon points="187.09 366.82 161.37 381.67 109.92 351.97 135.65 337.12 187.09 366.82" style="fill:#fff;opacity:0.5"></polygon><polygon points="187.09 366.82 161.37 381.67 161.37 397.69 187.09 382.83 187.09 366.82" style="fill:#407BFF"></polygon><polygon points="109.92 351.97 109.92 367.98 161.37 397.69 161.37 381.67 109.92 351.97" style="fill:#407BFF"></polygon><polygon points="109.92 351.97 109.92 367.98 161.37 397.69 161.37 381.67 109.92 351.97" style="fill:#fff;opacity:0.30000000000000004"></polygon><polygon points="109.92 356.37 109.92 367.98 161.37 397.69 161.37 386.07 109.92 356.37" style="fill:#455a64"></polygon><polygon points="187.09 371.22 187.09 382.83 161.37 397.69 161.37 386.07 187.09 371.22" style="fill:#37474f"></polygon><polygon points="146.52 377.5 143.59 375.81 131.67 380.54 134.6 382.23 146.52 377.5" style="fill:#407BFF"></polygon><polygon points="127.17 377.94 139.09 373.21 136.16 371.52 124.24 376.25 127.17 377.94" style="fill:#407BFF"></polygon><polygon points="161.37 393.31 161.37 390.45 153.94 393.4 156.87 395.09 161.37 393.31" style="fill:#407BFF"></polygon><polygon points="131.67 368.93 128.74 367.24 116.82 371.96 119.75 373.65 131.67 368.93" style="fill:#407BFF"></polygon><polygon points="109.92 363.61 117.35 360.66 114.42 358.97 109.92 360.75 109.92 363.61" style="fill:#407BFF"></polygon><polygon points="124.77 364.95 121.85 363.26 109.92 367.99 112.85 369.68 124.77 364.95" style="fill:#407BFF"></polygon><polygon points="161.37 386.07 158.44 384.38 146.52 389.11 149.45 390.8 161.37 386.07" style="fill:#407BFF"></polygon><polygon points="153.94 381.79 151.01 380.1 139.09 384.82 142.02 386.51 153.94 381.79" style="fill:#407BFF"></polygon><g style="opacity:0.5"><polygon points="146.52 377.5 143.59 375.81 131.67 380.54 134.6 382.23 146.52 377.5" style="fill:#fff"></polygon><polygon points="127.17 377.94 139.09 373.21 136.16 371.52 124.24 376.25 127.17 377.94" style="fill:#fff"></polygon><polygon points="161.37 393.31 161.37 390.45 153.94 393.4 156.87 395.09 161.37 393.31" style="fill:#fff"></polygon><polygon points="131.67 368.93 128.74 367.24 116.82 371.96 119.75 373.65 131.67 368.93" style="fill:#fff"></polygon><polygon points="109.92 363.61 117.35 360.66 114.42 358.97 109.92 360.75 109.92 363.61" style="fill:#fff"></polygon><polygon points="124.77 364.95 121.85 363.26 109.92 367.99 112.85 369.68 124.77 364.95" style="fill:#fff"></polygon><polygon points="161.37 386.07 158.44 384.38 146.52 389.11 149.45 390.8 161.37 386.07" style="fill:#fff"></polygon><polygon points="153.94 381.79 151.01 380.1 139.09 384.82 142.02 386.51 153.94 381.79" style="fill:#fff"></polygon></g><polygon points="176.22 389.11 164.3 384.38 161.37 386.07 173.29 390.8 176.22 389.11" style="fill:#407BFF"></polygon><polygon points="168.8 381.79 180.72 386.51 183.65 384.82 171.72 380.1 168.8 381.79" style="fill:#407BFF"></polygon><polygon points="168.79 393.4 161.37 390.45 161.37 393.3 165.87 395.09 168.79 393.4" style="fill:#407BFF"></polygon><polygon points="187.09 378.96 179.15 375.81 176.22 377.5 187.09 381.81 187.09 378.96" style="fill:#407BFF"></polygon><polygon points="186.57 371.52 183.65 373.21 187.09 374.58 187.09 371.73 186.57 371.52" style="fill:#407BFF"></polygon><g style="opacity:0.30000000000000004"><polygon points="176.22 389.11 164.3 384.38 161.37 386.07 173.29 390.8 176.22 389.11" style="fill:#fff"></polygon><polygon points="168.8 381.79 180.72 386.51 183.65 384.82 171.72 380.1 168.8 381.79" style="fill:#fff"></polygon><polygon points="168.79 393.4 161.37 390.45 161.37 393.3 165.87 395.09 168.79 393.4" style="fill:#fff"></polygon><polygon points="187.09 378.96 179.15 375.81 176.22 377.5 187.09 381.81 187.09 378.96" style="fill:#fff"></polygon><polygon points="186.57 371.52 183.65 373.21 187.09 374.58 187.09 371.73 186.57 371.52" style="fill:#fff"></polygon></g></g><path d="M280.27,252a2.68,2.68,0,1,0,2.68-2.68A2.68,2.68,0,0,0,280.27,252Z" style="fill:#455a64"></path><path d="M284.06,270a2.31,2.31,0,0,0,1.17-.32c1-.6,1.65-2,1.65-3.82a.78.78,0,1,0-1.56,0c0,1.45-.45,2.23-.87,2.48a1.08,1.08,0,0,1-1.11-.13c-1.5-.86-2.76-3.61-2.76-6,0-1.46.45-2.24.87-2.48a1.09,1.09,0,0,1,1.11.12.78.78,0,0,0,1.17-.67v-4.52a.78.78,0,0,0-.78-.78.77.77,0,0,0-.77.78v3.43a2.36,2.36,0,0,0-1.5.29c-1.05.61-1.65,2-1.65,3.83,0,3,1.55,6.19,3.53,7.34A3,3,0,0,0,284.06,270Z" style="fill:#455a64"></path><path d="M278.82,239.73l5.46-3.15a.52.52,0,0,1,.56,0c.17.11,2.65,1.53,2.8,1.61a.77.77,0,0,1,.28.68v4.61l-1.05,5.86-5,2.91L279,250.59l-1-4.65v-4.61A2,2,0,0,1,278.82,239.73Z" style="fill:#407BFF"></path><path d="M278.82,239.73l5.46-3.15a.52.52,0,0,1,.56,0c.17.11,2.65,1.53,2.8,1.61a.77.77,0,0,1,.28.68v4.61l-1.05,5.86-5,2.91L279,250.59l-1-4.65v-4.61A2,2,0,0,1,278.82,239.73Z" style="fill:#fff;opacity:0.30000000000000004"></path><path d="M281.84,252.22,279,250.59l-1-4.65v-4.61a2.13,2.13,0,0,1,.25-.94l3.61,2.09Z" style="fill:#407BFF"></path><path d="M281.84,252.22,279,250.59l-1-4.65v-4.61a2.13,2.13,0,0,1,.25-.94l3.61,2.09Z" style="opacity:0.2"></path><path d="M287.09,238.21l-5.46,3.15a2,2,0,0,0-.84,1.59v4.62l1,4.65,5-2.91,1.05-5.86v-4.61C287.92,238.22,287.55,237.94,287.09,238.21Z" style="fill:#407BFF"></path><polygon points="285.68 250 280.79 246.31 280.79 247.57 281.25 249.59 283.48 251.27 285.68 250" style="fill:#263238"></polygon><polygon points="286.32 238.65 284.12 239.92 287.92 242.79 287.92 239.86 286.32 238.65" style="fill:#263238"></polygon><path d="M281.88,241.21l-.25.15a2,2,0,0,0-.84,1.59v.37l6.3,4.76.47-2.58Z" style="fill:#263238"></path><path d="M281.41,239.88a.5.5,0,0,0,.5-.5V185.62a.5.5,0,0,0-.5-.5.5.5,0,0,0-.5.5v53.76A.51.51,0,0,0,281.41,239.88Z" style="fill:#455a64"></path><path d="M283.63,238.58a.49.49,0,0,0,.49-.5V184.32a.5.5,0,0,0-1,0v53.76A.5.5,0,0,0,283.63,238.58Z" style="fill:#455a64"></path><g id="freepik--crane--inject-5"><path d="M149.42,208a.52.52,0,0,1-.27-.46V187.21a.52.52,0,0,1,.27-.46L167,176.61a.52.52,0,0,1,.54,0,.54.54,0,0,1,.27.46v20.29a.54.54,0,0,1-.27.46L150,208a.5.5,0,0,1-.54,0Zm17.3-30-16.49,9.52v19L166.72,197Z" style="fill:#e0e0e0"></path><path d="M149.69,208a.55.55,0,0,0,.47-.27l17.56-30.43a.54.54,0,0,0-.93-.54l-17.57,30.43a.55.55,0,0,0,.47.81Z" style="fill:#e0e0e0"></path><path d="M167.26,197.9a.54.54,0,0,0,.27-1L150,186.75a.55.55,0,0,0-.74.19.54.54,0,0,0,.2.74L167,197.82A.5.5,0,0,0,167.26,197.9Z" style="fill:#e0e0e0"></path><path d="M149.42,228.25a.55.55,0,0,1-.27-.47V207.5a.53.53,0,0,1,.27-.47L167,196.89a.52.52,0,0,1,.54,0,.54.54,0,0,1,.27.47v20.28a.57.57,0,0,1-.27.47L150,228.25a.56.56,0,0,1-.54,0Zm17.3-30-16.49,9.52v19l16.49-9.51Z" style="fill:#e0e0e0"></path><path d="M149.69,228.32a.55.55,0,0,0,.47-.27l17.56-30.42a.55.55,0,0,0-.19-.74.54.54,0,0,0-.74.2l-17.57,30.42a.54.54,0,0,0,.2.74A.52.52,0,0,0,149.69,228.32Z" style="fill:#e0e0e0"></path><path d="M167.26,218.18a.54.54,0,0,0,.27-1L150,207a.54.54,0,0,0-.74.2.53.53,0,0,0,.2.73L167,218.11A.5.5,0,0,0,167.26,218.18Z" style="fill:#e0e0e0"></path><path d="M149.42,248.53a.52.52,0,0,1-.27-.47V227.78a.55.55,0,0,1,.27-.47L167,217.17a.52.52,0,0,1,.54,0,.57.57,0,0,1,.27.47v20.28a.55.55,0,0,1-.27.47L150,248.53a.56.56,0,0,1-.54,0Zm17.3-29.95-16.49,9.51v19l16.49-9.52Z" style="fill:#e0e0e0"></path><path d="M149.69,248.6a.53.53,0,0,0,.47-.27l17.56-30.42a.55.55,0,0,0-.19-.74.54.54,0,0,0-.74.2l-17.57,30.42a.54.54,0,0,0,.2.74A.52.52,0,0,0,149.69,248.6Z" style="fill:#e0e0e0"></path><path d="M167.26,238.46a.54.54,0,0,0,.27-1L150,227.31a.55.55,0,0,0-.74.2.54.54,0,0,0,.2.74L167,238.39A.5.5,0,0,0,167.26,238.46Z" style="fill:#e0e0e0"></path><path d="M149.42,268.82a.55.55,0,0,1-.27-.47V248.06a.52.52,0,0,1,.27-.46L167,237.45a.57.57,0,0,1,.54,0,.57.57,0,0,1,.27.47V258.2a.54.54,0,0,1-.27.47L150,268.82a.56.56,0,0,1-.54,0Zm17.3-30-16.49,9.52v19l16.49-9.52Z" style="fill:#e0e0e0"></path><path d="M149.69,268.89a.55.55,0,0,0,.47-.27l17.56-30.43a.54.54,0,1,0-.93-.54l-17.57,30.43a.54.54,0,0,0,.2.74A.64.64,0,0,0,149.69,268.89Z" style="fill:#e0e0e0"></path><path d="M167.26,258.75a.54.54,0,0,0,.27-1L150,247.6a.54.54,0,1,0-.54.93L167,258.67A.5.5,0,0,0,167.26,258.75Z" style="fill:#e0e0e0"></path><path d="M149.42,289.1a.55.55,0,0,1-.27-.47V268.35a.52.52,0,0,1,.27-.47L167,257.74a.52.52,0,0,1,.54,0,.54.54,0,0,1,.27.46v20.29a.57.57,0,0,1-.27.47L150,289.1a.56.56,0,0,1-.54,0Zm17.3-30-16.49,9.52v19l16.49-9.51Z" style="fill:#e0e0e0"></path><path d="M149.69,289.17a.55.55,0,0,0,.47-.27l17.56-30.42a.54.54,0,1,0-.93-.55l-17.57,30.43a.54.54,0,0,0,.2.74A.52.52,0,0,0,149.69,289.17Z" style="fill:#e0e0e0"></path><path d="M167.26,279a.54.54,0,0,0,.27-1L150,267.88a.54.54,0,0,0-.74.2.53.53,0,0,0,.2.73L167,279A.6.6,0,0,0,167.26,279Z" style="fill:#e0e0e0"></path><path d="M149.42,309.38a.52.52,0,0,1-.27-.47V288.63a.55.55,0,0,1,.27-.47L167,278a.52.52,0,0,1,.54,0,.55.55,0,0,1,.27.47v20.28a.55.55,0,0,1-.27.47L150,309.38a.56.56,0,0,1-.54,0Zm17.3-30-16.49,9.52v19l16.49-9.52Z" style="fill:#e0e0e0"></path><path d="M149.69,309.45a.53.53,0,0,0,.47-.27l17.56-30.42a.55.55,0,0,0-.19-.74.54.54,0,0,0-.74.2l-17.57,30.42a.54.54,0,0,0,.2.74A.52.52,0,0,0,149.69,309.45Z" style="fill:#e0e0e0"></path><path d="M167.26,299.31a.52.52,0,0,0,.46-.27.55.55,0,0,0-.19-.74L150,288.16a.55.55,0,0,0-.74.2.54.54,0,0,0,.2.74L167,299.24A.5.5,0,0,0,167.26,299.31Z" style="fill:#e0e0e0"></path><path d="M149.42,329.66a.52.52,0,0,1-.27-.46V308.91a.52.52,0,0,1,.27-.46L167,298.3a.57.57,0,0,1,.54,0,.57.57,0,0,1,.27.47v20.29a.54.54,0,0,1-.27.46L150,329.66a.5.5,0,0,1-.54,0Zm17.3-30-16.49,9.52v19l16.49-9.52Z" style="fill:#e0e0e0"></path><path d="M149.69,329.74a.55.55,0,0,0,.47-.27L167.72,299a.54.54,0,1,0-.93-.54l-17.57,30.43a.55.55,0,0,0,.47.81Z" style="fill:#e0e0e0"></path><path d="M167.26,319.6a.54.54,0,0,0,.27-1L150,308.45a.55.55,0,0,0-.74.19.54.54,0,0,0,.2.74L167,319.52A.5.5,0,0,0,167.26,319.6Z" style="fill:#e0e0e0"></path><path d="M149.42,350a.55.55,0,0,1-.27-.47V329.2a.53.53,0,0,1,.27-.47L167,318.59a.52.52,0,0,1,.54,0,.54.54,0,0,1,.27.47v20.28a.57.57,0,0,1-.27.47L150,350a.56.56,0,0,1-.54,0Zm17.3-30-16.49,9.52v19L166.72,339Z" style="fill:#e0e0e0"></path><path d="M149.69,350a.55.55,0,0,0,.47-.27l17.56-30.42a.54.54,0,1,0-.93-.55l-17.57,30.43a.54.54,0,0,0,.2.74A.52.52,0,0,0,149.69,350Z" style="fill:#e0e0e0"></path><path d="M167.26,339.88a.54.54,0,0,0,.27-1L150,328.73a.54.54,0,0,0-.74.2.53.53,0,0,0,.2.73L167,339.81A.6.6,0,0,0,167.26,339.88Z" style="fill:#e0e0e0"></path><path d="M149.42,370.23a.53.53,0,0,1-.27-.47V349.48a.55.55,0,0,1,.27-.47L167,338.87a.52.52,0,0,1,.54,0,.55.55,0,0,1,.27.47v20.28a.55.55,0,0,1-.27.47L150,370.23a.56.56,0,0,1-.54,0Zm17.3-30-16.49,9.51v19l16.49-9.52Z" style="fill:#e0e0e0"></path><path d="M149.69,370.3a.53.53,0,0,0,.47-.27l17.56-30.42a.55.55,0,0,0-.19-.74.54.54,0,0,0-.74.2l-17.57,30.42a.54.54,0,0,0,.2.74A.52.52,0,0,0,149.69,370.3Z" style="fill:#e0e0e0"></path><path d="M167.26,360.16a.54.54,0,0,0,.27-1L150,349a.54.54,0,1,0-.54.94L167,360.09A.5.5,0,0,0,167.26,360.16Z" style="fill:#e0e0e0"></path><g style="opacity:0.4"><path d="M149.42,208a.52.52,0,0,1-.27-.46V187.21a.52.52,0,0,1,.27-.46L167,176.61a.52.52,0,0,1,.54,0,.54.54,0,0,1,.27.46v20.29a.54.54,0,0,1-.27.46L150,208a.5.5,0,0,1-.54,0Zm17.3-30-16.49,9.52v19L166.72,197Z"></path><path d="M149.69,208a.55.55,0,0,0,.47-.27l17.56-30.43a.54.54,0,0,0-.93-.54l-17.57,30.43a.55.55,0,0,0,.47.81Z"></path><path d="M167.26,197.9a.54.54,0,0,0,.27-1L150,186.75a.55.55,0,0,0-.74.19.54.54,0,0,0,.2.74L167,197.82A.5.5,0,0,0,167.26,197.9Z"></path><path d="M149.42,228.25a.55.55,0,0,1-.27-.47V207.5a.53.53,0,0,1,.27-.47L167,196.89a.52.52,0,0,1,.54,0,.54.54,0,0,1,.27.47v20.28a.57.57,0,0,1-.27.47L150,228.25a.56.56,0,0,1-.54,0Zm17.3-30-16.49,9.52v19l16.49-9.51Z"></path><path d="M149.69,228.32a.55.55,0,0,0,.47-.27l17.56-30.42a.55.55,0,0,0-.19-.74.54.54,0,0,0-.74.2l-17.57,30.42a.54.54,0,0,0,.2.74A.52.52,0,0,0,149.69,228.32Z"></path><path d="M167.26,218.18a.54.54,0,0,0,.27-1L150,207a.54.54,0,0,0-.74.2.53.53,0,0,0,.2.73L167,218.11A.5.5,0,0,0,167.26,218.18Z"></path><path d="M149.42,248.53a.52.52,0,0,1-.27-.47V227.78a.55.55,0,0,1,.27-.47L167,217.17a.52.52,0,0,1,.54,0,.57.57,0,0,1,.27.47v20.28a.55.55,0,0,1-.27.47L150,248.53a.56.56,0,0,1-.54,0Zm17.3-29.95-16.49,9.51v19l16.49-9.52Z"></path><path d="M149.69,248.6a.53.53,0,0,0,.47-.27l17.56-30.42a.55.55,0,0,0-.19-.74.54.54,0,0,0-.74.2l-17.57,30.42a.54.54,0,0,0,.2.74A.52.52,0,0,0,149.69,248.6Z"></path><path d="M167.26,238.46a.54.54,0,0,0,.27-1L150,227.31a.55.55,0,0,0-.74.2.54.54,0,0,0,.2.74L167,238.39A.5.5,0,0,0,167.26,238.46Z"></path><path d="M149.42,268.82a.55.55,0,0,1-.27-.47V248.06a.52.52,0,0,1,.27-.46L167,237.45a.57.57,0,0,1,.54,0,.57.57,0,0,1,.27.47V258.2a.54.54,0,0,1-.27.47L150,268.82a.56.56,0,0,1-.54,0Zm17.3-30-16.49,9.52v19l16.49-9.52Z"></path><path d="M149.69,268.89a.55.55,0,0,0,.47-.27l17.56-30.43a.54.54,0,1,0-.93-.54l-17.57,30.43a.54.54,0,0,0,.2.74A.64.64,0,0,0,149.69,268.89Z"></path><path d="M167.26,258.75a.54.54,0,0,0,.27-1L150,247.6a.54.54,0,1,0-.54.93L167,258.67A.5.5,0,0,0,167.26,258.75Z"></path><path d="M149.42,289.1a.55.55,0,0,1-.27-.47V268.35a.52.52,0,0,1,.27-.47L167,257.74a.52.52,0,0,1,.54,0,.54.54,0,0,1,.27.46v20.29a.57.57,0,0,1-.27.47L150,289.1a.56.56,0,0,1-.54,0Zm17.3-30-16.49,9.52v19l16.49-9.51Z"></path><path d="M149.69,289.17a.55.55,0,0,0,.47-.27l17.56-30.42a.54.54,0,1,0-.93-.55l-17.57,30.43a.54.54,0,0,0,.2.74A.52.52,0,0,0,149.69,289.17Z"></path><path d="M167.26,279a.54.54,0,0,0,.27-1L150,267.88a.54.54,0,0,0-.74.2.53.53,0,0,0,.2.73L167,279A.6.6,0,0,0,167.26,279Z"></path><path d="M149.42,309.38a.52.52,0,0,1-.27-.47V288.63a.55.55,0,0,1,.27-.47L167,278a.52.52,0,0,1,.54,0,.55.55,0,0,1,.27.47v20.28a.55.55,0,0,1-.27.47L150,309.38a.56.56,0,0,1-.54,0Zm17.3-30-16.49,9.52v19l16.49-9.52Z"></path><path d="M149.69,309.45a.53.53,0,0,0,.47-.27l17.56-30.42a.55.55,0,0,0-.19-.74.54.54,0,0,0-.74.2l-17.57,30.42a.54.54,0,0,0,.2.74A.52.52,0,0,0,149.69,309.45Z"></path><path d="M167.26,299.31a.52.52,0,0,0,.46-.27.55.55,0,0,0-.19-.74L150,288.16a.55.55,0,0,0-.74.2.54.54,0,0,0,.2.74L167,299.24A.5.5,0,0,0,167.26,299.31Z"></path><path d="M149.42,329.66a.52.52,0,0,1-.27-.46V308.91a.52.52,0,0,1,.27-.46L167,298.3a.57.57,0,0,1,.54,0,.57.57,0,0,1,.27.47v20.29a.54.54,0,0,1-.27.46L150,329.66a.5.5,0,0,1-.54,0Zm17.3-30-16.49,9.52v19l16.49-9.52Z"></path><path d="M149.69,329.74a.55.55,0,0,0,.47-.27L167.72,299a.54.54,0,1,0-.93-.54l-17.57,30.43a.55.55,0,0,0,.47.81Z"></path><path d="M167.26,319.6a.54.54,0,0,0,.27-1L150,308.45a.55.55,0,0,0-.74.19.54.54,0,0,0,.2.74L167,319.52A.5.5,0,0,0,167.26,319.6Z"></path><path d="M149.42,350a.55.55,0,0,1-.27-.47V329.2a.53.53,0,0,1,.27-.47L167,318.59a.52.52,0,0,1,.54,0,.54.54,0,0,1,.27.47v20.28a.57.57,0,0,1-.27.47L150,350a.56.56,0,0,1-.54,0Zm17.3-30-16.49,9.52v19L166.72,339Z"></path><path d="M149.69,350a.55.55,0,0,0,.47-.27l17.56-30.42a.54.54,0,1,0-.93-.55l-17.57,30.43a.54.54,0,0,0,.2.74A.52.52,0,0,0,149.69,350Z"></path><path d="M167.26,339.88a.54.54,0,0,0,.27-1L150,328.73a.54.54,0,0,0-.74.2.53.53,0,0,0,.2.73L167,339.81A.6.6,0,0,0,167.26,339.88Z"></path><path d="M149.42,370.23a.53.53,0,0,1-.27-.47V349.48a.55.55,0,0,1,.27-.47L167,338.87a.52.52,0,0,1,.54,0,.55.55,0,0,1,.27.47v20.28a.55.55,0,0,1-.27.47L150,370.23a.56.56,0,0,1-.54,0Zm17.3-30-16.49,9.51v19l16.49-9.52Z"></path><path d="M149.69,370.3a.53.53,0,0,0,.47-.27l17.56-30.42a.55.55,0,0,0-.19-.74.54.54,0,0,0-.74.2l-17.57,30.42a.54.54,0,0,0,.2.74A.52.52,0,0,0,149.69,370.3Z"></path><path d="M167.26,360.16a.54.54,0,0,0,.27-1L150,349a.54.54,0,1,0-.54.94L167,360.09A.5.5,0,0,0,167.26,360.16Z"></path></g><path d="M149.42,208l-17.57-10.14a.54.54,0,0,1-.27-.46V177.07a.55.55,0,0,1,.82-.46L150,186.75a.52.52,0,0,1,.27.46V207.5a.52.52,0,0,1-.27.46.5.5,0,0,1-.54,0Zm-16.75-30v19l16.49,9.52v-19Z" style="fill:#e0e0e0"></path><path d="M149.69,208A.56.56,0,0,0,150,208a.53.53,0,0,0,.2-.73L132.59,176.8a.54.54,0,0,0-.93.54l17.56,30.43A.55.55,0,0,0,149.69,208Z" style="fill:#e0e0e0"></path><path d="M132.12,197.9a.5.5,0,0,0,.27-.08L150,187.68a.54.54,0,0,0,.2-.74.55.55,0,0,0-.74-.19l-17.57,10.14a.54.54,0,0,0,.27,1Z" style="fill:#e0e0e0"></path><path d="M149.42,228.25l-17.57-10.14a.57.57,0,0,1-.27-.47V197.36a.55.55,0,0,1,.82-.47L150,207a.53.53,0,0,1,.27.47v20.28a.55.55,0,0,1-.27.47.56.56,0,0,1-.54,0Zm-16.75-30v19l16.49,9.51v-19Z" style="fill:#e0e0e0"></path><path d="M149.69,228.32a.54.54,0,0,0,.47-.81l-17.57-30.42a.54.54,0,0,0-.74-.2.55.55,0,0,0-.19.74l17.56,30.42A.55.55,0,0,0,149.69,228.32Z" style="fill:#e0e0e0"></path><path d="M132.12,218.18a.5.5,0,0,0,.27-.07L150,208a.53.53,0,0,0,.2-.73.54.54,0,0,0-.74-.2l-17.57,10.14a.54.54,0,0,0,.27,1Z" style="fill:#e0e0e0"></path><path d="M149.42,248.53l-17.57-10.14a.55.55,0,0,1-.27-.47V217.64a.57.57,0,0,1,.27-.47.54.54,0,0,1,.55,0L150,227.31a.55.55,0,0,1,.27.47v20.28a.54.54,0,0,1-.81.47Zm-16.75-29.95v19l16.49,9.52v-19Z" style="fill:#e0e0e0"></path><path d="M149.69,248.6a.54.54,0,0,0,.47-.81l-17.57-30.42a.54.54,0,0,0-.74-.2.55.55,0,0,0-.19.74l17.56,30.42A.53.53,0,0,0,149.69,248.6Z" style="fill:#e0e0e0"></path><path d="M132.12,238.46a.5.5,0,0,0,.27-.07L150,228.25a.54.54,0,0,0,.2-.74.55.55,0,0,0-.74-.2l-17.57,10.14a.54.54,0,0,0,.27,1Z" style="fill:#e0e0e0"></path><path d="M149.42,268.82l-17.57-10.15a.54.54,0,0,1-.27-.47V237.92a.57.57,0,0,1,.27-.47.59.59,0,0,1,.55,0L150,247.6a.52.52,0,0,1,.27.46v20.29a.55.55,0,0,1-.27.47.56.56,0,0,1-.54,0Zm-16.75-30v19l16.49,9.52v-19Z" style="fill:#e0e0e0"></path><path d="M149.69,268.89a.68.68,0,0,0,.27-.07.54.54,0,0,0,.2-.74l-17.57-30.43a.54.54,0,1,0-.93.54l17.56,30.43A.55.55,0,0,0,149.69,268.89Z" style="fill:#e0e0e0"></path><path d="M132.12,258.75a.5.5,0,0,0,.27-.08L150,248.53a.54.54,0,1,0-.54-.93l-17.57,10.14a.54.54,0,0,0,.27,1Z" style="fill:#e0e0e0"></path><path d="M149.42,289.1,131.85,279a.57.57,0,0,1-.27-.47V258.2a.55.55,0,0,1,.82-.46L150,267.88a.52.52,0,0,1,.27.47v20.28a.55.55,0,0,1-.27.47.56.56,0,0,1-.54,0Zm-16.75-30v19l16.49,9.51v-19Z" style="fill:#e0e0e0"></path><path d="M149.69,289.17a.54.54,0,0,0,.47-.81l-17.57-30.43a.54.54,0,0,0-.93.55l17.56,30.42A.55.55,0,0,0,149.69,289.17Z" style="fill:#e0e0e0"></path><path d="M132.12,279a.6.6,0,0,0,.27-.07L150,268.81a.53.53,0,0,0,.2-.73.54.54,0,0,0-.74-.2L131.85,278a.54.54,0,0,0,.27,1Z" style="fill:#e0e0e0"></path><path d="M149.42,309.38l-17.57-10.14a.55.55,0,0,1-.27-.47V278.49a.55.55,0,0,1,.27-.47.54.54,0,0,1,.55,0L150,288.16a.55.55,0,0,1,.27.47v20.28a.54.54,0,0,1-.81.47Zm-16.75-30v19L149.15,308v-19Z" style="fill:#e0e0e0"></path><path d="M149.69,309.45a.54.54,0,0,0,.47-.81l-17.57-30.42a.54.54,0,0,0-.74-.2.55.55,0,0,0-.19.74l17.56,30.42A.53.53,0,0,0,149.69,309.45Z" style="fill:#e0e0e0"></path><path d="M132.12,299.31a.5.5,0,0,0,.27-.07L150,289.1a.54.54,0,0,0,.2-.74.55.55,0,0,0-.74-.2L131.85,298.3a.55.55,0,0,0-.19.74A.52.52,0,0,0,132.12,299.31Z" style="fill:#e0e0e0"></path><path d="M149.42,329.66l-17.57-10.14a.54.54,0,0,1-.27-.46V298.77a.57.57,0,0,1,.27-.47.59.59,0,0,1,.55,0L150,308.45a.52.52,0,0,1,.27.46V329.2a.52.52,0,0,1-.27.46.5.5,0,0,1-.54,0Zm-16.75-30v19l16.49,9.52v-19Z" style="fill:#e0e0e0"></path><path d="M149.69,329.74a.56.56,0,0,0,.27-.08.53.53,0,0,0,.2-.73L132.59,298.5a.54.54,0,1,0-.93.54l17.56,30.43A.55.55,0,0,0,149.69,329.74Z" style="fill:#e0e0e0"></path><path d="M132.12,319.6a.5.5,0,0,0,.27-.08L150,309.38a.54.54,0,0,0,.2-.74.55.55,0,0,0-.74-.19l-17.57,10.14a.54.54,0,0,0,.27,1Z" style="fill:#e0e0e0"></path><path d="M149.42,350l-17.57-10.14a.57.57,0,0,1-.27-.47V319.06a.55.55,0,0,1,.82-.47L150,328.73a.53.53,0,0,1,.27.47v20.28a.55.55,0,0,1-.27.47.56.56,0,0,1-.54,0Zm-16.75-30v19l16.49,9.51v-19Z" style="fill:#e0e0e0"></path><path d="M149.69,350a.54.54,0,0,0,.47-.81l-17.57-30.43a.54.54,0,0,0-.93.55l17.56,30.42A.55.55,0,0,0,149.69,350Z" style="fill:#e0e0e0"></path><path d="M132.12,339.88a.6.6,0,0,0,.27-.07L150,329.66a.53.53,0,0,0,.2-.73.54.54,0,0,0-.74-.2l-17.57,10.14a.54.54,0,0,0,.27,1Z" style="fill:#e0e0e0"></path><path d="M149.42,370.23l-17.57-10.14a.55.55,0,0,1-.27-.47V339.34a.55.55,0,0,1,.27-.47.54.54,0,0,1,.55,0L150,349a.55.55,0,0,1,.27.47v20.28a.53.53,0,0,1-.27.47.56.56,0,0,1-.54,0Zm-16.75-30v19l16.49,9.52v-19Z" style="fill:#e0e0e0"></path><path d="M149.69,370.3a.54.54,0,0,0,.47-.81l-17.57-30.42a.54.54,0,0,0-.74-.2.55.55,0,0,0-.19.74L149.22,370A.53.53,0,0,0,149.69,370.3Z" style="fill:#e0e0e0"></path><path d="M132.12,360.16a.5.5,0,0,0,.27-.07L150,350a.54.54,0,0,0-.54-.94l-17.57,10.14a.54.54,0,0,0,.27,1Z" style="fill:#e0e0e0"></path><g style="opacity:0.2"><path d="M149.42,208l-17.57-10.14a.54.54,0,0,1-.27-.46V177.07a.55.55,0,0,1,.82-.46L150,186.75a.52.52,0,0,1,.27.46V207.5a.52.52,0,0,1-.27.46.5.5,0,0,1-.54,0Zm-16.75-30v19l16.49,9.52v-19Z"></path><path d="M149.69,208A.56.56,0,0,0,150,208a.53.53,0,0,0,.2-.73L132.59,176.8a.54.54,0,0,0-.93.54l17.56,30.43A.55.55,0,0,0,149.69,208Z"></path><path d="M132.12,197.9a.5.5,0,0,0,.27-.08L150,187.68a.54.54,0,0,0,.2-.74.55.55,0,0,0-.74-.19l-17.57,10.14a.54.54,0,0,0,.27,1Z"></path><path d="M149.42,228.25l-17.57-10.14a.57.57,0,0,1-.27-.47V197.36a.55.55,0,0,1,.82-.47L150,207a.53.53,0,0,1,.27.47v20.28a.55.55,0,0,1-.27.47.56.56,0,0,1-.54,0Zm-16.75-30v19l16.49,9.51v-19Z"></path><path d="M149.69,228.32a.54.54,0,0,0,.47-.81l-17.57-30.42a.54.54,0,0,0-.74-.2.55.55,0,0,0-.19.74l17.56,30.42A.55.55,0,0,0,149.69,228.32Z"></path><path d="M132.12,218.18a.5.5,0,0,0,.27-.07L150,208a.53.53,0,0,0,.2-.73.54.54,0,0,0-.74-.2l-17.57,10.14a.54.54,0,0,0,.27,1Z"></path><path d="M149.42,248.53l-17.57-10.14a.55.55,0,0,1-.27-.47V217.64a.57.57,0,0,1,.27-.47.54.54,0,0,1,.55,0L150,227.31a.55.55,0,0,1,.27.47v20.28a.54.54,0,0,1-.81.47Zm-16.75-29.95v19l16.49,9.52v-19Z"></path><path d="M149.69,248.6a.54.54,0,0,0,.47-.81l-17.57-30.42a.54.54,0,0,0-.74-.2.55.55,0,0,0-.19.74l17.56,30.42A.53.53,0,0,0,149.69,248.6Z"></path><path d="M132.12,238.46a.5.5,0,0,0,.27-.07L150,228.25a.54.54,0,0,0,.2-.74.55.55,0,0,0-.74-.2l-17.57,10.14a.54.54,0,0,0,.27,1Z"></path><path d="M149.42,268.82l-17.57-10.15a.54.54,0,0,1-.27-.47V237.92a.57.57,0,0,1,.27-.47.59.59,0,0,1,.55,0L150,247.6a.52.52,0,0,1,.27.46v20.29a.55.55,0,0,1-.27.47.56.56,0,0,1-.54,0Zm-16.75-30v19l16.49,9.52v-19Z"></path><path d="M149.69,268.89a.68.68,0,0,0,.27-.07.54.54,0,0,0,.2-.74l-17.57-30.43a.54.54,0,1,0-.93.54l17.56,30.43A.55.55,0,0,0,149.69,268.89Z"></path><path d="M132.12,258.75a.5.5,0,0,0,.27-.08L150,248.53a.54.54,0,1,0-.54-.93l-17.57,10.14a.54.54,0,0,0,.27,1Z"></path><path d="M149.42,289.1,131.85,279a.57.57,0,0,1-.27-.47V258.2a.55.55,0,0,1,.82-.46L150,267.88a.52.52,0,0,1,.27.47v20.28a.55.55,0,0,1-.27.47.56.56,0,0,1-.54,0Zm-16.75-30v19l16.49,9.51v-19Z"></path><path d="M149.69,289.17a.54.54,0,0,0,.47-.81l-17.57-30.43a.54.54,0,0,0-.93.55l17.56,30.42A.55.55,0,0,0,149.69,289.17Z"></path><path d="M132.12,279a.6.6,0,0,0,.27-.07L150,268.81a.53.53,0,0,0,.2-.73.54.54,0,0,0-.74-.2L131.85,278a.54.54,0,0,0,.27,1Z"></path><path d="M149.42,309.38l-17.57-10.14a.55.55,0,0,1-.27-.47V278.49a.55.55,0,0,1,.27-.47.54.54,0,0,1,.55,0L150,288.16a.55.55,0,0,1,.27.47v20.28a.54.54,0,0,1-.81.47Zm-16.75-30v19L149.15,308v-19Z"></path><path d="M149.69,309.45a.54.54,0,0,0,.47-.81l-17.57-30.42a.54.54,0,0,0-.74-.2.55.55,0,0,0-.19.74l17.56,30.42A.53.53,0,0,0,149.69,309.45Z"></path><path d="M132.12,299.31a.5.5,0,0,0,.27-.07L150,289.1a.54.54,0,0,0,.2-.74.55.55,0,0,0-.74-.2L131.85,298.3a.55.55,0,0,0-.19.74A.52.52,0,0,0,132.12,299.31Z"></path><path d="M149.42,329.66l-17.57-10.14a.54.54,0,0,1-.27-.46V298.77a.57.57,0,0,1,.27-.47.59.59,0,0,1,.55,0L150,308.45a.52.52,0,0,1,.27.46V329.2a.52.52,0,0,1-.27.46.5.5,0,0,1-.54,0Zm-16.75-30v19l16.49,9.52v-19Z"></path><path d="M149.69,329.74a.56.56,0,0,0,.27-.08.53.53,0,0,0,.2-.73L132.59,298.5a.54.54,0,1,0-.93.54l17.56,30.43A.55.55,0,0,0,149.69,329.74Z"></path><path d="M132.12,319.6a.5.5,0,0,0,.27-.08L150,309.38a.54.54,0,0,0,.2-.74.55.55,0,0,0-.74-.19l-17.57,10.14a.54.54,0,0,0,.27,1Z"></path><path d="M149.42,350l-17.57-10.14a.57.57,0,0,1-.27-.47V319.06a.55.55,0,0,1,.82-.47L150,328.73a.53.53,0,0,1,.27.47v20.28a.55.55,0,0,1-.27.47.56.56,0,0,1-.54,0Zm-16.75-30v19l16.49,9.51v-19Z"></path><path d="M149.69,350a.54.54,0,0,0,.47-.81l-17.57-30.43a.54.54,0,0,0-.93.55l17.56,30.42A.55.55,0,0,0,149.69,350Z"></path><path d="M132.12,339.88a.6.6,0,0,0,.27-.07L150,329.66a.53.53,0,0,0,.2-.73.54.54,0,0,0-.74-.2l-17.57,10.14a.54.54,0,0,0,.27,1Z"></path><path d="M149.42,370.23l-17.57-10.14a.55.55,0,0,1-.27-.47V339.34a.55.55,0,0,1,.27-.47.54.54,0,0,1,.55,0L150,349a.55.55,0,0,1,.27.47v20.28a.53.53,0,0,1-.27.47.56.56,0,0,1-.54,0Zm-16.75-30v19l16.49,9.52v-19Z"></path><path d="M149.69,370.3a.54.54,0,0,0,.47-.81l-17.57-30.42a.54.54,0,0,0-.74-.2.55.55,0,0,0-.19.74L149.22,370A.53.53,0,0,0,149.69,370.3Z"></path><path d="M132.12,360.16a.5.5,0,0,0,.27-.07L150,350a.54.54,0,0,0-.54-.94l-17.57,10.14a.54.54,0,0,0,.27,1Z"></path></g><polygon points="149.69 187.21 178.97 170.31 149.69 153.41 120.41 170.31 149.69 187.21" style="fill:#407BFF"></polygon><polygon points="149.69 187.21 178.97 170.31 149.69 153.41 120.41 170.31 149.69 187.21" style="fill:#fff;opacity:0.6000000000000001"></polygon><polygon points="178.97 170.31 149.69 187.21 149.69 193.98 178.97 177.07 178.97 170.31" style="fill:#407BFF"></polygon><polygon points="120.41 170.31 120.41 177.07 149.69 193.98 149.69 187.21 120.41 170.31" style="fill:#407BFF"></polygon><polygon points="120.41 170.31 120.41 177.07 149.69 193.98 149.69 187.21 120.41 170.31" style="fill:#fff;opacity:0.35000000000000003"></polygon><path d="M149.42,140.35a.52.52,0,0,1-.27-.46V119.6a.52.52,0,0,1,.27-.46L167,109a.57.57,0,0,1,.54,0,.57.57,0,0,1,.27.47v20.29a.54.54,0,0,1-.27.46L150,140.35a.5.5,0,0,1-.54,0Zm17.3-29.95-16.49,9.52v19l16.49-9.52Z" style="fill:#e0e0e0"></path><path d="M149.69,140.43a.55.55,0,0,0,.47-.27l17.56-30.43a.54.54,0,1,0-.93-.54l-17.57,30.43a.55.55,0,0,0,.47.81Z" style="fill:#e0e0e0"></path><path d="M167.26,130.29a.54.54,0,0,0,.27-1L150,119.14a.54.54,0,1,0-.54.93L167,130.21A.5.5,0,0,0,167.26,130.29Z" style="fill:#e0e0e0"></path><path d="M149.42,160.64a.55.55,0,0,1-.27-.47V139.89a.53.53,0,0,1,.27-.47L167,129.28a.52.52,0,0,1,.54,0,.54.54,0,0,1,.27.47V150a.57.57,0,0,1-.27.47L150,160.64a.56.56,0,0,1-.54,0Zm17.3-30-16.49,9.52v19l16.49-9.51Z" style="fill:#e0e0e0"></path><path d="M149.69,160.71a.55.55,0,0,0,.47-.27L167.72,130a.54.54,0,1,0-.93-.55L149.22,159.9a.54.54,0,0,0,.2.74A.52.52,0,0,0,149.69,160.71Z" style="fill:#e0e0e0"></path><path d="M167.26,150.57a.54.54,0,0,0,.27-1L150,139.42a.54.54,0,0,0-.74.2.53.53,0,0,0,.2.73L167,150.5A.6.6,0,0,0,167.26,150.57Z" style="fill:#e0e0e0"></path><path d="M149.42,180.92a.53.53,0,0,1-.27-.47V160.17a.55.55,0,0,1,.27-.47L167,149.56a.52.52,0,0,1,.54,0,.55.55,0,0,1,.27.47v20.28a.57.57,0,0,1-.27.47L150,180.92a.56.56,0,0,1-.54,0ZM166.72,151l-16.49,9.51v19L166.72,170Z" style="fill:#e0e0e0"></path><path d="M149.69,181a.53.53,0,0,0,.47-.27l17.56-30.42a.55.55,0,0,0-.19-.74.54.54,0,0,0-.74.2l-17.57,30.42a.54.54,0,0,0,.2.74A.52.52,0,0,0,149.69,181Z" style="fill:#e0e0e0"></path><path d="M167.26,170.85a.54.54,0,0,0,.27-1L150,159.7a.54.54,0,0,0-.54.94L167,170.78A.5.5,0,0,0,167.26,170.85Z" style="fill:#e0e0e0"></path><g style="opacity:0.4"><path d="M149.42,140.35a.52.52,0,0,1-.27-.46V119.6a.52.52,0,0,1,.27-.46L167,109a.57.57,0,0,1,.54,0,.57.57,0,0,1,.27.47v20.29a.54.54,0,0,1-.27.46L150,140.35a.5.5,0,0,1-.54,0Zm17.3-29.95-16.49,9.52v19l16.49-9.52Z"></path><path d="M149.69,140.43a.55.55,0,0,0,.47-.27l17.56-30.43a.54.54,0,1,0-.93-.54l-17.57,30.43a.55.55,0,0,0,.47.81Z"></path><path d="M167.26,130.29a.54.54,0,0,0,.27-1L150,119.14a.54.54,0,1,0-.54.93L167,130.21A.5.5,0,0,0,167.26,130.29Z"></path><path d="M149.42,160.64a.55.55,0,0,1-.27-.47V139.89a.53.53,0,0,1,.27-.47L167,129.28a.52.52,0,0,1,.54,0,.54.54,0,0,1,.27.47V150a.57.57,0,0,1-.27.47L150,160.64a.56.56,0,0,1-.54,0Zm17.3-30-16.49,9.52v19l16.49-9.51Z"></path><path d="M149.69,160.71a.55.55,0,0,0,.47-.27L167.72,130a.54.54,0,1,0-.93-.55L149.22,159.9a.54.54,0,0,0,.2.74A.52.52,0,0,0,149.69,160.71Z"></path><path d="M167.26,150.57a.54.54,0,0,0,.27-1L150,139.42a.54.54,0,0,0-.74.2.53.53,0,0,0,.2.73L167,150.5A.6.6,0,0,0,167.26,150.57Z"></path><path d="M149.42,180.92a.53.53,0,0,1-.27-.47V160.17a.55.55,0,0,1,.27-.47L167,149.56a.52.52,0,0,1,.54,0,.55.55,0,0,1,.27.47v20.28a.57.57,0,0,1-.27.47L150,180.92a.56.56,0,0,1-.54,0ZM166.72,151l-16.49,9.51v19L166.72,170Z"></path><path d="M149.69,181a.53.53,0,0,0,.47-.27l17.56-30.42a.55.55,0,0,0-.19-.74.54.54,0,0,0-.74.2l-17.57,30.42a.54.54,0,0,0,.2.74A.52.52,0,0,0,149.69,181Z"></path><path d="M167.26,170.85a.54.54,0,0,0,.27-1L150,159.7a.54.54,0,0,0-.54.94L167,170.78A.5.5,0,0,0,167.26,170.85Z"></path></g><path d="M149.42,140.35l-17.57-10.14a.54.54,0,0,1-.27-.46V109.46a.57.57,0,0,1,.27-.47.59.59,0,0,1,.55,0L150,119.14a.52.52,0,0,1,.27.46v20.29a.52.52,0,0,1-.27.46.5.5,0,0,1-.54,0ZM132.67,110.4v19L149.15,139v-19Z" style="fill:#e0e0e0"></path><path d="M149.69,140.43a.56.56,0,0,0,.27-.08.53.53,0,0,0,.2-.73l-17.57-30.43a.54.54,0,1,0-.93.54l17.56,30.43A.55.55,0,0,0,149.69,140.43Z" style="fill:#e0e0e0"></path><path d="M132.13,130.29a.56.56,0,0,0,.27-.08L150,120.07a.54.54,0,1,0-.54-.93l-17.57,10.14a.54.54,0,0,0,.28,1Z" style="fill:#e0e0e0"></path><path d="M149.42,160.64,131.85,150.5a.57.57,0,0,1-.27-.47V129.75a.55.55,0,0,1,.82-.47L150,139.42a.53.53,0,0,1,.27.47v20.28a.55.55,0,0,1-.27.47.56.56,0,0,1-.54,0Zm-16.75-30v19l16.48,9.51v-19Z" style="fill:#e0e0e0"></path><path d="M149.69,160.71a.54.54,0,0,0,.47-.81l-17.57-30.43a.54.54,0,0,0-.93.55l17.56,30.42A.55.55,0,0,0,149.69,160.71Z" style="fill:#e0e0e0"></path><path d="M132.13,150.57a.68.68,0,0,0,.27-.07L150,140.35a.53.53,0,0,0,.2-.73.54.54,0,0,0-.74-.2l-17.57,10.14a.54.54,0,0,0,.28,1Z" style="fill:#e0e0e0"></path><path d="M149.42,180.92l-17.57-10.14a.57.57,0,0,1-.27-.47V150a.55.55,0,0,1,.27-.47.54.54,0,0,1,.55,0L150,159.7a.55.55,0,0,1,.27.47v20.28a.53.53,0,0,1-.27.47.56.56,0,0,1-.54,0ZM132.67,151v19l16.48,9.52v-19Z" style="fill:#e0e0e0"></path><path d="M149.69,181a.54.54,0,0,0,.47-.81l-17.57-30.42a.54.54,0,0,0-.74-.2.55.55,0,0,0-.19.74l17.56,30.42A.53.53,0,0,0,149.69,181Z" style="fill:#e0e0e0"></path><path d="M132.13,170.85a.54.54,0,0,0,.27-.07L150,160.64a.54.54,0,1,0-.54-.94l-17.57,10.14a.54.54,0,0,0,.28,1Z" style="fill:#e0e0e0"></path><g style="opacity:0.2"><path d="M149.42,140.35l-17.57-10.14a.54.54,0,0,1-.27-.46V109.46a.57.57,0,0,1,.27-.47.59.59,0,0,1,.55,0L150,119.14a.52.52,0,0,1,.27.46v20.29a.52.52,0,0,1-.27.46.5.5,0,0,1-.54,0ZM132.67,110.4v19L149.15,139v-19Z"></path><path d="M149.69,140.43a.56.56,0,0,0,.27-.08.53.53,0,0,0,.2-.73l-17.57-30.43a.54.54,0,1,0-.93.54l17.56,30.43A.55.55,0,0,0,149.69,140.43Z"></path><path d="M132.13,130.29a.56.56,0,0,0,.27-.08L150,120.07a.54.54,0,1,0-.54-.93l-17.57,10.14a.54.54,0,0,0,.28,1Z"></path><path d="M149.42,160.64,131.85,150.5a.57.57,0,0,1-.27-.47V129.75a.55.55,0,0,1,.82-.47L150,139.42a.53.53,0,0,1,.27.47v20.28a.55.55,0,0,1-.27.47.56.56,0,0,1-.54,0Zm-16.75-30v19l16.48,9.51v-19Z"></path><path d="M149.69,160.71a.54.54,0,0,0,.47-.81l-17.57-30.43a.54.54,0,0,0-.93.55l17.56,30.42A.55.55,0,0,0,149.69,160.71Z"></path><path d="M132.13,150.57a.68.68,0,0,0,.27-.07L150,140.35a.53.53,0,0,0,.2-.73.54.54,0,0,0-.74-.2l-17.57,10.14a.54.54,0,0,0,.28,1Z"></path><path d="M149.42,180.92l-17.57-10.14a.57.57,0,0,1-.27-.47V150a.55.55,0,0,1,.27-.47.54.54,0,0,1,.55,0L150,159.7a.55.55,0,0,1,.27.47v20.28a.53.53,0,0,1-.27.47.56.56,0,0,1-.54,0ZM132.67,151v19l16.48,9.52v-19Z"></path><path d="M149.69,181a.54.54,0,0,0,.47-.81l-17.57-30.42a.54.54,0,0,0-.74-.2.55.55,0,0,0-.19.74l17.56,30.42A.53.53,0,0,0,149.69,181Z"></path><path d="M132.13,170.85a.54.54,0,0,0,.27-.07L150,160.64a.54.54,0,1,0-.54-.94l-17.57,10.14a.54.54,0,0,0,.28,1Z"></path></g><path d="M175.2,199.16a3.35,3.35,0,0,0,3,0l21.52-12.5a3.36,3.36,0,0,0,1.51-2.62V153.46a33.77,33.77,0,0,0-16.89-29.25l-13-7.53-24.6,14.21v51.83Z" style="fill:#455a64"></path><path d="M178.22,199.16l7.41-4.42,7.44-4.38,5.86-3.48c.3-.18.66-.36.91-.54a3.25,3.25,0,0,0,1.2-2.67v-4.31l0-8.63.07-8.64.1-8.63.11,8.63.06,8.64,0,8.63v4.31a3.65,3.65,0,0,1-.11,1.13,3.87,3.87,0,0,1-.48,1,3.28,3.28,0,0,1-.77.85c-.34.24-.63.38-.95.57l-5.91,3.4-7.5,4.28Z" style="fill:#37474f"></path><path d="M146.72,130.89v51.83l28.48,16.44c.83.48,1.51.09,1.51-.87V167.71a33.78,33.78,0,0,0-16.89-29.25Z" style="fill:#37474f"></path><path d="M150.2,156.63v-19.7l7.88,4.55a30.29,30.29,0,0,1,15.14,26.23v11.22a3.35,3.35,0,0,1-5,2.91l-12.34-7.12-3-6.47A27.31,27.31,0,0,1,150.2,156.63Z" style="fill:#407BFF"></path><path d="M150.2,156.63v-19.7l7.88,4.55a30.29,30.29,0,0,1,15.14,26.23v11.22a3.35,3.35,0,0,1-5,2.91l-12.34-7.12-3-6.47A27.31,27.31,0,0,1,150.2,156.63Z" style="fill:#fff;opacity:0.35000000000000003"></path><polygon points="158.27 179.52 155.85 178.03 155.85 138.57 158.27 140.06 158.27 179.52" style="fill:#37474f"></polygon><path d="M197.76,172.8a3.34,3.34,0,0,1-1.51,2.62l-14.55,8.45c-.83.48-1.51.09-1.51-.87V167.72A37.22,37.22,0,0,0,171,143.31a1.34,1.34,0,0,1,.35-2.15c4.8-2.74,10.61-6,15.41-8.79a2.36,2.36,0,0,1,2.74.37,30.35,30.35,0,0,1,8.22,20.72Z" style="fill:#407BFF"></path><path d="M197.76,172.8a3.34,3.34,0,0,1-1.51,2.62l-14.55,8.45c-.83.48-1.51.09-1.51-.87V167.72A37.22,37.22,0,0,0,171,143.31a1.34,1.34,0,0,1,.35-2.15c4.8-2.74,10.61-6,15.41-8.79a2.36,2.36,0,0,1,2.74.37,30.35,30.35,0,0,1,8.22,20.72Z" style="fill:#fff;opacity:0.6000000000000001"></path><path d="M194.6,140.06l-18.54,10.71a32.41,32.41,0,0,0-1.78-3.08L192.83,137A30.6,30.6,0,0,1,194.6,140.06Z" style="fill:#fff;opacity:0.4"></path><path d="M196,143.32,177.52,154c-.21-.54-.45-1.06-.68-1.6l18.5-10.7C195.55,142.22,195.77,142.76,196,143.32Z" style="fill:#fff;opacity:0.4"></path><path d="M281.91,185.65a.5.5,0,0,1-.26-.08l-53-30.63V134.81a.52.52,0,0,1,.52-.52.52.52,0,0,1,.53.52v19.52l52.46,30.33a.53.53,0,0,1,.19.72A.51.51,0,0,1,281.91,185.65Z" style="fill:#455a64"></path><polygon points="76.36 56.66 60.56 47.55 84.65 33.64 100.45 42.74 76.36 56.66" style="fill:#407BFF"></polygon><polygon points="76.36 56.66 60.56 47.55 84.65 33.64 100.45 42.74 76.36 56.66" style="fill:#fff;opacity:0.6000000000000001"></polygon><polygon points="100.45 42.74 76.36 56.66 76.36 84.4 100.45 70.49 100.45 42.74" style="fill:#407BFF"></polygon><polygon points="60.56 47.55 60.56 75.3 76.36 84.4 76.36 56.66 60.56 47.55" style="fill:#407BFF"></polygon><polygon points="60.56 47.55 60.56 75.3 76.36 84.4 76.36 56.66 60.56 47.55" style="fill:#fff;opacity:0.35000000000000003"></polygon><polygon points="62.72 67.98 62.72 74.09 74.2 80.71 74.2 74.59 62.72 67.98" style="fill:#407BFF"></polygon><path d="M237.51,170.85a.64.64,0,0,1-.27-.07l-17.57-10.15a.54.54,0,0,1-.27-.46V139.88a.54.54,0,0,1,.27-.46.52.52,0,0,1,.54,0l17.57,10.14a.52.52,0,0,1,.27.46v20.29a.55.55,0,0,1-.27.47A.64.64,0,0,1,237.51,170.85Zm-17-11L237,169.37v-19l-16.49-9.52Z" style="fill:#e0e0e0"></path><path d="M237.51,170.85a.55.55,0,0,1-.47-.27l-17.56-30.43a.53.53,0,0,1,.19-.73.54.54,0,0,1,.74.19L238,170a.54.54,0,0,1-.2.74A.68.68,0,0,1,237.51,170.85Z" style="fill:#e0e0e0"></path><path d="M220,160.71a.54.54,0,0,1-.28-1l17.57-10.14a.55.55,0,0,1,.74.19.54.54,0,0,1-.2.74l-17.56,10.14A.56.56,0,0,1,220,160.71Z" style="fill:#e0e0e0"></path><path d="M220,160.71a.57.57,0,0,1-.28-.08l-17.56-10.14a.52.52,0,0,1-.27-.47V129.74a.55.55,0,0,1,.27-.47.57.57,0,0,1,.54,0l17.57,10.15a.54.54,0,0,1,.27.46v20.29a.54.54,0,0,1-.27.46A.56.56,0,0,1,220,160.71Zm-17-11,16.48,9.52v-19l-16.48-9.52Z" style="fill:#e0e0e0"></path><path d="M220,160.71a.55.55,0,0,1-.47-.27L201.91,130a.54.54,0,0,1,.2-.74.55.55,0,0,1,.74.2l17.56,30.43a.54.54,0,0,1-.19.73A.56.56,0,0,1,220,160.71Z" style="fill:#e0e0e0"></path><path d="M202.38,150.57a.54.54,0,0,1-.27-1l17.56-10.14a.54.54,0,0,1,.74.19.55.55,0,0,1-.19.74l-17.57,10.14A.56.56,0,0,1,202.38,150.57Z" style="fill:#e0e0e0"></path><path d="M202.38,150.57a.53.53,0,0,1-.27-.08l-17.57-10.14a.53.53,0,0,1-.27-.47V119.6a.55.55,0,0,1,.27-.47.52.52,0,0,1,.54,0l17.57,10.14a.55.55,0,0,1,.27.47V150a.52.52,0,0,1-.27.47A.53.53,0,0,1,202.38,150.57Zm-17-11,16.49,9.52v-19l-16.49-9.51Z" style="fill:#e0e0e0"></path><path d="M202.38,150.57a.55.55,0,0,1-.47-.27l-17.56-30.43a.54.54,0,1,1,.93-.54l17.57,30.42a.54.54,0,0,1-.2.74A.56.56,0,0,1,202.38,150.57Z" style="fill:#e0e0e0"></path><path d="M184.81,140.42a.51.51,0,0,1-.46-.27.53.53,0,0,1,.19-.73l17.57-10.15a.55.55,0,0,1,.74.2.54.54,0,0,1-.2.74l-17.57,10.14A.5.5,0,0,1,184.81,140.42Z" style="fill:#e0e0e0"></path><path d="M184.81,140.42a.54.54,0,0,1-.27-.07L167,130.21a.53.53,0,0,1-.27-.47V109.46A.55.55,0,0,1,167,109a.52.52,0,0,1,.54,0l17.56,10.14a.55.55,0,0,1,.27.47v20.28a.53.53,0,0,1-.27.47A.5.5,0,0,1,184.81,140.42Zm-17-11L184.27,139v-19l-16.48-9.51Z" style="fill:#e0e0e0"></path><path d="M184.81,140.42a.51.51,0,0,1-.46-.27l-17.57-30.42a.54.54,0,0,1,.2-.74.53.53,0,0,1,.73.2l17.57,30.42a.54.54,0,0,1-.2.74A.5.5,0,0,1,184.81,140.42Z" style="fill:#e0e0e0"></path><path d="M167.25,130.28a.54.54,0,0,1-.27-1l17.56-10.14a.54.54,0,0,1,.54.94l-17.56,10.14A.54.54,0,0,1,167.25,130.28Z" style="fill:#e0e0e0"></path><path d="M167.25,130.28a.5.5,0,0,1-.27-.07l-17.57-10.14a.55.55,0,0,1-.27-.47V99.32a.53.53,0,0,1,.27-.47.52.52,0,0,1,.54,0L167.52,109a.57.57,0,0,1,.27.47v20.28a.55.55,0,0,1-.27.47A.54.54,0,0,1,167.25,130.28Zm-17-11,16.49,9.51v-19l-16.49-9.52Z" style="fill:#e0e0e0"></path><path d="M167.25,130.28a.55.55,0,0,1-.47-.27L149.21,99.59a.54.54,0,1,1,.94-.54l17.56,30.42a.54.54,0,0,1-.19.74A.54.54,0,0,1,167.25,130.28Z" style="fill:#e0e0e0"></path><path d="M149.68,120.14a.56.56,0,0,1-.47-.27.54.54,0,0,1,.2-.74L167,109a.53.53,0,0,1,.73.2.54.54,0,0,1-.19.74L150,120.07A.52.52,0,0,1,149.68,120.14Z" style="fill:#e0e0e0"></path><path d="M149.68,120.14a.54.54,0,0,1-.27-.07l-17.56-10.14a.55.55,0,0,1-.27-.47V89.18a.54.54,0,0,1,.81-.47L150,98.85a.53.53,0,0,1,.27.47V119.6a.55.55,0,0,1-.27.47A.52.52,0,0,1,149.68,120.14Zm-17-11,16.48,9.51v-19l-16.48-9.52Z" style="fill:#e0e0e0"></path><path d="M149.68,120.14a.56.56,0,0,1-.47-.27L131.65,89.45a.54.54,0,0,1,.2-.74.53.53,0,0,1,.73.2l17.57,30.42a.54.54,0,0,1-.2.74A.52.52,0,0,1,149.68,120.14Z" style="fill:#e0e0e0"></path><path d="M132.12,110a.54.54,0,0,1-.27-1l17.56-10.14a.54.54,0,0,1,.74.2.53.53,0,0,1-.2.73l-17.56,10.15A.54.54,0,0,1,132.12,110Z" style="fill:#e0e0e0"></path><path d="M132.12,110a.5.5,0,0,1-.27-.07L114.28,99.78a.52.52,0,0,1-.27-.46V79a.55.55,0,0,1,.27-.47.57.57,0,0,1,.54,0l17.57,10.15a.54.54,0,0,1,.27.47v20.28a.57.57,0,0,1-.27.47A.54.54,0,0,1,132.12,110Zm-17-11,16.49,9.52v-19L115.09,80Z" style="fill:#e0e0e0"></path><path d="M132.12,110a.55.55,0,0,1-.47-.27L114.08,79.3a.54.54,0,0,1,.2-.74.55.55,0,0,1,.74.2l17.56,30.43a.54.54,0,0,1-.19.74A.54.54,0,0,1,132.12,110Z" style="fill:#e0e0e0"></path><path d="M114.55,99.86a.54.54,0,0,1-.27-1l17.57-10.14a.54.54,0,0,1,.54.93L114.82,99.78A.53.53,0,0,1,114.55,99.86Z" style="fill:#e0e0e0"></path><path d="M114.55,99.86a.53.53,0,0,1-.27-.08L96.71,89.64a.54.54,0,0,1-.27-.46V68.89a.57.57,0,0,1,.27-.47.57.57,0,0,1,.54,0l17.57,10.14a.55.55,0,0,1,.27.47V99.32a.52.52,0,0,1-.27.46A.53.53,0,0,1,114.55,99.86Zm-17-11L114,98.38v-19L97.52,69.83Z" style="fill:#e0e0e0"></path><path d="M114.55,99.86a.55.55,0,0,1-.47-.27L96.52,69.16a.54.54,0,1,1,.93-.54L115,99.05a.55.55,0,0,1-.47.81Z" style="fill:#e0e0e0"></path><path d="M97,89.72a.54.54,0,0,1-.27-1l17.57-10.15a.55.55,0,0,1,.74.2.54.54,0,0,1-.2.74L97.25,89.64A.5.5,0,0,1,97,89.72Z" style="fill:#e0e0e0"></path><path d="M97,89.72a.56.56,0,0,1-.27-.08L79.15,79.5a.53.53,0,0,1-.27-.47V58.75a.55.55,0,0,1,.27-.47.52.52,0,0,1,.54,0L97.25,68.42a.55.55,0,0,1,.27.47V89.17a.52.52,0,0,1-.27.47A.5.5,0,0,1,97,89.72Zm-17-11,16.48,9.52v-19L80,59.69Z" style="fill:#e0e0e0"></path><path d="M97,89.72a.53.53,0,0,1-.46-.28L79,59a.54.54,0,0,1,.94-.54L97.45,88.9a.54.54,0,0,1-.2.74A.5.5,0,0,1,97,89.72Z" style="fill:#e0e0e0"></path><path d="M79.42,79.57A.53.53,0,0,1,79,79.3a.54.54,0,0,1,.2-.74L96.71,68.42a.55.55,0,0,1,.74.2.54.54,0,0,1-.2.74L79.69,79.5A.54.54,0,0,1,79.42,79.57Z" style="fill:#e0e0e0"></path><path d="M290.21,201.27a.52.52,0,0,1-.27-.07l-17.57-10.14a.54.54,0,0,1,0-.94L289.94,180a.52.52,0,0,1,.54,0L308,190.12a.54.54,0,0,1,0,.94L290.48,201.2A.54.54,0,0,1,290.21,201.27Zm-16.49-10.68,16.49,9.52,16.48-9.52-16.48-9.52Z" style="fill:#e0e0e0"></path><polygon points="276.06 184.33 280.32 186.79 288.85 181.87 284.59 179.4 276.06 184.33" style="fill:#407BFF"></polygon><polygon points="276.06 184.33 280.32 186.79 288.85 181.87 284.59 179.4 276.06 184.33" style="fill:#fff;opacity:0.5"></polygon><polygon points="276.06 184.33 280.32 186.79 280.32 189.25 276.06 186.79 276.06 184.33" style="fill:#407BFF"></polygon><polygon points="288.85 181.87 288.85 184.33 280.32 189.25 280.32 186.79 288.85 181.87" style="fill:#407BFF"></polygon><polygon points="288.85 181.87 288.85 184.33 280.32 189.25 280.32 186.79 288.85 181.87" style="fill:#fff;opacity:0.30000000000000004"></polygon><path d="M272.91,169.84a.52.52,0,0,0-.54,0,.53.53,0,0,0-.27.47v20.28a.55.55,0,0,0,.27.47l17.57,10.14a.52.52,0,0,0,.27.07.54.54,0,0,0,.27-.07.53.53,0,0,0,.27-.47Zm.27,20.44v-19l16.49,28.56Z" style="fill:#e0e0e0"></path><path d="M272.91,169.84a.52.52,0,0,0-.54,0,.53.53,0,0,0-.27.47v20.28a.55.55,0,0,0,.27.47l17.57,10.14a.52.52,0,0,0,.27.07.54.54,0,0,0,.27-.07.53.53,0,0,0,.27-.47Zm.27,20.44v-19l16.49,28.56Z" style="opacity:0.2"></path><path d="M290.21,201.27a.53.53,0,0,1-.47-.27l-17.57-30.42a.54.54,0,1,1,.94-.54l17.57,30.42a.54.54,0,0,1-.47.81Z" style="fill:#e0e0e0"></path><path d="M290.48,159.7a.52.52,0,0,0-.54,0,.53.53,0,0,0-.27.47v20.28a.55.55,0,0,0,.27.47l17.56,10.14a.54.54,0,0,0,.27.07.5.5,0,0,0,.27-.07.54.54,0,0,0,.28-.47Zm.27,20.44v-19l16.48,28.55Z" style="fill:#e0e0e0"></path><path d="M290.48,159.7a.52.52,0,0,0-.54,0,.53.53,0,0,0-.27.47v20.28a.55.55,0,0,0,.27.47l17.56,10.14a.54.54,0,0,0,.27.07.5.5,0,0,0,.27-.07.54.54,0,0,0,.28-.47Zm.27,20.44v-19l16.48,28.55Z" style="opacity:0.2"></path><path d="M307.77,191.13a.54.54,0,0,1-.46-.27l-17.57-30.42a.54.54,0,1,1,.94-.54l17.56,30.42a.55.55,0,0,1-.19.74A.55.55,0,0,1,307.77,191.13Z" style="fill:#e0e0e0"></path><g style="opacity:0.2"><path d="M307.77,191.13a.54.54,0,0,1-.46-.27l-17.57-30.42a.54.54,0,1,1,.94-.54l17.56,30.42a.55.55,0,0,1-.19.74A.55.55,0,0,1,307.77,191.13Z"></path></g><path d="M272.64,191.13a.54.54,0,0,1-.27-.07l-17.56-10.14a.56.56,0,0,1-.28-.47V160.17a.53.53,0,0,1,.28-.47.52.52,0,0,1,.54,0l17.56,10.14a.53.53,0,0,1,.27.47v20.28a.55.55,0,0,1-.27.47A.52.52,0,0,1,272.64,191.13Zm-17-11,16.48,9.51v-19l-16.48-9.52Z" style="fill:#e0e0e0"></path><path d="M272.64,191.13a.56.56,0,0,1-.47-.27l-17.56-30.42a.54.54,0,0,1,.2-.74.53.53,0,0,1,.73.2l17.57,30.42a.54.54,0,0,1-.2.74A.52.52,0,0,1,272.64,191.13Z" style="fill:#e0e0e0"></path><path d="M255.08,181a.54.54,0,0,1-.27-1l17.56-10.14a.54.54,0,1,1,.54.94l-17.56,10.14A.54.54,0,0,1,255.08,181Z" style="fill:#e0e0e0"></path><path d="M255.08,181a.5.5,0,0,1-.27-.07l-17.57-10.14a.55.55,0,0,1-.27-.47V150a.52.52,0,0,1,.27-.46.52.52,0,0,1,.54,0l17.57,10.14a.54.54,0,0,1,.27.47v20.28a.57.57,0,0,1-.27.47A.54.54,0,0,1,255.08,181Zm-17-11,16.48,9.51v-19L238.05,151Z" style="fill:#e0e0e0"></path><path d="M255.08,181a.55.55,0,0,1-.47-.27L237,150.3a.54.54,0,0,1,.2-.74.55.55,0,0,1,.74.19l17.56,30.43a.53.53,0,0,1-.46.81Z" style="fill:#e0e0e0"></path><path d="M237.51,170.85a.54.54,0,0,1-.27-1l17.57-10.14a.53.53,0,0,1,.73.2.54.54,0,0,1-.19.73l-17.57,10.15A.68.68,0,0,1,237.51,170.85Z" style="fill:#e0e0e0"></path><g style="opacity:0.2"><path d="M237.51,170.85a.64.64,0,0,1-.27-.07l-17.57-10.15a.54.54,0,0,1-.27-.46V139.88a.54.54,0,0,1,.27-.46.52.52,0,0,1,.54,0l17.57,10.14a.52.52,0,0,1,.27.46v20.29a.55.55,0,0,1-.27.47A.64.64,0,0,1,237.51,170.85Zm-17-11L237,169.37v-19l-16.49-9.52Z"></path><path d="M237.51,170.85a.55.55,0,0,1-.47-.27l-17.56-30.43a.53.53,0,0,1,.19-.73.54.54,0,0,1,.74.19L238,170a.54.54,0,0,1-.2.74A.68.68,0,0,1,237.51,170.85Z"></path><path d="M220,160.71a.54.54,0,0,1-.28-1l17.57-10.14a.55.55,0,0,1,.74.19.54.54,0,0,1-.2.74l-17.56,10.14A.56.56,0,0,1,220,160.71Z"></path><path d="M220,160.71a.57.57,0,0,1-.28-.08l-17.56-10.14a.52.52,0,0,1-.27-.47V129.74a.55.55,0,0,1,.27-.47.57.57,0,0,1,.54,0l17.57,10.15a.54.54,0,0,1,.27.46v20.29a.54.54,0,0,1-.27.46A.56.56,0,0,1,220,160.71Zm-17-11,16.48,9.52v-19l-16.48-9.52Z"></path><path d="M220,160.71a.55.55,0,0,1-.47-.27L201.91,130a.54.54,0,0,1,.2-.74.55.55,0,0,1,.74.2l17.56,30.43a.54.54,0,0,1-.19.73A.56.56,0,0,1,220,160.71Z"></path><path d="M202.38,150.57a.54.54,0,0,1-.27-1l17.56-10.14a.54.54,0,0,1,.74.19.55.55,0,0,1-.19.74l-17.57,10.14A.56.56,0,0,1,202.38,150.57Z"></path><path d="M202.38,150.57a.53.53,0,0,1-.27-.08l-17.57-10.14a.53.53,0,0,1-.27-.47V119.6a.55.55,0,0,1,.27-.47.52.52,0,0,1,.54,0l17.57,10.14a.55.55,0,0,1,.27.47V150a.52.52,0,0,1-.27.47A.53.53,0,0,1,202.38,150.57Zm-17-11,16.49,9.52v-19l-16.49-9.51Z"></path><path d="M202.38,150.57a.55.55,0,0,1-.47-.27l-17.56-30.43a.54.54,0,1,1,.93-.54l17.57,30.42a.54.54,0,0,1-.2.74A.56.56,0,0,1,202.38,150.57Z"></path><path d="M184.81,140.42a.51.51,0,0,1-.46-.27.53.53,0,0,1,.19-.73l17.57-10.15a.55.55,0,0,1,.74.2.54.54,0,0,1-.2.74l-17.57,10.14A.5.5,0,0,1,184.81,140.42Z"></path><path d="M184.81,140.42a.54.54,0,0,1-.27-.07L167,130.21a.53.53,0,0,1-.27-.47V109.46A.55.55,0,0,1,167,109a.52.52,0,0,1,.54,0l17.56,10.14a.55.55,0,0,1,.27.47v20.28a.53.53,0,0,1-.27.47A.5.5,0,0,1,184.81,140.42Zm-17-11L184.27,139v-19l-16.48-9.51Z"></path><path d="M184.81,140.42a.51.51,0,0,1-.46-.27l-17.57-30.42a.54.54,0,0,1,.2-.74.53.53,0,0,1,.73.2l17.57,30.42a.54.54,0,0,1-.2.74A.5.5,0,0,1,184.81,140.42Z"></path><path d="M167.25,130.28a.54.54,0,0,1-.27-1l17.56-10.14a.54.54,0,0,1,.54.94l-17.56,10.14A.54.54,0,0,1,167.25,130.28Z"></path><path d="M167.25,130.28a.5.5,0,0,1-.27-.07l-17.57-10.14a.55.55,0,0,1-.27-.47V99.32a.53.53,0,0,1,.27-.47.52.52,0,0,1,.54,0L167.52,109a.57.57,0,0,1,.27.47v20.28a.55.55,0,0,1-.27.47A.54.54,0,0,1,167.25,130.28Zm-17-11,16.49,9.51v-19l-16.49-9.52Z"></path><path d="M167.25,130.28a.55.55,0,0,1-.47-.27L149.21,99.59a.54.54,0,1,1,.94-.54l17.56,30.42a.54.54,0,0,1-.19.74A.54.54,0,0,1,167.25,130.28Z"></path><path d="M149.68,120.14a.56.56,0,0,1-.47-.27.54.54,0,0,1,.2-.74L167,109a.53.53,0,0,1,.73.2.54.54,0,0,1-.19.74L150,120.07A.52.52,0,0,1,149.68,120.14Z"></path><path d="M149.68,120.14a.54.54,0,0,1-.27-.07l-17.56-10.14a.55.55,0,0,1-.27-.47V89.18a.54.54,0,0,1,.81-.47L150,98.85a.53.53,0,0,1,.27.47V119.6a.55.55,0,0,1-.27.47A.52.52,0,0,1,149.68,120.14Zm-17-11,16.48,9.51v-19l-16.48-9.52Z"></path><path d="M149.68,120.14a.56.56,0,0,1-.47-.27L131.65,89.45a.54.54,0,0,1,.2-.74.53.53,0,0,1,.73.2l17.57,30.42a.54.54,0,0,1-.2.74A.52.52,0,0,1,149.68,120.14Z"></path><path d="M132.12,110a.54.54,0,0,1-.27-1l17.56-10.14a.54.54,0,0,1,.74.2.53.53,0,0,1-.2.73l-17.56,10.15A.54.54,0,0,1,132.12,110Z"></path><path d="M132.12,110a.5.5,0,0,1-.27-.07L114.28,99.78a.52.52,0,0,1-.27-.46V79a.55.55,0,0,1,.27-.47.57.57,0,0,1,.54,0l17.57,10.15a.54.54,0,0,1,.27.47v20.28a.57.57,0,0,1-.27.47A.54.54,0,0,1,132.12,110Zm-17-11,16.49,9.52v-19L115.09,80Z"></path><path d="M132.12,110a.55.55,0,0,1-.47-.27L114.08,79.3a.54.54,0,0,1,.2-.74.55.55,0,0,1,.74.2l17.56,30.43a.54.54,0,0,1-.19.74A.54.54,0,0,1,132.12,110Z"></path><path d="M114.55,99.86a.54.54,0,0,1-.27-1l17.57-10.14a.54.54,0,0,1,.54.93L114.82,99.78A.53.53,0,0,1,114.55,99.86Z"></path><path d="M114.55,99.86a.53.53,0,0,1-.27-.08L96.71,89.64a.54.54,0,0,1-.27-.46V68.89a.57.57,0,0,1,.27-.47.57.57,0,0,1,.54,0l17.57,10.14a.55.55,0,0,1,.27.47V99.32a.52.52,0,0,1-.27.46A.53.53,0,0,1,114.55,99.86Zm-17-11L114,98.38v-19L97.52,69.83Z"></path><path d="M114.55,99.86a.55.55,0,0,1-.47-.27L96.52,69.16a.54.54,0,1,1,.93-.54L115,99.05a.55.55,0,0,1-.47.81Z"></path><path d="M97,89.72a.54.54,0,0,1-.27-1l17.57-10.15a.55.55,0,0,1,.74.2.54.54,0,0,1-.2.74L97.25,89.64A.5.5,0,0,1,97,89.72Z"></path><path d="M97,89.72a.56.56,0,0,1-.27-.08L79.15,79.5a.53.53,0,0,1-.27-.47V58.75a.55.55,0,0,1,.27-.47.52.52,0,0,1,.54,0L97.25,68.42a.55.55,0,0,1,.27.47V89.17a.52.52,0,0,1-.27.47A.5.5,0,0,1,97,89.72Zm-17-11,16.48,9.52v-19L80,59.69Z"></path><path d="M97,89.72a.53.53,0,0,1-.46-.28L79,59a.54.54,0,0,1,.94-.54L97.45,88.9a.54.54,0,0,1-.2.74A.5.5,0,0,1,97,89.72Z"></path><path d="M79.42,79.57A.53.53,0,0,1,79,79.3a.54.54,0,0,1,.2-.74L96.71,68.42a.55.55,0,0,1,.74.2.54.54,0,0,1-.2.74L79.69,79.5A.54.54,0,0,1,79.42,79.57Z"></path><path d="M290.75,200.79a.57.57,0,0,1-.27.41.54.54,0,0,1-.27.07.53.53,0,0,1-.47-.27l-17.57-30.42a.54.54,0,1,1,.94-.54l17.57,30.42a.55.55,0,0,1,.07.33"></path><path d="M272.64,191.13a.54.54,0,0,1-.27-.07l-17.56-10.14a.56.56,0,0,1-.28-.47V160.17a.53.53,0,0,1,.28-.47.52.52,0,0,1,.54,0l17.56,10.14a.53.53,0,0,1,.27.47v20.28a.55.55,0,0,1-.27.47A.52.52,0,0,1,272.64,191.13Zm-17-11,16.48,9.51v-19l-16.48-9.52Z"></path><path d="M272.64,191.13a.56.56,0,0,1-.47-.27l-17.56-30.42a.54.54,0,0,1,.2-.74.53.53,0,0,1,.73.2l17.57,30.42a.54.54,0,0,1-.2.74A.52.52,0,0,1,272.64,191.13Z"></path><path d="M255.08,181a.54.54,0,0,1-.27-1l17.56-10.14a.54.54,0,1,1,.54.94l-17.56,10.14A.54.54,0,0,1,255.08,181Z"></path><path d="M255.08,181a.5.5,0,0,1-.27-.07l-17.57-10.14a.55.55,0,0,1-.27-.47V150a.52.52,0,0,1,.27-.46.52.52,0,0,1,.54,0l17.57,10.14a.54.54,0,0,1,.27.47v20.28a.57.57,0,0,1-.27.47A.54.54,0,0,1,255.08,181Zm-17-11,16.48,9.51v-19L238.05,151Z"></path><path d="M255.08,181a.55.55,0,0,1-.47-.27L237,150.3a.54.54,0,0,1,.2-.74.55.55,0,0,1,.74.19l17.56,30.43a.53.53,0,0,1-.46.81Z"></path><path d="M237.51,170.85a.54.54,0,0,1-.27-1l17.57-10.14a.53.53,0,0,1,.73.2.54.54,0,0,1-.19.73l-17.57,10.15A.68.68,0,0,1,237.51,170.85Z"></path></g><path d="M237.51,150.57a.53.53,0,0,1-.27-.08l-17.57-10.14a.55.55,0,0,1-.27-.47.54.54,0,0,1,.27-.46l17.57-10.15a.57.57,0,0,1,.54,0l17.57,10.15a.54.54,0,0,1,.27.46.55.55,0,0,1-.27.47l-17.57,10.14A.53.53,0,0,1,237.51,150.57ZM221,139.88l16.48,9.52L254,139.88l-16.48-9.51Z" style="fill:#e0e0e0"></path><path d="M255.08,140.42H219.94a.54.54,0,0,1,0-1.08h35.14a.54.54,0,1,1,0,1.08Z" style="fill:#e0e0e0"></path><path d="M237.51,150.57A.55.55,0,0,1,237,150V129.74a.54.54,0,1,1,1.08,0V150A.55.55,0,0,1,237.51,150.57Z" style="fill:#e0e0e0"></path><path d="M220,140.42a.55.55,0,0,1-.28-.07l-17.56-10.14a.53.53,0,0,1-.27-.47.55.55,0,0,1,.27-.47l17.56-10.14a.54.54,0,0,1,.55,0l17.56,10.14a.55.55,0,0,1,.27.47.53.53,0,0,1-.27.47l-17.56,10.14A.54.54,0,0,1,220,140.42Zm-16.49-10.68L220,139.26l16.48-9.52L220,120.23Z" style="fill:#e0e0e0"></path><path d="M237.51,130.28H202.38a.54.54,0,0,1,0-1.08h35.13a.54.54,0,0,1,0,1.08Z" style="fill:#e0e0e0"></path><path d="M220,140.42a.55.55,0,0,1-.55-.54V119.6a.55.55,0,0,1,1.09,0v20.28A.54.54,0,0,1,220,140.42Z" style="fill:#e0e0e0"></path><path d="M202.38,130.28a.52.52,0,0,1-.27-.07l-17.57-10.14a.54.54,0,0,1,0-.94L202.11,109a.52.52,0,0,1,.54,0l17.57,10.14a.54.54,0,0,1,0,.94l-17.57,10.14A.52.52,0,0,1,202.38,130.28ZM185.89,119.6l16.49,9.52,16.48-9.52-16.48-9.52Z" style="fill:#e0e0e0"></path><path d="M220,120.14H184.81a.54.54,0,1,1,0-1.08H220a.54.54,0,0,1,0,1.08Z" style="fill:#e0e0e0"></path><path d="M202.38,130.28a.54.54,0,0,1-.54-.54V109.46a.54.54,0,1,1,1.08,0v20.28A.54.54,0,0,1,202.38,130.28Z" style="fill:#e0e0e0"></path><path d="M184.81,120.14a.54.54,0,0,1-.27-.07L167,109.93a.54.54,0,0,1,0-.94l17.56-10.14a.52.52,0,0,1,.54,0L202.65,109a.54.54,0,0,1,0,.94l-17.57,10.14A.5.5,0,0,1,184.81,120.14Zm-16.48-10.68L184.81,119l16.49-9.52-16.49-9.52Z" style="fill:#e0e0e0"></path><path d="M202.38,110H167.25a.54.54,0,1,1,0-1.08h35.13a.54.54,0,1,1,0,1.08Z" style="fill:#e0e0e0"></path><path d="M184.81,120.14a.54.54,0,0,1-.54-.54V99.32a.54.54,0,0,1,1.08,0V119.6A.54.54,0,0,1,184.81,120.14Z" style="fill:#e0e0e0"></path><path d="M167.25,110a.5.5,0,0,1-.27-.07L149.41,99.78a.52.52,0,0,1-.27-.46.53.53,0,0,1,.27-.47L167,88.71a.52.52,0,0,1,.54,0l17.56,10.14a.53.53,0,0,1,.27.47.52.52,0,0,1-.27.46l-17.56,10.15A.54.54,0,0,1,167.25,110ZM150.76,99.32l16.49,9.51,16.48-9.51L167.25,89.8Z" style="fill:#e0e0e0"></path><path d="M184.81,99.86H149.68a.54.54,0,0,1,0-1.08h35.13a.54.54,0,1,1,0,1.08Z" style="fill:#e0e0e0"></path><path d="M167.25,110a.54.54,0,0,1-.54-.54V89.18a.54.54,0,1,1,1.08,0v20.28A.54.54,0,0,1,167.25,110Z" style="fill:#e0e0e0"></path><path d="M149.68,99.86a.56.56,0,0,1-.27-.08L131.85,89.64a.54.54,0,0,1,0-.93l17.56-10.14a.52.52,0,0,1,.54,0l17.57,10.14a.54.54,0,0,1,0,.93L150,99.78A.53.53,0,0,1,149.68,99.86ZM133.2,89.18l16.48,9.51,16.48-9.51-16.48-9.52Z" style="fill:#e0e0e0"></path><path d="M167.25,89.72H132.12a.55.55,0,0,1,0-1.09h35.13a.55.55,0,0,1,0,1.09Z" style="fill:#e0e0e0"></path><path d="M149.68,99.86a.54.54,0,0,1-.54-.54V79a.54.54,0,0,1,1.08,0V99.32A.54.54,0,0,1,149.68,99.86Z" style="fill:#e0e0e0"></path><path d="M132.12,89.72a.5.5,0,0,1-.27-.08L114.28,79.5A.53.53,0,0,1,114,79a.55.55,0,0,1,.27-.47l17.57-10.14a.57.57,0,0,1,.54,0L150,78.57a.54.54,0,0,1,0,.93L132.39,89.64A.56.56,0,0,1,132.12,89.72ZM115.63,79l16.49,9.52L148.6,79l-16.48-9.51Z" style="fill:#e0e0e0"></path><path d="M149.68,79.58H114.55a.54.54,0,0,1,0-1.08h35.13a.55.55,0,0,1,0,1.09Z" style="fill:#e0e0e0"></path><path d="M132.12,89.72a.54.54,0,0,1-.54-.54V68.89a.54.54,0,0,1,.54-.54.54.54,0,0,1,.54.54V89.18A.55.55,0,0,1,132.12,89.72Z" style="fill:#e0e0e0"></path><path d="M114.55,79.58a.53.53,0,0,1-.27-.08L96.71,69.36a.54.54,0,0,1,0-.94l17.57-10.14a.52.52,0,0,1,.54,0l17.57,10.15a.54.54,0,0,1,.27.46.55.55,0,0,1-.27.47L114.82,79.5A.53.53,0,0,1,114.55,79.58ZM98.07,68.89l16.48,9.52L131,68.89l-16.48-9.52Z" style="fill:#e0e0e0"></path><path d="M132.12,69.43H97a.54.54,0,0,1,0-1.08h35.14a.54.54,0,1,1,0,1.08Z" style="fill:#e0e0e0"></path><path d="M114.55,79.58A.55.55,0,0,1,114,79V58.75a.54.54,0,0,1,1.08,0V79A.55.55,0,0,1,114.55,79.58Z" style="fill:#e0e0e0"></path><path d="M97,69.43a.54.54,0,0,1-.27-.07L79.15,59.22a.54.54,0,0,1,0-.94L96.71,48.14a.52.52,0,0,1,.54,0l17.57,10.14a.54.54,0,0,1,0,.94L97.25,69.36A.5.5,0,0,1,97,69.43ZM80.5,58.75,97,68.27l16.49-9.52L97,49.23Z" style="fill:#e0e0e0"></path><path d="M114.55,59.29H79.42a.54.54,0,0,1,0-1.08h35.13a.54.54,0,1,1,0,1.08Z" style="fill:#e0e0e0"></path><path d="M97,69.43a.54.54,0,0,1-.54-.54V48.61a.54.54,0,0,1,.54-.54.54.54,0,0,1,.54.54V68.89A.54.54,0,0,1,97,69.43Z" style="fill:#e0e0e0"></path><path d="M272.64,170.85a.68.68,0,0,1-.27-.07l-17.56-10.15a.53.53,0,0,1,0-.93l17.56-10.14a.52.52,0,0,1,.54,0l17.57,10.14a.54.54,0,0,1,0,.93l-17.57,10.15A.64.64,0,0,1,272.64,170.85Zm-16.48-10.68,16.48,9.51,16.49-9.51-16.49-9.52Z" style="fill:#e0e0e0"></path><path d="M290.21,160.71H255.08a.55.55,0,0,1-.55-.54.55.55,0,0,1,.55-.54h35.13a.54.54,0,0,1,.54.54A.54.54,0,0,1,290.21,160.71Z" style="fill:#e0e0e0"></path><path d="M272.64,170.85a.54.54,0,0,1-.54-.54V150a.54.54,0,0,1,1.08,0v20.29A.54.54,0,0,1,272.64,170.85Z" style="fill:#e0e0e0"></path><path d="M255.08,160.71a.5.5,0,0,1-.27-.08l-17.57-10.14a.54.54,0,0,1,0-.93l17.57-10.14a.52.52,0,0,1,.54,0l17.56,10.14a.54.54,0,0,1,0,.93l-17.56,10.14A.56.56,0,0,1,255.08,160.71ZM238.59,150l16.49,9.52L271.56,150l-16.48-9.51Z" style="fill:#e0e0e0"></path><path d="M272.64,150.57H237.51a.55.55,0,0,1,0-1.09h35.13a.55.55,0,0,1,0,1.09Z" style="fill:#e0e0e0"></path><path d="M255.08,160.71a.55.55,0,0,1-.55-.54V139.88a.55.55,0,0,1,1.09,0v20.29A.55.55,0,0,1,255.08,160.71Z" style="fill:#e0e0e0"></path><path d="M149.42,49.42a.47.47,0,0,1-.19-.39l0-14.4a.35.35,0,0,1,.15-.28l9.45-5.44a.3.3,0,0,1,.29,0,.34.34,0,0,1,.17.25l1.84,12.41a.31.31,0,0,1-.13.32l-11.25,7.53a.3.3,0,0,1-.18.06A.31.31,0,0,1,149.42,49.42Zm9.38-19.76-8.68,5.05,0,13.46,10.33-6.83Z" style="fill:#e0e0e0"></path><path d="M149.6,49.49a.34.34,0,0,0,.31-.22l9.39-20a.33.33,0,0,0-.15-.4.28.28,0,0,0-.39.09l-9.48,19.8a.5.5,0,0,0,.14.61A.31.31,0,0,0,149.6,49.49Z" style="fill:#e0e0e0"></path><path d="M160.87,42a.27.27,0,0,0,.27-.18.45.45,0,0,0-.18-.52l-11.23-6.89a.31.31,0,0,0-.43.11.33.33,0,0,0,.11.45l11.29,7A.41.41,0,0,0,160.87,42Z" style="fill:#e0e0e0"></path><path d="M149.42,69.63a.74.74,0,0,1-.22-.56l0-20a.45.45,0,0,1,.19-.38l11.2-7.41a.29.29,0,0,1,.34,0,.43.43,0,0,1,.2.33l2.5,17.61a.49.49,0,0,1-.14.45l-13.66,10a.35.35,0,0,1-.22.09A.47.47,0,0,1,149.42,69.63Zm11.15-27.4-10.43,7,0,18.78,12.67-9.11Z" style="fill:#e0e0e0"></path><path d="M149.64,69.72a.45.45,0,0,0,.38-.32l11.12-27.63a.45.45,0,0,0-.18-.52.28.28,0,0,0-.44.12L149.26,68.75a.83.83,0,0,0,.16.88A.47.47,0,0,0,149.64,69.72Z" style="fill:#e0e0e0"></path><path d="M163.33,59.71a.32.32,0,0,0,.31-.26.67.67,0,0,0-.23-.72L149.78,48.66a.33.33,0,0,0-.5.15.5.5,0,0,0,.14.61l13.71,10.21A.32.32,0,0,0,163.33,59.71Z" style="fill:#e0e0e0"></path><path d="M149.42,99.72a1.26,1.26,0,0,1-.27-.86l0-29.79a.7.7,0,0,1,.22-.55l13.6-9.8a.3.3,0,0,1,.39,0,.62.62,0,0,1,.25.46l4.11,29.69a.89.89,0,0,1-.16.68L150,99.72a.34.34,0,0,1-.55,0ZM163,60.09,150.17,69.4l.06,27.77,16.53-8.75Z" style="fill:#e0e0e0"></path><path d="M149.7,99.86c.18,0,.37-.18.47-.5l13.47-39.91a.67.67,0,0,0-.23-.72.31.31,0,0,0-.51.18L149.23,98.37a1.47,1.47,0,0,0,.19,1.35A.4.4,0,0,0,149.7,99.86Z" style="fill:#e0e0e0"></path><path d="M167.38,89.66c.17,0,.31-.14.37-.39a1.16,1.16,0,0,0-.3-1.06l-17.6-19.68c-.21-.18-.47-.08-.59.22a.83.83,0,0,0,.16.88l17.71,19.92A.35.35,0,0,0,167.38,89.66Z" style="fill:#e0e0e0"></path><g style="opacity:0.4"><path d="M149.42,49.42a.47.47,0,0,1-.19-.39l0-14.4a.35.35,0,0,1,.15-.28l9.45-5.44a.3.3,0,0,1,.29,0,.34.34,0,0,1,.17.25l1.84,12.41a.31.31,0,0,1-.13.32l-11.25,7.53a.3.3,0,0,1-.18.06A.31.31,0,0,1,149.42,49.42Zm9.38-19.76-8.68,5.05,0,13.46,10.33-6.83Z"></path><path d="M149.6,49.49a.34.34,0,0,0,.31-.22l9.39-20a.33.33,0,0,0-.15-.4.28.28,0,0,0-.39.09l-9.48,19.8a.5.5,0,0,0,.14.61A.31.31,0,0,0,149.6,49.49Z"></path><path d="M160.87,42a.27.27,0,0,0,.27-.18.45.45,0,0,0-.18-.52l-11.23-6.89a.31.31,0,0,0-.43.11.33.33,0,0,0,.11.45l11.29,7A.41.41,0,0,0,160.87,42Z"></path><path d="M149.42,69.63a.74.74,0,0,1-.22-.56l0-20a.45.45,0,0,1,.19-.38l11.2-7.41a.29.29,0,0,1,.34,0,.43.43,0,0,1,.2.33l2.5,17.61a.49.49,0,0,1-.14.45l-13.66,10a.35.35,0,0,1-.22.09A.47.47,0,0,1,149.42,69.63Zm11.15-27.4-10.43,7,0,18.79,12.67-9.11Z"></path><path d="M149.64,69.72a.45.45,0,0,0,.38-.32l11.12-27.63a.45.45,0,0,0-.18-.52.28.28,0,0,0-.44.12L149.26,68.75a.83.83,0,0,0,.16.88A.47.47,0,0,0,149.64,69.72Z"></path><path d="M163.33,59.71a.32.32,0,0,0,.31-.26.67.67,0,0,0-.23-.72L149.78,48.66a.33.33,0,0,0-.5.15.5.5,0,0,0,.14.61l13.71,10.21A.32.32,0,0,0,163.33,59.71Z"></path><path d="M149.42,99.72a1.26,1.26,0,0,1-.27-.86l0-29.79a.7.7,0,0,1,.22-.55l13.6-9.8a.3.3,0,0,1,.39,0,.62.62,0,0,1,.25.46l4.11,29.69a.89.89,0,0,1-.16.68L150,99.72a.34.34,0,0,1-.55,0ZM163,60.09,150.17,69.4l.06,27.77,16.53-8.75Z"></path><path d="M149.7,99.86c.18,0,.37-.18.47-.5l13.47-39.91a.67.67,0,0,0-.23-.72.31.31,0,0,0-.51.18L149.23,98.37a1.47,1.47,0,0,0,.19,1.35A.4.4,0,0,0,149.7,99.86Z"></path><path d="M167.38,89.66c.17,0,.31-.14.37-.39a1.16,1.16,0,0,0-.3-1.06l-17.6-19.68c-.21-.18-.47-.08-.59.22a.83.83,0,0,0,.16.88l17.71,19.92A.35.35,0,0,0,167.38,89.66Z"></path></g><path d="M149.78,49.49a.33.33,0,0,1-.19-.06L138.34,41.9a.32.32,0,0,1-.13-.32l1.84-12.41a.35.35,0,0,1,.18-.25.3.3,0,0,1,.29,0L150,34.35a.33.33,0,0,1,.16.28l0,14.4a.49.49,0,0,1-.18.39A.34.34,0,0,1,149.78,49.49Zm-10.87-8.15,10.32,6.83,0-13.46-8.68-5.05Z" style="fill:#e0e0e0"></path><path d="M149.78,49.49a.36.36,0,0,1-.32-.22l-9.38-20a.31.31,0,0,1,.15-.4.27.27,0,0,1,.38.09l9.48,19.8a.51.51,0,0,1-.13.61A.34.34,0,0,1,149.78,49.49Z" style="fill:#e0e0e0"></path><path d="M138.5,42a.27.27,0,0,1-.27-.18.45.45,0,0,1,.19-.52l11.23-6.89a.3.3,0,0,1,.42.11.33.33,0,0,1-.11.45l-11.28,7A.41.41,0,0,1,138.5,42Z" style="fill:#e0e0e0"></path><path d="M149.74,69.72a.33.33,0,0,1-.22-.09l-13.67-10a.52.52,0,0,1-.14-.45l2.5-17.61a.47.47,0,0,1,.21-.33.27.27,0,0,1,.33,0L150,48.65a.47.47,0,0,1,.18.38l0,20a.77.77,0,0,1-.21.56A.51.51,0,0,1,149.74,69.72ZM136.53,58.87,149.2,68l0-18.79-10.42-7Z" style="fill:#e0e0e0"></path><path d="M149.74,69.72a.45.45,0,0,1-.38-.32L138.23,41.77a.45.45,0,0,1,.19-.52.28.28,0,0,1,.44.12l11.25,27.38a.81.81,0,0,1-.15.88A.51.51,0,0,1,149.74,69.72Z" style="fill:#e0e0e0"></path><path d="M136,59.71a.34.34,0,0,1-.31-.26.69.69,0,0,1,.23-.72L149.6,48.66a.32.32,0,0,1,.49.15.51.51,0,0,1-.13.61L136.25,59.63A.37.37,0,0,1,136,59.71Z" style="fill:#e0e0e0"></path><path d="M149.68,99.86a.38.38,0,0,1-.27-.14L131.77,89.56a.82.82,0,0,1-.16-.68l4.1-29.69a.66.66,0,0,1,.25-.46.3.3,0,0,1,.39,0L150,68.52a.73.73,0,0,1,.21.55l.05,29.79a1.26,1.26,0,0,1-.27.86A.38.38,0,0,1,149.68,99.86ZM132.62,88.42l16.53,8.75,0-27.77-12.81-9.31Z" style="fill:#e0e0e0"></path><path d="M149.68,99.86c-.19,0-.37-.18-.47-.5L135.73,59.45a.69.69,0,0,1,.23-.72.31.31,0,0,1,.51.18l13.68,39.46a1.5,1.5,0,0,1-.2,1.35A.38.38,0,0,1,149.68,99.86Z" style="fill:#e0e0e0"></path><path d="M132,89.66c-.16,0-.31-.14-.36-.39a1.13,1.13,0,0,1,.3-1.06l17.59-19.68c.21-.18.48-.08.59.22a.81.81,0,0,1-.15.88L132.25,89.55A.37.37,0,0,1,132,89.66Z" style="fill:#e0e0e0"></path><g style="opacity:0.2"><path d="M149.78,49.49a.33.33,0,0,1-.19-.06L138.34,41.9a.32.32,0,0,1-.13-.32l1.84-12.41a.35.35,0,0,1,.18-.25.3.3,0,0,1,.29,0L150,34.35a.33.33,0,0,1,.16.28l0,14.4a.49.49,0,0,1-.18.39A.34.34,0,0,1,149.78,49.49Zm-10.87-8.15,10.32,6.83,0-13.46-8.68-5.05Z"></path><path d="M149.78,49.49a.36.36,0,0,1-.32-.22l-9.38-20a.31.31,0,0,1,.15-.4.27.27,0,0,1,.38.09l9.48,19.8a.51.51,0,0,1-.13.61A.34.34,0,0,1,149.78,49.49Z"></path><path d="M138.5,42a.27.27,0,0,1-.27-.18.45.45,0,0,1,.19-.52l11.23-6.89a.3.3,0,0,1,.42.11.33.33,0,0,1-.11.45l-11.28,7A.41.41,0,0,1,138.5,42Z"></path><path d="M149.74,69.72a.33.33,0,0,1-.22-.09l-13.67-10a.52.52,0,0,1-.14-.45l2.5-17.61a.47.47,0,0,1,.21-.33.27.27,0,0,1,.33,0L150,48.65a.47.47,0,0,1,.18.38l0,20a.77.77,0,0,1-.21.56A.51.51,0,0,1,149.74,69.72ZM136.53,58.87,149.2,68l0-18.79-10.42-7Z"></path><path d="M149.74,69.72a.45.45,0,0,1-.38-.32L138.23,41.77a.45.45,0,0,1,.19-.52.28.28,0,0,1,.44.12l11.25,27.38a.81.81,0,0,1-.15.88A.51.51,0,0,1,149.74,69.72Z"></path><path d="M136,59.71a.34.34,0,0,1-.31-.26.69.69,0,0,1,.23-.72L149.6,48.66a.32.32,0,0,1,.49.15.51.51,0,0,1-.13.61L136.25,59.63A.37.37,0,0,1,136,59.71Z"></path><path d="M149.68,99.86a.38.38,0,0,1-.27-.14L131.77,89.56a.82.82,0,0,1-.16-.68l4.1-29.69a.66.66,0,0,1,.25-.46.3.3,0,0,1,.39,0L150,68.52a.73.73,0,0,1,.21.55l.05,29.79a1.26,1.26,0,0,1-.27.86A.38.38,0,0,1,149.68,99.86ZM132.62,88.42l16.53,8.75,0-27.77-12.81-9.31Z"></path><path d="M149.68,99.86c-.19,0-.37-.18-.47-.5L135.73,59.45a.69.69,0,0,1,.23-.72.31.31,0,0,1,.51.18l13.68,39.46a1.5,1.5,0,0,1-.2,1.35A.38.38,0,0,1,149.68,99.86Z"></path><path d="M132,89.66c-.16,0-.31-.14-.36-.39a1.13,1.13,0,0,1,.3-1.06l17.59-19.68c.21-.18.48-.08.59.22a.81.81,0,0,1-.15.88L132.25,89.55A.37.37,0,0,1,132,89.66Z"></path></g><polygon points="149.68 31.63 137.85 24.8 149.68 17.97 161.51 24.8 149.68 31.63" style="fill:#407BFF"></polygon><polygon points="149.68 31.63 137.85 24.8 149.68 17.97 161.51 24.8 149.68 31.63" style="fill:#fff;opacity:0.6000000000000001"></polygon><polygon points="161.51 24.8 149.68 31.63 149.68 36.41 161.51 29.58 161.51 24.8" style="fill:#407BFF"></polygon><polygon points="137.85 24.8 137.85 29.58 149.68 36.41 149.68 31.63 137.85 24.8" style="fill:#407BFF"></polygon><polygon points="137.85 24.8 137.85 29.58 149.68 36.41 149.68 31.63 137.85 24.8" style="fill:#fff;opacity:0.35000000000000003"></polygon></g><g id="freepik--Cable--inject-5"><path d="M281.91,182.67a.53.53,0,0,1-.53-.53V164.58L154.65,29.08l75,105.43a.52.52,0,0,1-.85.61L149.25,23.3l.82-.66L282.43,164.16v18A.52.52,0,0,1,281.91,182.67Z" style="fill:#455a64"></path><path d="M80,45.67a.53.53,0,0,1-.5-.36.52.52,0,0,1,.34-.66L149.52,22.5a.52.52,0,0,1,.32,1L80.12,45.65A.47.47,0,0,1,80,45.67Z" style="fill:#455a64"></path></g><path id="freepik--Sphere--inject-5" d="M155.9,24.31a3.09,3.09,0,0,1-1.83,2.54,9.7,9.7,0,0,1-8.78,0,3.08,3.08,0,0,1-1.82-2.54,6.22,6.22,0,0,1,12.43,0Z" style="fill:#37474f"></path><polygon points="210.42 330.2 351.08 248.99 353.93 250.63 213.26 331.84 210.42 330.2" style="fill:#455a64"></polygon><polygon points="220.96 336.29 220.96 340.55 210.42 334.46 210.42 330.2 213.26 331.84 213.26 327.05 210.42 325.41 210.42 321.15 220.96 327.24 220.96 331.5 218.12 329.86 218.12 334.65 220.96 336.29" style="fill:#37474f"></polygon><polygon points="351.08 239.94 210.42 321.15 220.96 327.24 361.63 246.03 351.08 239.94" style="fill:#455a64"></polygon><polygon points="361.63 250.29 361.63 246.03 220.96 327.24 220.96 331.5 361.63 250.29" style="fill:#263238"></polygon><polygon points="361.63 259.33 361.63 255.07 220.96 336.29 220.96 340.55 361.63 259.33" style="fill:#263238"></polygon><polygon points="218.12 334.65 358.79 253.43 361.63 255.07 220.96 336.29 218.12 334.65" style="fill:#455a64"></polygon><polygon points="358.79 251.93 358.79 253.43 218.12 334.65 218.12 329.86 220.96 331.5 358.79 251.93"></polygon><path d="M244.52,327.48A.53.53,0,0,1,244,327V314L233.71,308a.53.53,0,1,1,.53-.91l10.8,6.24V327A.52.52,0,0,1,244.52,327.48Z" style="fill:#407BFF"></path><path d="M337.57,273.74a.52.52,0,0,1-.52-.52v-13l-10.28-5.94a.52.52,0,0,1,.52-.91l10.81,6.24v13.61A.52.52,0,0,1,337.57,273.74Z" style="fill:#407BFF"></path><path d="M239.25,311.13a.55.55,0,0,1-.38-.15.52.52,0,0,1,0-.74l43.4-43.12.15,0,49.33-11a.53.53,0,0,1,.22,1l-49.17,10.94L239.62,311A.55.55,0,0,1,239.25,311.13Z" style="fill:#407BFF"></path><path d="M286.1,265.12a.78.78,0,0,0-.78.78c0,1.45-.45,2.23-.87,2.48a1.08,1.08,0,0,1-1.11-.13l.72,1.79a2.31,2.31,0,0,0,1.17-.32c1-.6,1.65-2,1.65-3.82A.78.78,0,0,0,286.1,265.12Z" style="fill:#455a64"></path></g></g><g id="freepik--steel-beams--inject-5"><g id="freepik--steel-beams--inject-5"><polygon points="258.15 383.35 398.82 302.14 401.66 303.78 260.99 384.99 258.15 383.35" style="fill:#455a64"></polygon><polygon points="268.69 389.44 268.69 393.7 258.15 387.61 258.15 383.35 260.99 384.99 260.99 380.2 258.15 378.56 258.15 374.31 268.69 380.39 268.69 384.65 265.85 383.01 265.85 387.8 268.69 389.44" style="fill:#37474f"></polygon><polygon points="398.82 293.09 258.15 374.31 268.69 380.39 409.36 299.18 398.82 293.09" style="fill:#455a64"></polygon><polygon points="409.36 303.44 409.36 299.18 268.69 380.39 268.69 384.65 409.36 303.44" style="fill:#263238"></polygon><polygon points="409.36 312.48 409.36 308.23 268.69 389.44 268.69 393.7 409.36 312.48" style="fill:#263238"></polygon><polygon points="265.85 387.8 406.52 306.58 409.36 308.23 268.69 389.44 265.85 387.8" style="fill:#455a64"></polygon><polygon points="406.52 305.08 406.52 306.58 265.85 387.8 265.85 383.01 268.69 384.65 406.52 305.08"></polygon><polygon points="270.95 390.74 411.62 309.53 414.46 311.17 273.8 392.38 270.95 390.74" style="fill:#455a64"></polygon><polygon points="281.5 396.83 281.5 401.08 270.95 395 270.95 390.74 273.8 392.38 273.8 387.59 270.95 385.95 270.95 381.69 281.5 387.78 281.5 392.04 278.66 390.4 278.66 395.19 281.5 396.83" style="fill:#37474f"></polygon><polygon points="411.62 300.48 270.95 381.69 281.5 387.78 422.17 306.57 411.62 300.48" style="fill:#455a64"></polygon><polygon points="422.17 310.83 422.17 306.57 281.5 387.78 281.5 392.04 422.17 310.83" style="fill:#263238"></polygon><polygon points="422.17 319.87 422.17 315.61 281.5 396.83 281.5 401.08 422.17 319.87" style="fill:#263238"></polygon><polygon points="278.66 395.19 419.32 313.97 422.17 315.61 281.5 396.83 278.66 395.19" style="fill:#455a64"></polygon><polygon points="419.32 312.47 419.32 313.97 278.66 395.19 278.66 390.4 281.5 392.04 419.32 312.47"></polygon><polygon points="283.76 398.13 424.43 316.92 427.27 318.56 286.6 399.77 283.76 398.13" style="fill:#455a64"></polygon><polygon points="294.3 404.21 294.3 408.47 283.76 402.39 283.76 398.13 286.6 399.77 286.6 394.98 283.76 393.34 283.76 389.08 294.3 395.17 294.3 399.43 291.46 397.79 291.46 402.57 294.3 404.21" style="fill:#37474f"></polygon><polygon points="424.43 307.87 283.76 389.08 294.3 395.17 434.97 313.96 424.43 307.87" style="fill:#455a64"></polygon><polygon points="434.97 318.22 434.97 313.96 294.3 395.17 294.3 399.43 434.97 318.22" style="fill:#263238"></polygon><polygon points="434.97 327.26 434.97 323 294.3 404.21 294.3 408.47 434.97 327.26" style="fill:#263238"></polygon><polygon points="291.46 402.57 432.13 321.36 434.97 323 294.3 404.21 291.46 402.57" style="fill:#455a64"></polygon><polygon points="432.13 319.86 432.13 321.36 291.46 402.57 291.46 397.79 294.3 399.43 432.13 319.86"></polygon><polygon points="296.56 405.52 437.23 324.31 440.07 325.95 299.4 407.16 296.56 405.52" style="fill:#455a64"></polygon><polygon points="307.11 411.6 307.11 415.86 296.56 409.77 296.56 405.52 299.4 407.16 299.4 402.37 296.56 400.73 296.56 396.47 307.11 402.56 307.11 406.82 304.27 405.18 304.27 409.96 307.11 411.6" style="fill:#37474f"></polygon><polygon points="437.23 315.26 296.56 396.47 307.11 402.56 447.78 321.35 437.23 315.26" style="fill:#455a64"></polygon><polygon points="447.78 325.61 447.78 321.35 307.11 402.56 307.11 406.82 447.78 325.61" style="fill:#263238"></polygon><polygon points="447.78 334.65 447.78 330.39 307.11 411.6 307.11 415.86 447.78 334.65" style="fill:#263238"></polygon><polygon points="304.27 409.96 444.93 328.75 447.78 330.39 307.11 411.6 304.27 409.96" style="fill:#455a64"></polygon><polygon points="444.93 327.25 444.93 328.75 304.27 409.96 304.27 405.18 307.11 406.82 444.93 327.25"></polygon><polygon points="309.37 412.91 450.04 331.69 452.88 333.34 312.21 414.55 309.37 412.91" style="fill:#455a64"></polygon><polygon points="319.91 418.99 319.91 423.25 309.37 417.16 309.37 412.9 312.21 414.55 312.21 409.76 309.37 408.12 309.37 403.86 319.91 409.95 319.91 414.21 317.07 412.57 317.07 417.35 319.91 418.99" style="fill:#37474f"></polygon><polygon points="450.04 322.65 309.37 403.86 319.91 409.95 460.58 328.74 450.04 322.65" style="fill:#455a64"></polygon><polygon points="460.58 333 460.58 328.74 319.91 409.95 319.91 414.21 460.58 333" style="fill:#263238"></polygon><polygon points="460.58 342.04 460.58 337.78 319.91 418.99 319.91 423.25 460.58 342.04" style="fill:#263238"></polygon><polygon points="317.07 417.35 457.74 336.14 460.58 337.78 319.91 418.99 317.07 417.35" style="fill:#455a64"></polygon><polygon points="457.74 334.64 457.74 336.14 317.07 417.35 317.07 412.57 319.91 414.21 457.74 334.64"></polygon><polygon points="267.1 372.15 407.77 290.94 410.61 292.58 269.94 373.79 267.1 372.15" style="fill:#455a64"></polygon><polygon points="277.65 378.23 277.65 382.49 267.1 376.4 267.1 372.15 269.94 373.79 269.94 369 267.1 367.36 267.1 363.1 277.65 369.19 277.65 373.45 274.81 371.81 274.81 376.59 277.65 378.23" style="fill:#37474f"></polygon><polygon points="407.77 281.89 267.1 363.1 277.65 369.19 418.31 287.98 407.77 281.89" style="fill:#455a64"></polygon><polygon points="418.31 292.24 418.31 287.98 277.65 369.19 277.65 373.45 418.31 292.24" style="fill:#263238"></polygon><polygon points="418.31 301.28 418.31 297.02 277.65 378.23 277.65 382.49 418.31 301.28" style="fill:#263238"></polygon><polygon points="274.81 376.59 415.47 295.38 418.31 297.02 277.65 378.23 274.81 376.59" style="fill:#455a64"></polygon><polygon points="415.47 293.88 415.47 295.38 274.81 376.59 274.81 371.81 277.65 373.45 415.47 293.88"></polygon><polygon points="279.91 379.54 420.57 298.32 423.42 299.96 282.75 381.18 279.91 379.54" style="fill:#455a64"></polygon><polygon points="290.45 385.62 290.45 389.88 279.91 383.79 279.91 379.53 282.75 381.18 282.75 376.39 279.91 374.75 279.91 370.49 290.45 376.58 290.45 380.84 287.61 379.19 287.61 383.98 290.45 385.62" style="fill:#37474f"></polygon><polygon points="420.57 289.28 279.91 370.49 290.45 376.58 431.12 295.37 420.57 289.28" style="fill:#455a64"></polygon><polygon points="431.12 299.62 431.12 295.37 290.45 376.58 290.45 380.84 431.12 299.62" style="fill:#263238"></polygon><polygon points="431.12 308.67 431.12 304.41 290.45 385.62 290.45 389.88 431.12 308.67" style="fill:#263238"></polygon><polygon points="287.61 383.98 428.28 302.77 431.12 304.41 290.45 385.62 287.61 383.98" style="fill:#455a64"></polygon><polygon points="428.28 301.26 428.28 302.77 287.61 383.98 287.61 379.19 290.45 380.84 428.28 301.26"></polygon><polygon points="292.71 386.93 433.38 305.71 436.22 307.35 295.55 388.57 292.71 386.93" style="fill:#455a64"></polygon><polygon points="303.26 393.01 303.26 397.27 292.71 391.18 292.71 386.92 295.55 388.56 295.55 383.78 292.71 382.14 292.71 377.88 303.26 383.97 303.26 388.23 300.42 386.58 300.42 391.37 303.26 393.01" style="fill:#37474f"></polygon><polygon points="433.38 296.67 292.71 377.88 303.26 383.97 443.93 302.75 433.38 296.67" style="fill:#455a64"></polygon><polygon points="443.93 307.01 443.93 302.75 303.26 383.97 303.26 388.23 443.93 307.01" style="fill:#263238"></polygon><polygon points="443.93 316.06 443.93 311.8 303.26 393.01 303.26 397.27 443.93 316.06" style="fill:#263238"></polygon><polygon points="300.42 391.37 441.08 310.16 443.93 311.8 303.26 393.01 300.42 391.37" style="fill:#455a64"></polygon><polygon points="441.08 308.65 441.08 310.16 300.42 391.37 300.42 386.58 303.26 388.23 441.08 308.65"></polygon><polygon points="305.52 394.31 446.19 313.1 449.03 314.74 308.36 395.95 305.52 394.31" style="fill:#455a64"></polygon><polygon points="316.06 400.4 316.06 404.66 305.52 398.57 305.52 394.31 308.36 395.95 308.36 391.17 305.52 389.53 305.52 385.27 316.06 391.36 316.06 395.61 313.22 393.97 313.22 398.76 316.06 400.4" style="fill:#37474f"></polygon><polygon points="446.19 304.06 305.52 385.27 316.06 391.36 456.73 310.14 446.19 304.06" style="fill:#455a64"></polygon><polygon points="456.73 314.4 456.73 310.14 316.06 391.36 316.06 395.61 456.73 314.4" style="fill:#263238"></polygon><polygon points="456.73 323.45 456.73 319.19 316.06 400.4 316.06 404.66 456.73 323.45" style="fill:#263238"></polygon><polygon points="313.22 398.76 453.89 317.55 456.73 319.19 316.06 400.4 313.22 398.76" style="fill:#455a64"></polygon><polygon points="453.89 316.04 453.89 317.55 313.22 398.76 313.22 393.97 316.06 395.61 453.89 316.04"></polygon></g></g><g id="freepik--Cones--inject-5"><g id="freepik--Cone--inject-5"><path d="M62.4,407.54l12.73-7.35A1.85,1.85,0,0,1,76,400a1.81,1.81,0,0,1,.85.2l12.73,7.35a.62.62,0,0,1,.35.5V409a.62.62,0,0,1-.35.5L76.84,416.8A1.7,1.7,0,0,1,76,417a1.74,1.74,0,0,1-.86-.21L62.4,409.46a.62.62,0,0,1-.35-.5V408A.62.62,0,0,1,62.4,407.54Z" style="fill:#407BFF"></path><path d="M62.05,408V409a.62.62,0,0,0,.35.5l12.73,7.34A1.74,1.74,0,0,0,76,417V400a1.85,1.85,0,0,0-.86.2L62.4,407.54A.62.62,0,0,0,62.05,408Z" style="opacity:0.1"></path><path d="M76,400v17a1.7,1.7,0,0,0,.85-.21l12.73-7.34a.62.62,0,0,0,.35-.5V408a.62.62,0,0,0-.35-.5l-12.73-7.35A1.81,1.81,0,0,0,76,400Z" style="opacity:0.30000000000000004"></path><path d="M76.84,415.88l12.73-7.35c.47-.27.47-.71,0-1L76.84,400.2a1.85,1.85,0,0,0-1.71,0L62.4,407.54c-.47.28-.47.72,0,1l12.73,7.35A1.91,1.91,0,0,0,76.84,415.88Z" style="fill:#407BFF"></path><path d="M76.84,415.88l12.73-7.35c.47-.27.47-.71,0-1L76.84,400.2a1.85,1.85,0,0,0-1.71,0L62.4,407.54c-.47.28-.47.72,0,1l12.73,7.35A1.91,1.91,0,0,0,76.84,415.88Z" style="fill:#fff;opacity:0.5"></path><path d="M76,400a1.67,1.67,0,0,1,.85.21l12.73,7.34c.47.28.47.72,0,1l-12.73,7.35a1.7,1.7,0,0,1-.85.2Z" style="opacity:0.05"></path><path d="M68.13,407.11h0l5.63-16.92h0v0h0a1.35,1.35,0,0,1,.61-.66,3.56,3.56,0,0,1,3.21,0,1.31,1.31,0,0,1,.61.66h0v0h0l5.64,16.92h0c.52,1.47-.21,3.06-2.18,4.2a12.54,12.54,0,0,1-11.35,0C68.34,410.17,67.61,408.58,68.13,407.11Z" style="fill:#407BFF"></path><path d="M72.14,395.05v0l.8-2.41a1.18,1.18,0,0,0,.35,1.21,2.28,2.28,0,0,0,.5.39,4.87,4.87,0,0,0,4.37,0,2.28,2.28,0,0,0,.5-.39,1.15,1.15,0,0,0,.35-1.21l.8,2.41h0a1.39,1.39,0,0,1-.18,1.21,2.59,2.59,0,0,1-.9.82,4.68,4.68,0,0,1-1,.39,6.45,6.45,0,0,1-3.59,0,4.68,4.68,0,0,1-1-.39,2.59,2.59,0,0,1-.9-.82A1.37,1.37,0,0,1,72.14,395.05Z" style="fill:#fafafa"></path><path d="M68.92,404.74v0l.8-2.41a2.17,2.17,0,0,0,0,1.21,2.68,2.68,0,0,0,.68,1.22,4.68,4.68,0,0,0,1.12.87,10,10,0,0,0,9,0,4.88,4.88,0,0,0,1.12-.87,2.75,2.75,0,0,0,.67-1.22,2.13,2.13,0,0,0,0-1.2l.8,2.4v0a2.38,2.38,0,0,1,.08,1.21,3.83,3.83,0,0,1-2.06,2.51,11.21,11.21,0,0,1-10.18,0A3.82,3.82,0,0,1,68.83,406,2.38,2.38,0,0,1,68.92,404.74Z" style="fill:#fafafa"></path><path d="M70.53,399.89h0l.8-2.41a1.59,1.59,0,0,0,.07,1.21,2.86,2.86,0,0,0,1.19,1.21l0,0a7.37,7.37,0,0,0,6.69,0l0,0a2.86,2.86,0,0,0,1.19-1.21,1.64,1.64,0,0,0,.08-1.21l.8,2.4v0a2,2,0,0,1,0,1.22,2.76,2.76,0,0,1-.88,1.2,4.12,4.12,0,0,1-.65.45,7.09,7.09,0,0,1-2.13.77,9.43,9.43,0,0,1-3.59,0,7.09,7.09,0,0,1-2.13-.77,4.12,4.12,0,0,1-.65-.45,2.76,2.76,0,0,1-.88-1.2A2,2,0,0,1,70.53,399.89Z" style="fill:#fafafa"></path><path d="M76,389.13a3.32,3.32,0,0,1,1.6.38,1.31,1.31,0,0,1,.61.66h0v0h0l5.64,16.92h0c.52,1.47-.21,3.06-2.18,4.2A11.54,11.54,0,0,1,76,412.67h0a4.75,4.75,0,0,0,3.9-5.38l-2.34-16.84Z" style="opacity:0.1"></path><path d="M77.59,391.37a1,1,0,0,0,0-1.86,3.56,3.56,0,0,0-3.21,0,1,1,0,0,0,0,1.86A3.56,3.56,0,0,0,77.59,391.37Z" style="fill:#407BFF"></path><path d="M77.59,391.37a1,1,0,0,0,0-1.86,3.56,3.56,0,0,0-3.21,0,1,1,0,0,0,0,1.86A3.56,3.56,0,0,0,77.59,391.37Z" style="fill:#fff;opacity:0.5"></path></g><g id="freepik--cone--inject-5"><path d="M94.38,415.75l12.73-7.35a1.85,1.85,0,0,1,1.71,0l12.73,7.35a.61.61,0,0,1,.35.49v.93a.61.61,0,0,1-.35.49L108.82,425a1.93,1.93,0,0,1-1.71,0l-12.73-7.35a.61.61,0,0,1-.35-.49v-.93A.61.61,0,0,1,94.38,415.75Z" style="fill:#407BFF"></path><path d="M94,416.24v.93a.61.61,0,0,0,.35.49L107.11,425a1.72,1.72,0,0,0,.85.2v-17a1.73,1.73,0,0,0-.85.21l-12.73,7.35A.61.61,0,0,0,94,416.24Z" style="opacity:0.1"></path><path d="M108,408.19v17a1.73,1.73,0,0,0,.86-.2l12.73-7.35a.61.61,0,0,0,.35-.49v-.93a.61.61,0,0,0-.35-.49l-12.73-7.35A1.74,1.74,0,0,0,108,408.19Z" style="opacity:0.30000000000000004"></path><path d="M108.82,424.08l12.73-7.35a.52.52,0,0,0,0-1l-12.73-7.35a1.91,1.91,0,0,0-1.71,0l-12.73,7.35a.52.52,0,0,0,0,1l12.73,7.35A1.85,1.85,0,0,0,108.82,424.08Z" style="fill:#407BFF"></path><path d="M108.82,424.08l12.73-7.35a.52.52,0,0,0,0-1l-12.73-7.35a1.91,1.91,0,0,0-1.71,0l-12.73,7.35a.52.52,0,0,0,0,1l12.73,7.35A1.85,1.85,0,0,0,108.82,424.08Z" style="fill:#fff;opacity:0.5"></path><path d="M108,408.2a1.63,1.63,0,0,1,.86.2l12.73,7.35a.52.52,0,0,1,0,1l-12.73,7.35a1.74,1.74,0,0,1-.86.21Z" style="opacity:0.05"></path><path d="M100.11,415.32h0l5.63-16.92h0v0h0a1.3,1.3,0,0,1,.61-.65,3.56,3.56,0,0,1,3.21,0,1.3,1.3,0,0,1,.61.65h0v0h0l5.63,16.92h0c.52,1.47-.21,3.05-2.18,4.2a12.6,12.6,0,0,1-11.35,0C100.32,418.37,99.59,416.79,100.11,415.32Z" style="fill:#407BFF"></path><path d="M104.12,403.25v0l.8-2.4a1.17,1.17,0,0,0,.35,1.21,2.61,2.61,0,0,0,.5.38,4.81,4.81,0,0,0,4.37,0,2.61,2.61,0,0,0,.5-.38,1.17,1.17,0,0,0,.35-1.22l.8,2.41v0a1.39,1.39,0,0,1-.18,1.21,2.67,2.67,0,0,1-.9.81,4.7,4.7,0,0,1-1,.4,6.63,6.63,0,0,1-3.59,0,4.7,4.7,0,0,1-1-.4,2.67,2.67,0,0,1-.9-.81A1.39,1.39,0,0,1,104.12,403.25Z" style="fill:#fafafa"></path><path d="M100.9,412.94h0l.8-2.41a2.17,2.17,0,0,0,0,1.21,2.65,2.65,0,0,0,.68,1.21,4.7,4.7,0,0,0,1.12.88,9.94,9.94,0,0,0,9,0,4.7,4.7,0,0,0,1.12-.88,2.65,2.65,0,0,0,.68-1.21,2.17,2.17,0,0,0,0-1.21l.8,2.4v0a2.37,2.37,0,0,1,.08,1.21,3.87,3.87,0,0,1-2.06,2.51,11.29,11.29,0,0,1-10.19,0,3.87,3.87,0,0,1-2.06-2.51A2.31,2.31,0,0,1,100.9,412.94Z" style="fill:#fafafa"></path><path d="M102.51,408.1v0l.81-2.41a1.59,1.59,0,0,0,.07,1.21,2.82,2.82,0,0,0,1.19,1.22l0,0a7.37,7.37,0,0,0,6.69,0l0,0a2.87,2.87,0,0,0,1.19-1.22,1.59,1.59,0,0,0,.07-1.21l.81,2.41v0a1.93,1.93,0,0,1,0,1.21,2.73,2.73,0,0,1-.88,1.21,4.12,4.12,0,0,1-.65.45,6.82,6.82,0,0,1-2.13.76,9.43,9.43,0,0,1-3.59,0A6.82,6.82,0,0,1,104,411a4.12,4.12,0,0,1-.65-.45,2.73,2.73,0,0,1-.88-1.21A1.93,1.93,0,0,1,102.51,408.1Z" style="fill:#fafafa"></path><path d="M108,397.33a3.23,3.23,0,0,1,1.61.39,1.3,1.3,0,0,1,.61.65h0v0h0l5.63,16.92h0c.52,1.47-.21,3.05-2.18,4.2a11.66,11.66,0,0,1-5.68,1.35H108a4.75,4.75,0,0,0,3.9-5.38l-2.34-16.84Z" style="opacity:0.1"></path><path d="M109.57,399.57a1,1,0,0,0,0-1.85,3.56,3.56,0,0,0-3.21,0,1,1,0,0,0,0,1.85A3.56,3.56,0,0,0,109.57,399.57Z" style="fill:#407BFF"></path><path d="M109.57,399.57a1,1,0,0,0,0-1.85,3.56,3.56,0,0,0-3.21,0,1,1,0,0,0,0,1.85A3.56,3.56,0,0,0,109.57,399.57Z" style="fill:#fff;opacity:0.5"></path></g><g id="freepik--cone--inject-5"><path d="M376.65,429.53l12.72-7.35a1.74,1.74,0,0,1,.86-.21,1.67,1.67,0,0,1,.85.21l12.73,7.35a.57.57,0,0,1,.35.49V431a.59.59,0,0,1-.35.49l-12.73,7.35a1.67,1.67,0,0,1-.85.2,1.73,1.73,0,0,1-.86-.2l-12.72-7.35a.6.6,0,0,1-.36-.49V430A.59.59,0,0,1,376.65,429.53Z" style="fill:#407BFF"></path><path d="M376.29,430V431a.6.6,0,0,0,.36.49l12.72,7.35a1.73,1.73,0,0,0,.86.2V422a1.74,1.74,0,0,0-.86.21l-12.72,7.35A.59.59,0,0,0,376.29,430Z" style="opacity:0.1"></path><path d="M390.23,422v17a1.67,1.67,0,0,0,.85-.2l12.73-7.35a.59.59,0,0,0,.35-.49V430a.57.57,0,0,0-.35-.49l-12.73-7.35A1.67,1.67,0,0,0,390.23,422Z" style="opacity:0.30000000000000004"></path><path d="M391.08,437.86l12.73-7.35a.52.52,0,0,0,0-1l-12.73-7.35a1.91,1.91,0,0,0-1.71,0l-12.73,7.35a.52.52,0,0,0,0,1l12.73,7.35A1.91,1.91,0,0,0,391.08,437.86Z" style="fill:#407BFF"></path><path d="M391.08,437.86l12.73-7.35a.52.52,0,0,0,0-1l-12.73-7.35a1.91,1.91,0,0,0-1.71,0l-12.73,7.35a.52.52,0,0,0,0,1l12.73,7.35A1.91,1.91,0,0,0,391.08,437.86Z" style="fill:#fff;opacity:0.5"></path><path d="M390.23,422a1.67,1.67,0,0,1,.85.21l12.73,7.35a.52.52,0,0,1,0,1l-12.73,7.35a1.67,1.67,0,0,1-.85.21Z" style="opacity:0.05"></path><path d="M382.37,429.09h0L388,412.18h0v0h0a1.3,1.3,0,0,1,.61-.65,3.56,3.56,0,0,1,3.21,0,1.25,1.25,0,0,1,.61.65h0v0h0l5.64,16.91h0c.52,1.48-.2,3.06-2.18,4.21a12.58,12.58,0,0,1-11.34,0C382.58,432.15,381.85,430.57,382.37,429.09Z" style="fill:#407BFF"></path><path d="M386.38,417v0l.8-2.4a1.18,1.18,0,0,0,.35,1.21,3,3,0,0,0,.5.38,4.81,4.81,0,0,0,4.37,0,2.61,2.61,0,0,0,.5-.38,1.17,1.17,0,0,0,.35-1.22l.81,2.41v0a1.39,1.39,0,0,1-.18,1.21,2.58,2.58,0,0,1-.9.81,4.7,4.7,0,0,1-1,.4,6.63,6.63,0,0,1-3.59,0,4.94,4.94,0,0,1-1-.4,2.67,2.67,0,0,1-.9-.81A1.39,1.39,0,0,1,386.38,417Z" style="fill:#fafafa"></path><path d="M383.16,426.72h0l.8-2.41a2.17,2.17,0,0,0,0,1.21,2.65,2.65,0,0,0,.68,1.21,4.7,4.7,0,0,0,1.12.88,10,10,0,0,0,9,0,4.91,4.91,0,0,0,1.12-.88,2.84,2.84,0,0,0,.68-1.21,2.27,2.27,0,0,0-.05-1.21l.8,2.4v0a2.48,2.48,0,0,1,.09,1.21,3.92,3.92,0,0,1-2.07,2.51,11.27,11.27,0,0,1-10.18,0,3.86,3.86,0,0,1-2.07-2.51A2.53,2.53,0,0,1,383.16,426.72Z" style="fill:#fafafa"></path><path d="M384.77,421.87h0l.8-2.41a1.64,1.64,0,0,0,.07,1.21,2.91,2.91,0,0,0,1.19,1.21l0,0a7.43,7.43,0,0,0,6.69,0l0,0a2.86,2.86,0,0,0,1.19-1.21,1.64,1.64,0,0,0,.08-1.21l.8,2.41v0a1.8,1.8,0,0,1,0,1.21,2.73,2.73,0,0,1-.88,1.21,5.52,5.52,0,0,1-.64.45,7,7,0,0,1-2.14.76,9.43,9.43,0,0,1-3.59,0,6.82,6.82,0,0,1-2.13-.76,4.78,4.78,0,0,1-.64-.45,2.75,2.75,0,0,1-.89-1.21A2,2,0,0,1,384.77,421.87Z" style="fill:#fafafa"></path><path d="M390.23,411.11a3.21,3.21,0,0,1,1.6.39,1.25,1.25,0,0,1,.61.65h0v0h0l5.64,16.91h0c.52,1.48-.2,3.06-2.18,4.21a11.65,11.65,0,0,1-5.67,1.35h0a4.75,4.75,0,0,0,3.89-5.38l-2.34-16.84Z" style="opacity:0.1"></path><path d="M391.83,413.35a1,1,0,0,0,0-1.85,3.56,3.56,0,0,0-3.21,0,1,1,0,0,0,0,1.85A3.56,3.56,0,0,0,391.83,413.35Z" style="fill:#407BFF"></path><path d="M391.83,413.35a1,1,0,0,0,0-1.85,3.56,3.56,0,0,0-3.21,0,1,1,0,0,0,0,1.85A3.56,3.56,0,0,0,391.83,413.35Z" style="fill:#fff;opacity:0.5"></path></g><g id="freepik--cone--inject-5"><path d="M401.9,407.38,414.63,400a1.93,1.93,0,0,1,1.71,0l12.73,7.35a.62.62,0,0,1,.35.5v.92a.62.62,0,0,1-.35.5l-12.73,7.34a1.85,1.85,0,0,1-1.71,0L401.9,409.3a.62.62,0,0,1-.35-.5v-.92A.62.62,0,0,1,401.9,407.38Z" style="fill:#407BFF"></path><path d="M401.55,407.88v.92a.62.62,0,0,0,.35.5l12.73,7.34a1.73,1.73,0,0,0,.85.21v-17a1.72,1.72,0,0,0-.85.2l-12.73,7.35A.62.62,0,0,0,401.55,407.88Z" style="opacity:0.1"></path><path d="M415.48,399.83v17a1.74,1.74,0,0,0,.86-.21l12.73-7.34a.62.62,0,0,0,.35-.5v-.92a.62.62,0,0,0-.35-.5L416.34,400A1.73,1.73,0,0,0,415.48,399.83Z" style="opacity:0.30000000000000004"></path><path d="M416.34,415.72l12.73-7.35c.47-.27.47-.71,0-1L416.34,400a1.91,1.91,0,0,0-1.71,0l-12.73,7.35c-.47.28-.47.72,0,1l12.73,7.35A1.91,1.91,0,0,0,416.34,415.72Z" style="fill:#407BFF"></path><path d="M416.34,415.72l12.73-7.35c.47-.27.47-.71,0-1L416.34,400a1.91,1.91,0,0,0-1.71,0l-12.73,7.35c-.47.28-.47.72,0,1l12.73,7.35A1.91,1.91,0,0,0,416.34,415.72Z" style="fill:#fff;opacity:0.5"></path><path d="M415.48,399.83a1.85,1.85,0,0,1,.86.2l12.73,7.35c.47.28.47.72,0,1l-12.73,7.35a1.85,1.85,0,0,1-.86.2Z" style="opacity:0.05"></path><path d="M407.63,407h0L413.26,390h0a1.35,1.35,0,0,1,.61-.66,3.56,3.56,0,0,1,3.21,0,1.35,1.35,0,0,1,.61.66h0v0h0L423.34,407h0c.52,1.47-.21,3.06-2.18,4.2a12.54,12.54,0,0,1-11.35,0C407.84,410,407.11,408.42,407.63,407Z" style="fill:#407BFF"></path><path d="M411.64,394.89v0l.8-2.41a1.17,1.17,0,0,0,.35,1.21,2,2,0,0,0,.5.38,4.81,4.81,0,0,0,4.37,0,2,2,0,0,0,.5-.38,1.15,1.15,0,0,0,.35-1.21l.8,2.41h0a1.39,1.39,0,0,1-.18,1.21,2.48,2.48,0,0,1-.9.81,4.2,4.2,0,0,1-1,.4,6.45,6.45,0,0,1-3.59,0,4.2,4.2,0,0,1-1-.4,2.48,2.48,0,0,1-.9-.81A1.37,1.37,0,0,1,411.64,394.89Z" style="fill:#fafafa"></path><path d="M408.42,404.58v0l.8-2.41a2.17,2.17,0,0,0,0,1.21,2.68,2.68,0,0,0,.68,1.22,4.68,4.68,0,0,0,1.12.87,9.94,9.94,0,0,0,9,0,4.68,4.68,0,0,0,1.12-.87,2.68,2.68,0,0,0,.68-1.22,2.13,2.13,0,0,0,0-1.2l.8,2.4v0a2.38,2.38,0,0,1,.08,1.21,3.83,3.83,0,0,1-2.06,2.51,11.29,11.29,0,0,1-10.19,0,3.83,3.83,0,0,1-2.06-2.51A2.28,2.28,0,0,1,408.42,404.58Z" style="fill:#fafafa"></path><path d="M410,399.73v0l.81-2.4a1.59,1.59,0,0,0,.07,1.21,2.86,2.86,0,0,0,1.19,1.21l0,0a7.37,7.37,0,0,0,6.69,0l0,0a2.86,2.86,0,0,0,1.19-1.21,1.59,1.59,0,0,0,.07-1.21l.81,2.4v0a2,2,0,0,1,0,1.22,2.76,2.76,0,0,1-.88,1.2,4.12,4.12,0,0,1-.65.45,7.09,7.09,0,0,1-2.13.77,9.43,9.43,0,0,1-3.59,0,7.09,7.09,0,0,1-2.13-.77,4.12,4.12,0,0,1-.65-.45A2.76,2.76,0,0,1,410,401,2,2,0,0,1,410,399.73Z" style="fill:#fafafa"></path><path d="M415.49,389a3.32,3.32,0,0,1,1.6.38,1.35,1.35,0,0,1,.61.66h0v0h0L423.34,407h0c.52,1.47-.21,3.06-2.18,4.2a11.54,11.54,0,0,1-5.67,1.36h0a4.76,4.76,0,0,0,3.9-5.38l-2.34-16.84Z" style="opacity:0.1"></path><path d="M417.09,391.21a1,1,0,0,0,0-1.86,3.56,3.56,0,0,0-3.21,0,1,1,0,0,0,0,1.86A3.56,3.56,0,0,0,417.09,391.21Z" style="fill:#407BFF"></path><path d="M417.09,391.21a1,1,0,0,0,0-1.86,3.56,3.56,0,0,0-3.21,0,1,1,0,0,0,0,1.86A3.56,3.56,0,0,0,417.09,391.21Z" style="fill:#fff;opacity:0.5"></path></g></g></svg>
