<svg xmlns="http://www.w3.org/2000/svg" xmlns:xlink="http://www.w3.org/1999/xlink" viewBox="0 0 500 500"><defs><clipPath id="freepik--clip-path--inject-326"><path d="M328.23,161.24v101.5c0,1.15.81,1.61,1.8,1l79.41-45.85a4,4,0,0,0,1.8-3.13V113.3c0-1.15-.81-1.62-1.8-1L330,158.11A4,4,0,0,0,328.23,161.24Z" style="fill:none"></path></clipPath><clipPath id="freepik--clip-path-2--inject-326"><path d="M177.91,255.73v101.5c0,1.15.81,1.62,1.81,1l79.4-45.85a4,4,0,0,0,1.8-3.12V207.8c0-1.16-.8-1.62-1.8-1.05l-79.4,45.85A4,4,0,0,0,177.91,255.73Z" style="fill:none"></path></clipPath><clipPath id="freepik--clip-path-3--inject-326"><path d="M61.12,173.34v101.5c0,1.15.81,1.62,1.81,1L142.33,230a4,4,0,0,0,1.81-3.13V125.41c0-1.15-.81-1.62-1.81-1l-79.4,45.84A4,4,0,0,0,61.12,173.34Z" style="fill:none"></path></clipPath></defs><g id="freepik--Shadows--inject-326"><path id="freepik--Shadow--inject-326" d="M308.08,304.74,320,311.62a4.79,4.79,0,0,0,4.33,0l98.94-57.12a1.32,1.32,0,0,0,0-2.5l-11.92-6.88a4.79,4.79,0,0,0-4.33,0l-98.94,57.12A1.32,1.32,0,0,0,308.08,304.74Z" style="fill:#e0e0e0"></path><path id="freepik--shadow--inject-326" d="M156.52,399.87l11.92,6.88a4.79,4.79,0,0,0,4.33,0l98.93-57.12a1.32,1.32,0,0,0,0-2.5l-11.92-6.88a4.79,4.79,0,0,0-4.33,0l-98.93,57.12A1.32,1.32,0,0,0,156.52,399.87Z" style="fill:#e0e0e0"></path><path id="freepik--shadow--inject-326" d="M41.16,317.4l11.92,6.88a4.79,4.79,0,0,0,4.33,0l98.94-57.12a1.32,1.32,0,0,0,0-2.5l-11.92-6.88a4.79,4.79,0,0,0-4.33,0L41.16,314.9A1.32,1.32,0,0,0,41.16,317.4Z" style="fill:#e0e0e0"></path></g><g id="freepik--speech-bubbles--inject-326"><path d="M185,96.06l-18.23,10.52a3.87,3.87,0,0,0-1.73,3v7.49l-5.32,5.51c-.76.8-.5,1.34.6,1.21l4.72-.56v7.38c0,1.11.78,1.56,1.73,1L185,121.1a3.84,3.84,0,0,0,1.73-3v-21C186.7,96,185.93,95.5,185,96.06Z" style="fill:#407BFF"></path><path d="M172,112.82a5,5,0,0,1,1.87-4c1-.6,1.87.21,1.87,1.8a4.91,4.91,0,0,1-1.87,4C172.88,115.21,172,114.4,172,112.82Z" style="fill:#37474f"></path><path d="M177.23,121.07l-6.87,4,.37-4.57c.15-2,1.18-3.94,2.4-4.64l1.33-.77c1.22-.7,2.25.1,2.4,1.87Z" style="fill:#37474f"></path><path d="M176.87,107.91a5,5,0,0,1,1.87-4c1-.59,1.87.21,1.87,1.8a5,5,0,0,1-1.87,4C177.71,110.3,176.87,109.5,176.87,107.91Z" style="fill:#37474f"></path><path d="M182.06,116.17l-4.21,2.43-.19-2.19c-.14-1.53-.83-2.46-1.76-2.53a5.33,5.33,0,0,1,2.06-2.95l1.33-.77c1.22-.71,2.25.09,2.41,1.86Z" style="fill:#37474f"></path><path d="M185,170.9l-18.23,10.52a3.87,3.87,0,0,0-1.73,3v7.49l-5.32,5.51c-.76.8-.5,1.34.6,1.21l4.72-.56v7.38c0,1.11.78,1.56,1.73,1L185,195.94a3.84,3.84,0,0,0,1.73-3v-21C186.7,170.79,185.93,170.34,185,170.9Z" style="fill:#407BFF"></path><path d="M180.86,179l-9,5.19a3.75,3.75,0,0,0-1.41,3v7.74c0,1.2.64,1.81,1.41,1.36l6.86-4,1.79,1.72a.26.26,0,0,0,.34,0,.56.56,0,0,0,.19-.16,1.45,1.45,0,0,0,.31-.88v-2.35a4.23,4.23,0,0,0,.92-2.57v-7.74C182.28,179.12,181.64,178.51,180.86,179Zm-.49,11.61v1.14l-1.09-1.05a.28.28,0,0,0-.35,0l-7.06,4.08c-.23.13-.42-.05-.42-.41v-7.74a1.14,1.14,0,0,1,.42-.9l9-5.19c.24-.13.43.05.43.41v7.74a1.12,1.12,0,0,1-.43.9A1.29,1.29,0,0,0,180.37,190.57Z" style="fill:#37474f"></path><path d="M173.6,188.21a1.9,1.9,0,0,0-.71,1.51c0,.61.32.92.71.69a1.9,1.9,0,0,0,.71-1.51C174.31,188.29,174,188,173.6,188.21Z" style="fill:#37474f"></path><path d="M176.37,186.61a1.9,1.9,0,0,0-.71,1.51c0,.61.32.92.71.69a1.89,1.89,0,0,0,.71-1.51C177.08,186.69,176.76,186.39,176.37,186.61Z" style="fill:#37474f"></path><path d="M179.14,185a1.9,1.9,0,0,0-.71,1.51c0,.61.32.92.71.69a1.89,1.89,0,0,0,.71-1.51C179.85,185.09,179.53,184.79,179.14,185Z" style="fill:#37474f"></path><path d="M185,133.48,166.74,144a3.87,3.87,0,0,0-1.73,3v7.49L159.69,160c-.76.8-.5,1.34.6,1.21l4.72-.56V168c0,1.11.78,1.56,1.73,1L185,158.52a3.84,3.84,0,0,0,1.73-3v-21C186.7,133.37,185.93,132.92,185,133.48Z" style="fill:#407BFF"></path><path d="M179.39,143.36l-.07-.07a2.94,2.94,0,0,0-3.74-.21,10.06,10.06,0,0,0-3.64,4.3l-.08.18.18.17h0l-.22-.09a16.11,16.11,0,0,0-1.56,6.69,6.8,6.8,0,0,0,1.56,4.89,3,3,0,0,0,3.76.22,10.31,10.31,0,0,0,3.76-4.56,16.09,16.09,0,0,0,1.55-6.69A6.89,6.89,0,0,0,179.39,143.36Zm.46,5.51c0,3.22-1.53,6.79-3.59,8.48a5,5,0,0,1-.48.36l-.4.23a3.78,3.78,0,0,1-.48.2c-2.06.68-3.57-1.15-3.59-4.34v-.15a12.92,12.92,0,0,1,1.28-5.36l.07-.14a9.13,9.13,0,0,1,2.24-3,5.46,5.46,0,0,1,.48-.36l.2-.12.2-.11a3.26,3.26,0,0,1,.48-.2,2.2,2.2,0,0,1,2.32.48l.07.07a5.54,5.54,0,0,1,1.2,3.83l.25-.15h0Z" style="fill:#37474f"></path><path d="M179.15,143.91l-.07-.07h0l-.08-.07-.08.16a1.07,1.07,0,0,1-.07.15,13.77,13.77,0,0,1-.88,1.52.47.47,0,0,0-.09.12,8.59,8.59,0,0,1-1.4,1.56l-.1.08a5.63,5.63,0,0,1-.69.47,3.66,3.66,0,0,1-.88.38l-.1,0a2.44,2.44,0,0,1-1.37,0l-.09,0a2.45,2.45,0,0,1-.82-.53.23.23,0,0,1-.07-.07l-.08-.08-.08.17-.08.16L172,148l.08.08.07.07h0a2.6,2.6,0,0,0,.89.57l.1,0a2.58,2.58,0,0,0,1.46,0l.1,0a4,4,0,0,0,.94-.4,5.38,5.38,0,0,0,.73-.51l.1-.08a9,9,0,0,0,1.5-1.65.55.55,0,0,0,.09-.14,13.63,13.63,0,0,0,1-1.64c0-.05.05-.1.07-.16l.08-.16Z" style="fill:#37474f"></path><path d="M179.14,154.25l-.07-.07a2.69,2.69,0,0,0-1-.53l-.1,0a2.73,2.73,0,0,0-1.49.08l-.11,0a4,4,0,0,0-.73.35,6.27,6.27,0,0,0-.94.67l-.1.09a9.3,9.3,0,0,0-1.46,1.72l-.09.14a12.42,12.42,0,0,0-.9,1.61v0s-.05.1-.07.14l-.08.17.08.08.08.06.08.07.08-.16.07-.16a14.9,14.9,0,0,1,.82-1.48l.09-.13a9.26,9.26,0,0,1,1.37-1.61l.09-.09a5.67,5.67,0,0,1,.89-.64,4.26,4.26,0,0,1,.69-.32l.1,0a2.5,2.5,0,0,1,1.4-.07l.09,0a2.41,2.41,0,0,1,.88.49l.07.06.08.08.08-.16v0l.07-.14.07-.17Z" style="fill:#37474f"></path><path d="M177.41,144.85c-.48-1.19-1.13-1.62-1.83-1.22s-1.35,1.59-1.84,3.34a22.45,22.45,0,0,0-.73,5.77,13.93,13.93,0,0,0,.73,4.93c.49,1.19,1.14,1.62,1.84,1.22s1.35-1.59,1.83-3.34a22.45,22.45,0,0,0,.73-5.77A13.93,13.93,0,0,0,177.41,144.85Zm-1.83,13.54c-.6.34-1.17-.06-1.61-1.13a13.39,13.39,0,0,1-.68-4.68,21.31,21.31,0,0,1,.68-5.46c.44-1.58,1-2.64,1.61-3s1.17.06,1.6,1.13a13.36,13.36,0,0,1,.69,4.68,21.3,21.3,0,0,1-.69,5.46C176.75,157,176.18,158,175.58,158.39Z" style="fill:#37474f"></path><path d="M180.37,148.24l-9.58,5.53a.48.48,0,0,0-.17.37c0,.13.08.22.17.17l9.58-5.53a.48.48,0,0,0,.16-.37C180.53,148.27,180.46,148.19,180.37,148.24Z" style="fill:#37474f"></path><path d="M175.75,158.55V143.8c0-.14-.09-.21-.18-.15a.44.44,0,0,0-.17.35v14.75c0,.14.08.21.17.15A.45.45,0,0,0,175.75,158.55Z" style="fill:#37474f"></path><path d="M301.76,253.28l-18.23,10.53a3.82,3.82,0,0,0-1.73,3v7.49l-5.32,5.51c-.77.79-.5,1.34.6,1.21l4.72-.56v7.38c0,1.11.77,1.56,1.73,1l18.23-10.53a3.81,3.81,0,0,0,1.73-3v-21C303.49,253.18,302.72,252.73,301.76,253.28Z" style="fill:#455a64"></path><path d="M293.91,278.88a2.06,2.06,0,0,1-.93,1.6c-.51.29-.93.06-.93-.53v-1.06a1.83,1.83,0,0,1-2.27-.46c-.6-.78-.06-2.19.6-2.83s1.15-.59,1.61-.18a.81.81,0,0,0,1,0,2,2,0,0,0,1-1.82c0-1.35-1.06-.82-2.25-.64s-2.47-.05-2.47-2.83a7.2,7.2,0,0,1,2.58-5.79v-1.06a2.06,2.06,0,0,1,.94-1.6c.52-.3.94-.06.94.52v1.06a1.83,1.83,0,0,1,2,.3c.69.69.23,2.1-.4,2.72a1.2,1.2,0,0,1-1.59.28,1,1,0,0,0-1,.16,2,2,0,0,0-1.06,1.78c0,1,.58.95,1.84.7s3-.49,3,2.68a7.58,7.58,0,0,1-2.72,6Z" style="fill:#fafafa"></path><path d="M301.76,178.44,283.53,189a3.84,3.84,0,0,0-1.73,3v7.49L276.48,205c-.77.8-.5,1.34.6,1.21l4.72-.56V213c0,1.11.77,1.56,1.73,1l18.23-10.53a3.81,3.81,0,0,0,1.73-3v-21C303.49,178.34,302.72,177.89,301.76,178.44Z" style="fill:#455a64"></path><path d="M293.24,186.92l-5.31,5.9v5.1c0,2.88,1.85,6.93,5.18,6.69h.13l.13-.15a22.42,22.42,0,0,0,5.18-12.66v-5.1Zm4.46,5.36a20.09,20.09,0,0,1-4.44,10.91l0-14.88,4.46-.2Z" style="fill:#fafafa"></path><path d="M301.76,215.86l-18.23,10.53a3.84,3.84,0,0,0-1.73,3v7.49l-5.32,5.51c-.77.8-.5,1.34.6,1.21l4.72-.56v7.38c0,1.11.77,1.56,1.73,1l18.23-10.53a3.81,3.81,0,0,0,1.73-3v-21C303.49,215.76,302.72,215.31,301.76,215.86Z" style="fill:#455a64"></path><path d="M296.92,229.69l-7.36,4.24a2.4,2.4,0,0,0-.91,1.92v7.56c0,.78.41,1.17.91.88l7.36-4.25a2.4,2.4,0,0,0,.91-1.92v-7.56C297.83,229.79,297.42,229.4,296.92,229.69Zm-5,10.41.83-2.73c-.56-.17-.82-1.21-.27-2.64.94-1.64,2-1.23,2,.14a3.45,3.45,0,0,1-.57,1.85l.84,1.77Z" style="fill:#fafafa"></path><path d="M295.88,229.77l-1,.56v-3.46c0-1.44-.76-2.18-1.7-1.64a4.53,4.53,0,0,0-1.71,3.61v3.45l-1,.56V229.4c0-2.27,1.19-4.81,2.67-5.66s2.67.31,2.67,2.58Z" style="fill:#fafafa"></path><path d="M452.07,121.37,433.85,131.9a3.82,3.82,0,0,0-1.73,3v7.49l-5.32,5.51c-.77.8-.5,1.34.6,1.21l4.72-.55v7.38c0,1.1.77,1.55,1.73,1l18.22-10.53a3.83,3.83,0,0,0,1.74-3v-21C453.81,121.27,453,120.82,452.07,121.37Z" style="fill:#407BFF"></path><path d="M436.47,138.12l6.66,3.88c.21.12.5-.05.71-.42L450.5,130v10.49a1.56,1.56,0,0,1-.6,1.26l-12.83,7.41c-.33.19-.6-.07-.6-.57Z" style="fill:#37474f"></path><path d="M443.13,140.44l-6.66-3.64,14-8.1L443.84,140C443.63,140.39,443.34,140.55,443.13,140.44Z" style="fill:#37474f"></path><path d="M452.07,158.79l-18.22,10.53a3.82,3.82,0,0,0-1.73,3v7.49l-5.32,5.51c-.77.8-.5,1.34.6,1.21l4.72-.55v7.38c0,1.1.77,1.55,1.73,1l18.22-10.53a3.83,3.83,0,0,0,1.74-3v-21C453.81,158.69,453,158.24,452.07,158.79Z" style="fill:#407BFF"></path><path d="M448.87,173.21l-.12.07v-1.09c0-2.45-1.29-3.69-2.87-2.77a4.72,4.72,0,0,0-1.8,2.48c-.28-2.09-1.56-3.05-3.11-2.16-1.91,1.11-3.45,4.38-3.45,7.31v2.71h0c-1.21.7-2.19,2.78-2.19,4.65s1,2.81,2.19,2.11L448.87,180c1.21-.7,2.2-2.78,2.2-4.64S450.08,172.51,448.87,173.21Zm-4.42,3.43v4l-2.52,1.46v-4l-1.3.76,2.56-5.34,2.56,2.38Z" style="fill:#37474f"></path><path d="M452.07,84,433.85,94.48a3.82,3.82,0,0,0-1.73,3V105l-5.32,5.52c-.77.79-.5,1.33.6,1.2l4.72-.55v7.38c0,1.1.77,1.55,1.73,1L452.07,109a3.83,3.83,0,0,0,1.74-3V85C453.81,83.85,453,83.4,452.07,84Z" style="fill:#407BFF"></path><path d="M450.42,100h0a.29.29,0,0,0-.1,0l-1.4-.08a.21.21,0,0,1-.23-.22c0-.22,0-.44,0-.65s0-.47,0-.7a.72.72,0,0,1,.15-.41L450.39,96a.42.42,0,0,0,.1-.38L449.74,94a.07.07,0,0,0,0,0h0c-.06,0-.15,0-.24.08l-1.66,1.52a.31.31,0,0,1-.37.06,2.42,2.42,0,0,0-.71-.42.28.28,0,0,1-.17-.29l.52-2.33a.14.14,0,0,0-.07-.16.38.38,0,0,0-.16,0l-1.62.16a.47.47,0,0,0-.36.25L444,95.14a.8.8,0,0,1-.36.34,7.13,7.13,0,0,0-1,.59c-.13.09-.29.09-.34,0l-.84-1.27c-.06-.09-.19-.07-.3,0l-1.78,1.89a.47.47,0,0,0-.14.39l.49,1.69a.52.52,0,0,1-.09.4,13.54,13.54,0,0,0-.82,1.43.66.66,0,0,1-.39.29l-1.53.37a.49.49,0,0,0-.34.28l-.77,2.59c0,.13.05.23.19.24l1.4.08a.22.22,0,0,1,.23.22,7.61,7.61,0,0,0,0,1.35.69.69,0,0,1-.15.41l-1.56,1.89a.43.43,0,0,0-.1.39l.74,1.63a.08.08,0,0,0,.05.05h.07a.34.34,0,0,0,.18-.08l1.66-1.52a.29.29,0,0,1,.36-.07,2.61,2.61,0,0,0,.72.42.26.26,0,0,1,.16.29l-.51,2.33a.13.13,0,0,0,.07.16h0a.24.24,0,0,0,.15,0l1.63-.16a.49.49,0,0,0,.36-.25l.88-2.37a.8.8,0,0,1,.36-.34q.25-.12.51-.27l.49-.31c.14-.1.29-.1.35,0l.84,1.27a.08.08,0,0,0,0,0c.06,0,.17,0,.26-.08l1.78-1.89a.47.47,0,0,0,.14-.39l-.5-1.68a.63.63,0,0,1,.09-.41,13.62,13.62,0,0,0,.83-1.43.61.61,0,0,1,.39-.28l1.52-.37a.52.52,0,0,0,.35-.29l.77-2.59A.19.19,0,0,0,450.42,100Zm-8.16,6.33-.09,0h-.07l-.14,0-.17,0h-.15a1.62,1.62,0,0,1-1.54-1,3.12,3.12,0,0,1-.22-.85,2.43,2.43,0,0,1,0-.47,7.28,7.28,0,0,1,2-4.63,5.5,5.5,0,0,1,1.24-1,3.17,3.17,0,0,1,.41-.21,2.48,2.48,0,0,1,1.15-.24h.19a1.62,1.62,0,0,1,1.28,1c.69,1.53-.1,4.19-1.76,6A4.64,4.64,0,0,1,442.26,106.32Z" style="fill:#37474f"></path></g><g id="freepik--character-3--inject-326"><g id="freepik--Card--inject-326"><path d="M319.28,306.62l-5.83-3.37a4.78,4.78,0,0,1-2.17-3.75V147.94a4.78,4.78,0,0,1,2.17-3.75l94-54.25a4.81,4.81,0,0,1,4.34,0l5.83,3.37a4.78,4.78,0,0,1,2.17,3.75V248.62a4.78,4.78,0,0,1-2.17,3.75l-94,54.25A4.81,4.81,0,0,1,319.28,306.62Z" style="fill:#f0f0f0"></path><path d="M311.59,146.5a.19.19,0,0,1,0-.07Z" style="fill:#407BFF"></path><path d="M311.38,147.15a3.79,3.79,0,0,1,.21-.65A3.79,3.79,0,0,0,311.38,147.15Z" style="fill:#407BFF"></path><path d="M419.75,97.06c0-1.38-1-1.94-2.17-1.25l-94,54.25a4.38,4.38,0,0,0-1.54,1.62l-10.16-5.88a6.11,6.11,0,0,0-.31.63,4.76,4.76,0,0,1,1.84-2.25l94-54.25a4.85,4.85,0,0,1,4.33,0l5.83,3.38A4.78,4.78,0,0,1,419.75,97.06Z" style="fill:#fafafa"></path><path d="M328.23,161.24v101.5c0,1.15.81,1.61,1.8,1l79.41-45.85a4,4,0,0,0,1.8-3.13V113.3c0-1.15-.81-1.62-1.8-1L330,158.11A4,4,0,0,0,328.23,161.24Z" style="fill:#fafafa"></path><path d="M323.11,306.85a2.29,2.29,0,0,1-.37.12l-.42.1a5.14,5.14,0,0,1-1.75,0l-.55-.13-.26-.09a3.54,3.54,0,0,1-.48-.23l-5.83-3.37a4.78,4.78,0,0,1-2.17-3.75V147.94a3.06,3.06,0,0,1,.1-.79,5,5,0,0,1,.54-1.35l10.16,5.88a4.4,4.4,0,0,0-.63,2.13V305.37C321.45,306.56,322.15,307.14,323.11,306.85Z" style="fill:#e0e0e0"></path><path d="M346.25,268.51l1.1,2.33a.26.26,0,0,0,.36.14l2.45-.94c.39-.15.55.4.27.93l-1.78,3.33a1.19,1.19,0,0,0-.14.64l.42,3c.07.48-.34,1.11-.69,1.06l-2.19-.27a.52.52,0,0,0-.44.26l-2.2,2.8c-.35.45-.75.29-.69-.27l.42-3.5a.5.5,0,0,0-.13-.48l-1.78-1.28c-.28-.21-.13-.94.26-1.24l2.46-1.89a1.07,1.07,0,0,0,.35-.55l1.1-3.6C345.58,268.43,346.08,268.14,346.25,268.51Z" style="fill:#37474f"></path><path d="M358.64,261.36l1.1,2.33a.25.25,0,0,0,.35.14l2.46-.94c.39-.15.54.4.26.93L361,267.15a1,1,0,0,0-.14.64l.42,3c.06.47-.34,1.1-.69,1.06l-2.2-.27a.55.55,0,0,0-.44.25l-2.19,2.81c-.35.45-.76.29-.69-.27l.42-3.5a.53.53,0,0,0-.14-.48l-1.77-1.28c-.29-.21-.13-.94.26-1.24l2.45-1.89a1.09,1.09,0,0,0,.36-.55l1.1-3.6C358,261.28,358.47,261,358.64,261.36Z" style="fill:#37474f"></path><path d="M371,254.21l1.09,2.33a.26.26,0,0,0,.36.14l2.45-.94c.39-.15.55.4.27.93L373.42,260a1.19,1.19,0,0,0-.14.64l.42,3c.07.48-.34,1.11-.69,1.07l-2.19-.27a.54.54,0,0,0-.44.25l-2.2,2.81c-.35.44-.75.29-.69-.27l.42-3.5a.5.5,0,0,0-.13-.48L366,262c-.28-.21-.13-.94.26-1.24l2.46-1.89a1.2,1.2,0,0,0,.36-.55l1.09-3.6C370.35,254.13,370.85,253.84,371,254.21Z" style="fill:#37474f"></path><path d="M383.41,247.06l1.1,2.33a.27.27,0,0,0,.36.14l2.45-.94c.39-.15.54.4.26.93l-1.77,3.33a1.1,1.1,0,0,0-.14.64l.42,3c.07.48-.34,1.11-.69,1.07l-2.19-.27a.55.55,0,0,0-.45.25l-2.19,2.81c-.35.44-.76.28-.69-.27l.42-3.5a.5.5,0,0,0-.14-.48l-1.77-1.29c-.29-.2-.13-.93.26-1.23l2.45-1.89a1.13,1.13,0,0,0,.36-.55l1.1-3.6C382.73,247,383.24,246.69,383.41,247.06Z" style="fill:#37474f"></path><path d="M395.8,239.91l1.09,2.33a.27.27,0,0,0,.36.14l2.45-.94c.39-.15.55.4.27.92l-1.78,3.34a1.09,1.09,0,0,0-.13.64l.42,3c.06.48-.35,1.11-.69,1.07l-2.2-.27a.54.54,0,0,0-.44.25l-2.2,2.81c-.34.44-.75.28-.68-.27l.41-3.5a.5.5,0,0,0-.13-.48l-1.78-1.29c-.28-.2-.12-.93.27-1.23l2.45-1.89a1.2,1.2,0,0,0,.36-.55l1.09-3.6C395.12,239.83,395.62,239.54,395.8,239.91Z" style="fill:#37474f"></path><g style="clip-path:url(#freepik--clip-path--inject-326)"><path d="M384.52,170.72c2.06-.36,4.83.19,8.4,3.55,3.09,2.91,8.93,12.72,9.86,14.46s-13.64,27.08-13.64,27.08l-2.66-7,7.6-18.14-7.22-7.85Z" style="fill:#9a4a4d"></path><path d="M381,170.23s4.93-.87,8.71.85c2.5,1.13,12,10.87,13.51,13.08s1.07,2.87.38,4.79c-.48,1.34-1.24,2.62-4.44,8.93-2.06,4.06-6.32,11.38-6.32,11.38l-4.53-4.33,5.36-14-6.81-8.12Z" style="fill:#407BFF"></path><path d="M381,170.23s4.93-.87,8.71.85c2.5,1.13,12,10.87,13.51,13.08s1.07,2.87.38,4.79c-.48,1.34-1.24,2.62-4.44,8.93-2.06,4.06-6.32,11.38-6.32,11.38l-4.53-4.33,5.36-14-6.81-8.12Z" style="opacity:0.1"></path><polygon points="356.43 314.81 362.97 313.65 362.97 302.45 356.43 303.61 356.43 314.81" style="fill:#b16668"></polygon><polygon points="383.2 301.61 389.74 300.68 390.07 288.76 383.2 289.75 383.2 301.61" style="fill:#b16668"></polygon><path d="M357.35,223.46c0,6.25-.43,42.67-.43,42.67-.16,1.82-1.89,5.32-2,11.83-.2,9.42,1.25,31.3,1.25,31.3s3.18,1.29,7.29-1.14c0,0,5.14-32.21,6.31-41.71,1-8.3,5.05-27.93,5.05-27.93l4.51,23.89a39.22,39.22,0,0,0-.82,10.55c.31,4.24,4.29,25.09,4.29,25.09s3.08,1.54,7.56-.76c0,0,.39-33.88.47-37.84.08-4.52-1.88-42.87-1.88-42.87Z" style="fill:#37474f"></path><path d="M363,310.42v-.93c.35-.07.57.24.71,1.06a14.82,14.82,0,0,0,.38,1.78,17.84,17.84,0,0,0,1.14,3.15c.93,2.12,1.7,2.83,3.82,5.12a20,20,0,0,1,2,2c.4.64.54,2.57-.13,3.14A12.48,12.48,0,0,1,362,328.2a4.24,4.24,0,0,1-3.85-3.65c-.1-.59-.07-1.21-.14-1.8a7.15,7.15,0,0,0-1.63-3.52,8.57,8.57,0,0,1-1.26-1.84c-.55-1.25-.11-2.84.24-4.24.3-1.22.63-2.55,1-2.51v.72a4.58,4.58,0,0,0,3.27.53C360.66,311.75,363,311.15,363,310.42Z" style="fill:#263238"></path><path d="M389.81,298.65c.34,0,.61.38,1.36,1.06A11.47,11.47,0,0,0,395,301.8c2.45.79,7.22,1.84,9.38,2.43,1.34.37,1.28,2-.11,3.18s-4.76,2.43-8.79,2.24c-2.2-.1-5.07-1.63-6.88-1.2s-5.2,1-6.54.32-.8-2.75-.42-4.51c.41-1.92.93-4.89,1.54-4.87V300c.78,1.06,4.84.82,6.57-.36Z" style="fill:#263238"></path><path d="M374.3,235.82a30.6,30.6,0,0,0,9.12-6.83s-1.76,3.6-7,7.59L379,260.53Z" style="fill:#263238"></path><path d="M368.7,173.51c-2.23.93-6.72,2.45-7.73,7.07-1.21,5.54-1.6,17.21-1.6,17.21L359,223.68c4.51,2.49,21.06,1.36,30.55-7.24,0,0-1.17-30.8-1.17-35.62s-2.68-10.15-10.08-9.28Z" style="fill:#f5f5f5"></path><path d="M378.16,171.06a10.44,10.44,0,0,1,4.23,5.8c.9,3.75,1,47.32,1,47.32s4.63-1.68,6.8-3.76c0,0-.28-34.36-.72-40-.67-8.51-.6-11-11.35-10Z" style="fill:#407BFF"></path><path d="M366.75,172.43s6.16,2.71,6.23,17.8c.06,13,.5,35.7.5,35.7s-10.21,3.3-16.68.58c0,0-.77-31.52-.65-36.45.14-5.63,1.45-13.12,3.25-14.16A62.74,62.74,0,0,1,366.75,172.43Z" style="fill:#407BFF"></path><polygon points="366.05 180.81 368.88 183.81 367.47 188.04 371.18 196.9 366.7 188.17 368.27 184.14 366.05 180.81" style="opacity:0.1"></polygon><polygon points="385.98 176.17 385.37 179.9 387.81 182.65 384.41 193.96 387.04 182.9 384.79 180.32 385.98 176.17" style="opacity:0.1"></polygon><ellipse cx="379.29" cy="150.13" rx="9.82" ry="8.24" transform="translate(12.42 328.47) rotate(-47.52)" style="fill:#263238"></ellipse><path d="M363.74,159.27s1.46,6.59,2,7.61a2.49,2.49,0,0,0,1.79,1.13l-.1-4.8Z" style="fill:#263238"></path><path d="M365.57,149.14a4,4,0,0,0-2.8,1.47c-1.2,1.44-.53,5.16,1,8.66l2.74-.17Z" style="fill:#263238"></path><path d="M367.31,159c-.55.42-1.34-.5-2-1.09s-2.89-1.17-4,1.36,1,5.34,2.72,5.58c3,.41,3.46-1.6,3.46-1.6l.22,11.14h0c2.08,2.3,6.75,4.61,9.27,3.72,2-.71,2.44-4.18.52-6.06v-3.3a19.29,19.29,0,0,0,4-.51c2.21-.73,3.6-2.72,4.27-5.24,1.08-4,1.49-7.21.58-14.61-1-8.11-10.65-6.49-15.85-2.3S367.31,159,367.31,159Z" style="fill:#b16668"></path><path d="M367.31,159.88c-.28.06-1.33-1.5-2-2-1-.69.28-8.73.28-8.73a3.93,3.93,0,0,1,.65-4.34c1.3-1.67,3.12-3.73,9-4.08,4.21-.24,8.79.26,12.49-2.21a7.21,7.21,0,0,1-2.2,7.08,15.08,15.08,0,0,1-4.86,2.15,53.91,53.91,0,0,1-9.76,1.54c-1,0-1.24,1.06-1.79,3.87C368.64,155.61,368.24,159.7,367.31,159.88Z" style="fill:#263238"></path><path d="M365.57,149.74l-3.33-1.2a2.13,2.13,0,0,1,2.52-1.27A1.74,1.74,0,0,1,365.57,149.74Z" style="fill:#263238"></path><path d="M377.48,168.71s-4.94-.13-6.67-.74a4.43,4.43,0,0,1-2.38-1.94,6.28,6.28,0,0,0,1.35,2.54c1.27,1.39,7.7,1.45,7.7,1.45Z" style="fill:#9a4a4d"></path><path d="M376.29,156.14a1.25,1.25,0,0,1-1,1.2.83.83,0,0,1-1-.86,1.25,1.25,0,0,1,1-1.2A.83.83,0,0,1,376.29,156.14Z" style="fill:#263238"></path><path d="M375.24,152.59l-2.12,1.54a1.42,1.42,0,0,1,.5-1.77A1.07,1.07,0,0,1,375.24,152.59Z" style="fill:#263238"></path><path d="M377,162.84l2.26.45a1.44,1.44,0,0,1-1.54,1A1.07,1.07,0,0,1,377,162.84Z" style="fill:#9a4a4d"></path><path d="M385.11,151.67l-1.93-1.14a1.29,1.29,0,0,1,1.68-.56A1.21,1.21,0,0,1,385.11,151.67Z" style="fill:#263238"></path><path d="M384.52,154.41a1.27,1.27,0,0,1-1,1.2.83.83,0,0,1-1-.86,1.24,1.24,0,0,1,1-1.2A.83.83,0,0,1,384.52,154.41Z" style="fill:#263238"></path><polygon points="379.48 154.36 379.8 160.25 382.91 158.64 379.48 154.36" style="fill:#9a4a4d"></polygon><path d="M380.55,176.75c-.61,1.55-1.73,2.33-3.75,2.92a6.65,6.65,0,0,1-5.62-1l2.53-3,3.2,1.85.27-2.74Z" style="fill:#407BFF"></path><path d="M380.55,176.75c-.61,1.55-1.73,2.33-3.75,2.92a6.65,6.65,0,0,1-5.62-1l2.53-3,3.2,1.85.27-2.74Z" style="opacity:0.1"></path><path d="M379,176.24a6.23,6.23,0,0,1,.33,2.65,5.48,5.48,0,0,1-.9,2.41,2.78,2.78,0,0,1-2.18.62,4.92,4.92,0,0,1-2.08-4.15l2.78-.17Z" style="fill:#407BFF"></path><path d="M378.39,181.3s3.29,17.55,3.42,19-1.89,7-3.14,7.26-3.71-4-3.75-5.33,1.29-20.3,1.29-20.3Z" style="fill:#407BFF"></path><path d="M376.21,181.92a2.32,2.32,0,0,0,2.18-.62l.05.27a2.86,2.86,0,0,1-2.26.85Z" style="opacity:0.1"></path><path d="M376.91,177.6l-9.26-5.42,0-2.09s-2.15,1.2-2.64,5.08a12.72,12.72,0,0,0,7.22,6.41l1.94-3.81Z" style="fill:#e0e0e0"></path><path d="M377.48,169.31a3.83,3.83,0,0,1,3,1.31c.93,1.37.72,7.24.72,7.24L379,176.24l-2,1.36c.19-2,.57-5.59.57-5.59Z" style="fill:#e0e0e0"></path><path d="M352.44,223c.76.66,1.34,1.46,2.78,2.87a8.13,8.13,0,0,0,2.26,1.79,11.51,11.51,0,0,0,3.56,1,9.63,9.63,0,0,0,4.87-.8,7.38,7.38,0,0,0,2.37-1.68,4.72,4.72,0,0,0,1.25-2.56,1,1,0,0,0,0-.53c-.13-.29-.47-.38-.77-.45a47.84,47.84,0,0,1-5.3-1.1c-1.38-.49-2.25-1-2-1.2s1.07.18,2.43,0,2.58-1.2,2.53-1.92-.06-.58-1.39-.57a32.87,32.87,0,0,0-4.34-.23,9.61,9.61,0,0,1-3.75-.29c-2.74-.6-10.36-10.81-10.36-10.81l13.23-17.24s3.31-7-.51-12.85c0,0-1.69.46-5,4S338,206,337.16,207.29s-.61,3,.94,4.57S352.44,223,352.44,223Z" style="fill:#9a4a4d"></path><path d="M360,175.57s4.37,7.17,0,14-12.68,16.77-12.68,16.77l7.24,9.35-4.07,5.86s-12.82-9-13.86-10.13-1.19-1.74,0-4.63S352.44,177.23,360,175.57Z" style="fill:#407BFF"></path><path d="M360,175.57s4.37,7.17,0,14-12.68,16.77-12.68,16.77l7.24,9.35-4.07,5.86s-12.82-9-13.86-10.13-1.19-1.74,0-4.63S352.44,177.23,360,175.57Z" style="opacity:0.1"></path></g></g></g><g id="freepik--character-2--inject-326"><g id="freepik--card--inject-326"><path d="M169,401.12l-5.83-3.37A4.78,4.78,0,0,1,161,394V242.44a4.78,4.78,0,0,1,2.17-3.76l94-54.25a4.81,4.81,0,0,1,4.34,0l5.83,3.37a4.78,4.78,0,0,1,2.17,3.75V343.11a4.78,4.78,0,0,1-2.17,3.75l-94,54.26A4.81,4.81,0,0,1,169,401.12Z" style="fill:#407BFF"></path><path d="M161.27,241a.14.14,0,0,0,0-.06Z" style="fill:#407BFF"></path><path d="M161.06,241.64a4.09,4.09,0,0,1,.21-.65A3.79,3.79,0,0,0,161.06,241.64Z" style="fill:#407BFF"></path><path d="M269.43,191.56c0-1.39-1-1.95-2.17-1.26l-94,54.25a4.54,4.54,0,0,0-1.54,1.62L161.6,240.3a6.14,6.14,0,0,0-.31.63,4.72,4.72,0,0,1,1.84-2.25l94-54.25a4.79,4.79,0,0,1,4.33,0l5.83,3.37A4.78,4.78,0,0,1,269.43,191.56Z" style="fill:#fff;opacity:0.4"></path><path d="M177.91,255.73v101.5c0,1.15.81,1.62,1.81,1l79.4-45.85a4,4,0,0,0,1.8-3.12V207.8c0-1.16-.8-1.62-1.8-1.05l-79.4,45.85A4,4,0,0,0,177.91,255.73Z" style="fill:#fafafa"></path><path d="M172.79,401.34l-.37.13-.41.09a5.2,5.2,0,0,1-1.76,0,5.47,5.47,0,0,1-.55-.13l-.26-.09a3.51,3.51,0,0,1-.48-.22l-5.83-3.37A4.79,4.79,0,0,1,161,394V242.43a3.11,3.11,0,0,1,.1-.79,5.16,5.16,0,0,1,.54-1.34l10.16,5.87a4.44,4.44,0,0,0-.63,2.14V399.86C171.13,401.05,171.83,401.63,172.79,401.34Z" style="opacity:0.1"></path><path d="M195.94,363l1.09,2.33a.26.26,0,0,0,.36.14l2.45-.94c.39-.15.55.4.27.93l-1.78,3.33a1.09,1.09,0,0,0-.13.64l.42,3c.06.48-.35,1.11-.69,1.07l-2.2-.28a.55.55,0,0,0-.44.26l-2.2,2.81c-.34.44-.75.28-.68-.27l.41-3.5a.51.51,0,0,0-.13-.49l-1.78-1.28c-.28-.2-.12-.93.27-1.23l2.45-1.89a1.19,1.19,0,0,0,.36-.56l1.09-3.59C195.26,362.92,195.76,362.63,195.94,363Z" style="fill:#455a64"></path><path d="M208.32,355.85l1.1,2.33a.26.26,0,0,0,.36.14l2.45-.94c.39-.15.55.4.26.93l-1.77,3.33a1.19,1.19,0,0,0-.14.64l.42,3c.07.48-.34,1.11-.69,1.06l-2.19-.27a.54.54,0,0,0-.44.26l-2.2,2.8c-.35.45-.76.29-.69-.27l.42-3.5a.48.48,0,0,0-.14-.48l-1.77-1.28c-.28-.2-.13-.93.26-1.23L206,360.5a1.17,1.17,0,0,0,.35-.56l1.1-3.6C207.64,355.77,208.15,355.48,208.32,355.85Z" style="fill:#455a64"></path><path d="M220.71,348.7l1.1,2.33a.25.25,0,0,0,.35.14l2.46-.94c.39-.15.54.4.26.93l-1.78,3.33a1.09,1.09,0,0,0-.13.64l.42,3c.06.48-.34,1.11-.69,1.06l-2.2-.27a.55.55,0,0,0-.44.26l-2.19,2.8c-.35.45-.76.29-.69-.27l.42-3.5a.53.53,0,0,0-.14-.48l-1.78-1.28c-.28-.2-.12-.93.27-1.23l2.45-1.9a1,1,0,0,0,.36-.55l1.1-3.6C220,348.62,220.53,348.33,220.71,348.7Z" style="fill:#455a64"></path><path d="M233.09,341.55l1.1,2.33a.26.26,0,0,0,.36.14l2.45-.94c.39-.15.55.4.27.93l-1.78,3.33a1.19,1.19,0,0,0-.14.64l.42,3c.07.48-.34,1.11-.69,1.06l-2.19-.27a.52.52,0,0,0-.44.26l-2.2,2.8c-.35.45-.75.29-.69-.27l.42-3.5a.5.5,0,0,0-.13-.48l-1.78-1.28c-.28-.21-.13-.93.26-1.23l2.46-1.9a1.14,1.14,0,0,0,.35-.55l1.1-3.6C232.42,341.47,232.92,341.18,233.09,341.55Z" style="fill:#455a64"></path><path d="M245.48,334.4l1.1,2.33a.25.25,0,0,0,.35.14l2.46-.94c.39-.15.54.4.26.93l-1.77,3.33a1,1,0,0,0-.14.64l.42,3c.06.48-.34,1.11-.69,1.06l-2.2-.27a.54.54,0,0,0-.44.26l-2.19,2.8c-.35.45-.76.29-.69-.27l.42-3.5a.53.53,0,0,0-.14-.48l-1.77-1.28c-.29-.21-.13-.93.26-1.24l2.45-1.89a1.09,1.09,0,0,0,.36-.55l1.1-3.6C244.8,334.32,245.31,334,245.48,334.4Z" style="fill:#455a64"></path><g style="clip-path:url(#freepik--clip-path-2--inject-326)"><g id="freepik--Character--inject-326"><path d="M226.64,270c4.76-.52,6.89-.53,10.07,2.43,2.82,2.61,10.46,10.86,11.37,12.4s-12.23,26.83-12.23,26.83l-2.62-6.45,6.23-15.83-10.2-7.71Z" style="fill:#ffa8a7"></path><path d="M206.82,247.89l-3.49-1.25A2.23,2.23,0,0,1,206,245.3,1.82,1.82,0,0,1,206.82,247.89Z" style="fill:#263238"></path><path d="M206.88,246.86l-1.12-3.6a1.66,1.66,0,0,1,2.48.83A2.49,2.49,0,0,1,206.88,246.86Z" style="fill:#263238"></path><path d="M234.64,267.36,217,270.47c-7.11,1.26-12.88-3.49-12.88-10.61v-3.13c-.23-8.39,6.46-16.59,14.89-18.31h0c8.43-1.72,15.45,3.69,15.68,12.09Z" style="fill:#263238"></path><path d="M228.59,243.31a16.27,16.27,0,0,1-6.5,11.08c-4.61,3.51-8.12,4.09-8.12,4.09s-1.17-4.16,2.15-9.77,7.21-7.18,9.59-7.13A2.86,2.86,0,0,1,228.59,243.31Z" style="fill:#407BFF"></path><polygon points="209.06 411.01 216.01 409.96 216.01 401.1 209.06 402.15 209.06 411.01" style="fill:#ffa8a7"></polygon><path d="M227.35,405.34c.37,1,2.19,1.56,3.51,2.32a2.31,2.31,0,0,1,.84,3.07c-.5.94-2.83,1.8-5.31,1.83-2.81,0-5.75-.93-6.26-3.33a23.85,23.85,0,0,0-1.66-5.79c-.48-1.2-1.33-2.25-1.14-3.57a6,6,0,0,1,2.11-3.36s5.12,9.85,6.41,9.86A1.39,1.39,0,0,0,227.35,405.34Z" style="fill:#263238"></path><path d="M227.56,391.36l-1.3,4.82a26.5,26.5,0,0,0,.73,8.36,3.34,3.34,0,0,0,1.54,2s1.86,1.29-.3,2a5.36,5.36,0,0,1-5.42-1c-1.43-1.39-1.61-6-2.57-7.79-.62-1.12-1.07-1.81-1.23-2.18s.43-.7,1-2.55a40.48,40.48,0,0,0,1.06-5.4Z" style="fill:#ffa8a7"></path><path d="M205.59,315.27c-3,8.54-.64,22.17.35,32.8.87,9.25,2,17.05,2,17.05a34.43,34.43,0,0,0-1.63,11.56C206.44,384,209,404,209,404a7.38,7.38,0,0,0,7.1-1.08s1-12.35,2-20.93c1-9,1.39-15.42,2.29-20.71,1.13-6.59,1.82-27.07,1.82-27.07L227.29,355a68,68,0,0,0-3.62,10.45c-1.34,5.43-3.28,27.17-3.28,27.17a6.61,6.61,0,0,0,6.64,1.45s11.09-34.53,12.3-38.1c1.68-4.89-1.69-35.26-2.62-45.23Z" style="fill:#37474f"></path><path d="M222.2,334.19l.41-5.27a16.26,16.26,0,0,0,8-3.72,14.85,14.85,0,0,1-6.15,4.84l-.5,4.83,2.22,15.71Z" style="fill:#263238"></path><path d="M213.91,273.91a44.39,44.39,0,0,0-5,1.88c2.65,5.77-.92,14.43-.92,14.43l3.6,12.2a28.4,28.4,0,0,0-6,12.82c2.26,2.21,16.12,5.93,31.11-4.5,0,0-1.37-9.6-2-15.31,2.25-9.8,1.69-11.72,1.05-14.09-1.81-6.67-3.73-7.5-9.17-11.31l-3.31.58Z" style="fill:#407BFF"></path><path d="M216,407v-.88a13.41,13.41,0,0,0,4.35,6.86c1.92,1.41,4.54,3,5.2,4.8s-3.09,3.38-5.57,3.57a8.3,8.3,0,0,1-6.25-2.16,37.79,37.79,0,0,1-3.15-3.67c-.73-.86-2.43-1.68-2.83-2.76a7.71,7.71,0,0,1,.35-3.26c.28-1.12.59-2.36.95-2.32v.66a4.28,4.28,0,0,0,3.05.49C213,408.17,216,407.63,216,407Z" style="fill:#263238"></path><path d="M209.06,407.8a4.28,4.28,0,0,0,3.05.49c.89-.12,3.9-.66,3.9-1.33v-.87a13.43,13.43,0,0,0,4.35,6.85l1.46,1c1,1,.73,2-1.67,2.63a7.85,7.85,0,0,1-7.19-2.38C211.14,412.32,209.06,407.8,209.06,407.8Z" style="fill:#ffa8a7"></path><g style="opacity:0.1"><polygon points="209.52 295.41 216.87 303.89 211.59 302.42 209.52 295.41"></polygon></g><path d="M228.59,243.31c1.64.62,3.74,4.25,3.78,12.75,0,7.21-2.26,9.45-3.42,10.2s-3.43.9-5.64,1l0,3.36s4,3.25,3.85,5.27-5.07,3.91-8,2.56a18.06,18.06,0,0,1-5.29-4.25l-.32-10.27s-1.26,1.51-3.51.05a3.8,3.8,0,0,1-1.17-5.46c1.38-1.71,4-1.85,5.05,0,0,0,3.51-.59,8.11-4.09A16.32,16.32,0,0,0,228.59,243.31Z" style="fill:#ffa8a7"></path><path d="M223.39,256.3a1.13,1.13,0,0,1-.83,1.15.76.76,0,0,1-1-.7,1.13,1.13,0,0,1,.83-1.15A.76.76,0,0,1,223.39,256.3Z" style="fill:#263238"></path><path d="M223.8,262.33l2.12.24a1.34,1.34,0,0,1-1.35,1A1,1,0,0,1,223.8,262.33Z" style="fill:#f28f8f"></path><path d="M230.74,252l-1.87-.89a1.23,1.23,0,0,1,1.52-.63A1.08,1.08,0,0,1,230.74,252Z" style="fill:#263238"></path><path d="M221.68,252.83l-1.38,1.54a1.21,1.21,0,0,1-.17-1.63A1.06,1.06,0,0,1,221.68,252.83Z" style="fill:#263238"></path><path d="M230.38,254.22a1.14,1.14,0,0,1-.84,1.15.75.75,0,0,1-1-.7,1.14,1.14,0,0,1,.83-1.15A.77.77,0,0,1,230.38,254.22Z" style="fill:#263238"></path><polygon points="226.27 254.09 226.38 259.97 229.23 258.5 226.27 254.09" style="fill:#f28f8f"></polygon><path d="M223.31,267.25c-2.32.17-7.13-.23-7.92-1.95a3.82,3.82,0,0,0,1.74,2.05c1.45.93,6.2,1.35,6.2,1.35Z" style="fill:#f28f8f"></path><path d="M202.72,319.59c.71.48,1.24,1.13,2.57,2.2a6,6,0,0,0,2.08,1.28,9.86,9.86,0,0,0,3.29.31,10,10,0,0,0,4.49-1.53,8.76,8.76,0,0,0,2.19-1.94,5.41,5.41,0,0,0,1.16-2.57.94.94,0,0,0,0-.48c-.12-.24-.43-.27-.72-.29a41.55,41.55,0,0,1-4.89-.16c-1.26-.22-2.07-.59-1.8-.79s1,0,2.24-.43,2.38-1.53,2.33-2.18-.05-.53-1.28-.3a31.11,31.11,0,0,0-4,.5,9.07,9.07,0,0,1-3.46.34c-2.53-.11-9.16-8.68-9.16-8.68L208,290.22s4.45-9.69.92-14.43a14.38,14.38,0,0,0-7.5,5.81c-3.08,4.52-12.65,21.56-13.45,22.86a3,3,0,0,0,.86,4.07C190.25,309.74,202.72,319.59,202.72,319.59Z" style="fill:#ffa8a7"></path></g></g></g></g><g id="freepik--character-1--inject-326"><g id="freepik--card--inject-326"><path d="M52.17,318.73l-5.83-3.37a4.81,4.81,0,0,1-2.17-3.76V160.05a4.81,4.81,0,0,1,2.17-3.76l94-54.25a4.79,4.79,0,0,1,4.33,0l5.84,3.37a4.8,4.8,0,0,1,2.16,3.76V260.72a4.81,4.81,0,0,1-2.16,3.76l-94,54.25A4.81,4.81,0,0,1,52.17,318.73Z" style="fill:#37474f"></path><path d="M44.48,158.6l0-.06Z" style="fill:#407BFF"></path><path d="M44.27,159.25a6.11,6.11,0,0,1,.21-.65A4.09,4.09,0,0,0,44.27,159.25Z" style="fill:#407BFF"></path><path d="M152.64,109.17c0-1.39-1-2-2.17-1.25l-94,54.24A4.51,4.51,0,0,0,55,163.78l-10.17-5.87a4.55,4.55,0,0,0-.3.63,4.69,4.69,0,0,1,1.83-2.25l94-54.25a4.85,4.85,0,0,1,4.33,0l5.83,3.37A4.76,4.76,0,0,1,152.64,109.17Z" style="fill:#455a64"></path><path d="M61.12,173.34v101.5c0,1.15.81,1.62,1.81,1L142.33,230a4,4,0,0,0,1.81-3.13V125.41c0-1.15-.81-1.62-1.81-1l-79.4,45.84A4,4,0,0,0,61.12,173.34Z" style="fill:#fafafa"></path><path d="M56,319a2.2,2.2,0,0,1-.36.13l-.42.09a5.14,5.14,0,0,1-1.75,0,4.44,4.44,0,0,1-.55-.12l-.26-.1a3.15,3.15,0,0,1-.49-.22l-5.83-3.37a4.81,4.81,0,0,1-2.16-3.76V160.05a3.19,3.19,0,0,1,.1-.8,5.16,5.16,0,0,1,.54-1.34L55,163.78a4.37,4.37,0,0,0-.64,2.14V317.48C54.34,318.66,55,319.25,56,319Z" style="fill:#263238"></path><path d="M79.15,280.62l1.1,2.33a.26.26,0,0,0,.35.14l2.46-.94c.39-.15.54.39.26.92l-1.78,3.34a1.09,1.09,0,0,0-.13.64l.42,3c.06.48-.34,1.11-.69,1.07l-2.2-.27a.54.54,0,0,0-.44.25l-2.19,2.81c-.35.44-.76.28-.69-.27l.42-3.5a.53.53,0,0,0-.14-.48l-1.78-1.29c-.28-.2-.12-.93.27-1.23l2.45-1.89a1.13,1.13,0,0,0,.36-.55l1.1-3.6C78.47,280.54,79,280.25,79.15,280.62Z" style="fill:#407BFF"></path><path d="M91.53,273.47l1.1,2.33a.27.27,0,0,0,.36.14l2.45-.95c.39-.14.55.4.27.93l-1.78,3.34a1.17,1.17,0,0,0-.14.64l.42,3c.07.48-.34,1.11-.69,1.07l-2.19-.27a.51.51,0,0,0-.44.25l-2.2,2.81c-.35.44-.75.28-.69-.27l.42-3.5a.53.53,0,0,0-.13-.49l-1.78-1.28c-.28-.2-.13-.93.26-1.23l2.46-1.89a1.1,1.1,0,0,0,.35-.56l1.1-3.59C90.86,273.39,91.36,273.09,91.53,273.47Z" style="fill:#407BFF"></path><path d="M103.92,266.31l1.1,2.33a.25.25,0,0,0,.35.14l2.46-.94c.39-.15.54.4.26.93l-1.77,3.33a1,1,0,0,0-.14.64l.42,3c.06.48-.34,1.11-.69,1.07l-2.2-.28a.57.57,0,0,0-.44.26l-2.19,2.81c-.35.44-.76.28-.69-.27l.42-3.5a.54.54,0,0,0-.14-.49l-1.77-1.28c-.29-.2-.13-.93.26-1.23l2.45-1.89a1.12,1.12,0,0,0,.36-.56l1.1-3.59C103.24,266.23,103.75,265.94,103.92,266.31Z" style="fill:#407BFF"></path><path d="M116.31,259.16l1.09,2.33a.26.26,0,0,0,.36.14l2.45-.94c.39-.15.55.4.27.93L118.7,265a1.19,1.19,0,0,0-.14.64l.42,3c.07.48-.34,1.11-.69,1.07l-2.19-.28a.55.55,0,0,0-.44.26l-2.2,2.8c-.34.45-.75.29-.69-.27l.42-3.5a.5.5,0,0,0-.13-.48l-1.78-1.28c-.28-.2-.13-.93.26-1.23l2.46-1.89a1.19,1.19,0,0,0,.36-.56l1.09-3.59C115.63,259.08,116.13,258.79,116.31,259.16Z" style="fill:#407BFF"></path><path d="M128.69,252l1.1,2.33a.26.26,0,0,0,.36.14l2.45-.94c.39-.15.54.4.26.93l-1.77,3.33a1.1,1.1,0,0,0-.14.64l.42,3c.07.48-.34,1.11-.69,1.06l-2.19-.27a.57.57,0,0,0-.45.26l-2.19,2.8c-.35.45-.76.29-.69-.27l.42-3.5a.5.5,0,0,0-.14-.48l-1.77-1.28c-.28-.2-.13-.93.26-1.23l2.45-1.9a1,1,0,0,0,.36-.55l1.1-3.6C128,251.93,128.52,251.64,128.69,252Z" style="fill:#407BFF"></path><g style="clip-path:url(#freepik--clip-path-3--inject-326)"><path d="M110.51,184.65c3.36-.41,5.89-1,8.47,2.62s12.39,13.58,13.35,15.39S120,230.25,120,230.25l-2.78-7.32,6.8-17.5-11-8.22Z" style="fill:#9a4a4d"></path><path d="M110.51,184.65a9.13,9.13,0,0,1,5.67-.33c2.74.9,12.19,12,13.81,14.32s2.78,3.21,2.67,4.62-1.57,4.57-4.13,10.15c-2,4.29-5.65,11.4-5.65,11.4l-3.51-7.21,4.17-11.89L113,197.21Z" style="fill:#e6e6e6"></path><polygon points="114.13 325.53 120.93 324.57 121.27 312.18 114.47 313.14 114.13 325.53" style="fill:#9a4a4d"></polygon><polygon points="88.67 338.49 95.48 337.29 95.48 325.63 88.67 326.83 88.67 338.49" style="fill:#9a4a4d"></polygon><path d="M95.48,333.93v-1c.65.17,2.16,5.68,4.86,7.67,2.15,1.58,5.08,3.32,5.83,5.37s-4.08,4.25-6.09,4.25c-2.33,0-6.37-.93-7.38-2.28s-1.49-3.5-2.32-4.47-2.72-1.88-3.17-3.09a8.78,8.78,0,0,1,.39-3.64c.32-1.26.66-2.65,1.07-2.61v.75a4.77,4.77,0,0,0,3.41.55C93.07,335.31,95.49,334.69,95.48,333.93Z" style="fill:#263238"></path><path d="M121,322.46c.35,0,.64.39,1.42,1.1a12,12,0,0,0,4,2.18c2.55.82,7.5,1.91,9.74,2.53,1.4.38,1.34,2.08-.11,3.3s-4.94,2.53-9.14,2.33c-2.29-.11-5.27-1.69-7.15-1.25s-5.41,1-6.8.33-.84-2.86-.45-4.69c.43-2,1-5,1.68-5l0,.61c.82,1.09,5,.86,6.79-.37Z" style="fill:#263238"></path><path d="M91.58,229.79c-5.32,11.89-.07,52.26-.07,52.26-.19,1.83-2.33,5.69-3.27,13.74-1.12,9.52-.16,33.29-.16,33.29s4.45,1.19,8.07-1.08c0,0,6.39-36.67,7.77-46.17,1.21-8.29,3.59-26.48,3.59-26.48l5,25.13a55,55,0,0,0-2,8.3c-.65,5.56,3.26,30.29,3.26,30.29a11.67,11.67,0,0,0,7.66-.84s2.32-34.14,3-40.82c1.08-11.22-2.12-45.16-3.24-52.18Z" style="fill:#407BFF"></path><path d="M98.69,186.93h0c-1.71.5-5.68,1.9-5.68,1.9-2.64,1.43-2.35,3-3.08,5.65-.89,3.29-.31,8.77.76,11.66L95.78,220c-1.9,4.94-3.73,6.61-4.65,10.27,8.33,4.71,26.24,1.18,30.09-4.7.16-1.14-1.31-13.57-1.92-19.1,2.6-5.17,3.59-8.72,2.23-12.09-2.33-5.77-8.71-10.42-11.74-9.64Z" style="fill:#f0f0f0"></path><path d="M103.88,180.71l-2.52.44c-7.32,1.29-13.25-3.59-13.25-10.91h0c0-7.35,6-14.37,13.32-15.67l2.37-.41c7.36-1.3,13.32,3.61,13.32,11h0C117.12,172.44,111.19,179.42,103.88,180.71Z" style="fill:#263238"></path><ellipse cx="109.01" cy="164.4" rx="11.04" ry="9.26" transform="translate(-85.85 133.77) rotate(-47.52)" style="fill:#263238"></ellipse><path d="M81.33,190.78h0a10.15,10.15,0,0,0,8.16-9.6V163.69h0a10.15,10.15,0,0,0-8.16,9.6Z" style="fill:#263238"></path><path d="M112.78,157.41c1.6.66,3.58,4.33,3.38,12.8-.16,7.17-2.48,9.35-3.64,10.06s-3.41.8-5.59.82v4.29l3.58,10.14L98,188.09V177.73a3.05,3.05,0,0,1-3.88,1.05c-2.41-1.17-2.5-5.12-1.1-6.78s4.41-1.75,5,.11c0,0,2-.6,6.56-4.14C110.82,163,112.54,160.78,112.78,157.41Z" style="fill:#b16668"></path><path d="M107.39,170a1.15,1.15,0,0,1-.86,1.13.76.76,0,0,1-.94-.73,1.13,1.13,0,0,1,.85-1.12A.75.75,0,0,1,107.39,170Z" style="fill:#263238"></path><path d="M108.43,175.84l2.08.29a1.31,1.31,0,0,1-1.36,1A1,1,0,0,1,108.43,175.84Z" style="fill:#9a4a4d"></path><path d="M114.75,165.9l-1.82-.94a1.2,1.2,0,0,1,1.51-.57A1.06,1.06,0,0,1,114.75,165.9Z" style="fill:#263238"></path><path d="M114.33,168.09a1.12,1.12,0,0,1-.85,1.12.75.75,0,0,1-.94-.72,1.14,1.14,0,0,1,.85-1.13A.75.75,0,0,1,114.33,168.09Z" style="fill:#263238"></path><polygon points="109.94 168.35 110.09 173.73 112.93 172.35 109.94 168.35" style="fill:#9a4a4d"></polygon><path d="M106.93,181.09c-2.3.11-7-.42-7.76-2.16a3.85,3.85,0,0,0,1.66,2.09c1.41,1,6.1,1.5,6.1,1.5Z" style="fill:#9a4a4d"></path><path d="M107.51,255.35l2.59-13.07s5.43-1.87,8.31-4.43a19.4,19.4,0,0,1-6.15,5.52l-3,12.42L110,268Z" style="opacity:0.1"></path><path d="M98,174h0V169.9l1.57-.28v2.48A2,2,0,0,1,98,174Z" style="fill:#263238"></path><path d="M89.2,164.36h0l-1.43-2.8h0a1.43,1.43,0,0,1,2.1.39l.09.18A1.8,1.8,0,0,1,89.2,164.36Z" style="fill:#263238"></path><path d="M110.51,195.52,98,185.77v-1.55s-1.8.62-2.24,4.12a11.35,11.35,0,0,0,6.5,5.75l1.48-1.65Z" style="fill:#e0e0e0"></path><path d="M106.93,183a5.57,5.57,0,0,1,2.53,1.52c1,1.06,3,5.9,3,5.9l-1.36.7-.6,4.38-3.58-10.14Z" style="fill:#e0e0e0"></path><path d="M86.06,234.66c.75.65,1.31,1.43,2.73,2.82A8,8,0,0,0,91,239.23a11.27,11.27,0,0,0,3.48.94,9.45,9.45,0,0,0,4.77-.79,7.21,7.21,0,0,0,2.32-1.64,4.69,4.69,0,0,0,1.23-2.51.77.77,0,0,0-.8-1,43.78,43.78,0,0,1-5.19-1.08c-1.35-.47-2.2-1-1.91-1.17s1,.18,2.37,0,2.53-1.18,2.48-1.88-.06-.57-1.36-.56a33.49,33.49,0,0,0-4.25-.22,9.57,9.57,0,0,1-3.67-.28c-2.68-.59-10.14-10.59-10.14-10.59l12.94-16.88s3.25-6.88-.49-12.57c0,0-1.66.44-4.9,3.88S72,218.05,71.1,219.28s-.59,2.92.92,4.48S86.06,234.66,86.06,234.66Z" style="fill:#9a4a4d"></path><path d="M93,188.83s4.73,6.42.49,13.13-12.41,16.41-12.41,16.41l7.09,9.16-4,5.74s-12.55-8.84-13.58-9.92-1.16-1.7,0-4.54S86.43,189,93,188.83Z" style="fill:#e6e6e6"></path></g></g></g></svg>